<svg xmlns="http://www.w3.org/2000/svg" xmlns:xlink="http://www.w3.org/1999/xlink" width="1024" zoomAndPan="magnify" viewBox="0 0 768 767.999994" height="1024" preserveAspectRatio="xMidYMid meet" version="1.0"><defs><clipPath id="ed14354d24"><path d="M 104.5 104.5 L 663.25 104.5 L 663.25 663.25 L 104.5 663.25 Z M 104.5 104.5 " clip-rule="nonzero"/></clipPath></defs><path fill="#ffffff" d="M 410.839844 300.171875 L 410.839844 345.617188 L 468.058594 345.617188 L 460.050781 407.777344 L 410.839844 407.777344 L 410.839844 550.234375 L 348.441406 550.234375 L 348.441406 407.777344 L 294.992188 407.777344 L 294.992188 345.617188 L 348.441406 345.617188 L 348.441406 300.171875 C 348.441406 250.957031 388.234375 217.757812 437.445312 217.757812 C 459.109375 217.757812 472.765625 221.054688 472.765625 221.054688 L 472.765625 273.5625 L 437.445312 273.5625 C 422.847656 273.5625 410.839844 285.570312 410.839844 300.171875 Z M 410.839844 300.171875 " fill-opacity="1" fill-rule="nonzero"/><g clip-path="url(#ed14354d24)"><path fill="#ffffff" d="M 383.996094 663.496094 C 230 663.496094 104.5 538.226562 104.5 383.996094 C 104.5 229.765625 230 104.5 383.996094 104.5 C 538.226562 104.5 663.496094 230 663.496094 383.996094 C 663.496094 537.992188 538.226562 663.496094 383.996094 663.496094 Z M 383.996094 119.804688 C 238.242188 119.804688 119.804688 238.242188 119.804688 383.996094 C 119.804688 529.75 238.242188 648.1875 383.996094 648.1875 C 529.75 648.1875 648.1875 529.75 648.1875 383.996094 C 648.1875 238.242188 529.75 119.804688 383.996094 119.804688 Z M 383.996094 119.804688 " fill-opacity="1" fill-rule="nonzero"/></g></svg>