<svg xmlns="http://www.w3.org/2000/svg" xmlns:xlink="http://www.w3.org/1999/xlink" width="1024" zoomAndPan="magnify" viewBox="0 0 768 767.999994" height="1024" preserveAspectRatio="xMidYMid meet" version="1.0"><path fill="#ffffff" d="M 347 119.140625 C 220.191406 133.195312 116.863281 235.515625 101.558594 362.125 C 101.066406 366.101562 100.65625 370.082031 100.332031 374.074219 C 100.007812 378.066406 99.769531 382.066406 99.617188 386.066406 C 99.464844 390.070312 99.398438 394.074219 99.417969 398.078125 C 99.4375 402.085938 99.539062 406.085938 99.730469 410.089844 C 99.921875 414.089844 100.199219 418.085938 100.558594 422.074219 C 100.921875 426.0625 101.367188 430.042969 101.898438 434.011719 C 102.433594 437.980469 103.050781 441.9375 103.75 445.882812 C 104.453125 449.824219 105.238281 453.75 106.109375 457.660156 C 106.980469 461.570312 107.933594 465.460938 108.96875 469.328125 C 110.007812 473.199219 111.125 477.042969 112.328125 480.863281 C 113.527344 484.683594 114.8125 488.476562 116.175781 492.242188 C 117.539062 496.007812 118.984375 499.746094 120.507812 503.449219 C 122.03125 507.152344 123.632812 510.820312 125.316406 514.457031 C 126.996094 518.09375 128.757812 521.691406 130.589844 525.25 C 132.425781 528.808594 134.339844 532.328125 136.324219 535.808594 C 138.3125 539.285156 140.371094 542.71875 142.503906 546.109375 C 144.636719 549.5 146.84375 552.839844 149.121094 556.136719 C 151.398438 559.433594 153.742188 562.675781 156.160156 565.871094 C 158.574219 569.066406 161.058594 572.207031 163.609375 575.296875 C 166.160156 578.382812 168.773438 581.417969 171.457031 584.394531 C 174.136719 587.367188 176.878906 590.285156 179.683594 593.144531 C 182.492188 596.003906 185.355469 598.800781 188.28125 601.535156 C 191.207031 604.273438 194.1875 606.945312 197.230469 609.550781 C 200.269531 612.160156 203.363281 614.703125 206.511719 617.175781 C 209.660156 619.652344 212.863281 622.058594 216.113281 624.398438 C 219.367188 626.734375 222.667969 629.003906 226.015625 631.199219 C 229.363281 633.398438 232.757812 635.519531 236.199219 637.574219 C 239.640625 639.625 243.121094 641.601562 246.648438 643.503906 C 250.171875 645.40625 253.734375 647.230469 257.339844 648.980469 C 260.941406 650.730469 264.582031 652.402344 268.257812 653.992188 C 271.929688 655.585938 275.636719 657.101562 279.378906 658.535156 C 283.117188 659.96875 286.886719 661.324219 290.683594 662.597656 C 304.679688 664.832031 309.152344 656.164062 309.152344 648.621094 L 309.152344 601.351562 C 231.695312 618.175781 215.203125 563.898438 215.203125 563.898438 C 202.378906 531.453125 184.164062 522.78125 184.164062 522.78125 C 158.710938 505.441406 186.144531 506.015625 186.144531 506.015625 C 214.097656 507.996094 228.921875 534.820312 228.921875 534.820312 C 253.25 577.320312 294.347656 564.730469 310.28125 558.019531 C 312.796875 539.847656 320.179688 527.535156 327.898438 520.546875 C 265.722656 513.558594 200.65625 489.507812 200.65625 382.988281 C 200.65625 351.949219 211.285156 327.066406 229.457031 307.214844 C 226.667969 300.226562 216.867188 271.148438 232.25 233.398438 C 232.25 233.398438 255.746094 225.835938 309.152344 261.921875 C 320.546875 258.855469 332.097656 256.546875 343.796875 255 C 355.496094 253.449219 367.246094 252.675781 379.050781 252.675781 C 390.851562 252.675781 402.601562 253.449219 414.300781 255 C 426.003906 256.546875 437.550781 258.855469 448.945312 261.921875 C 502.394531 225.835938 525.851562 233.398438 525.851562 233.398438 C 541.210938 271.148438 531.433594 300.226562 528.640625 307.214844 C 546.8125 327.007812 557.445312 351.949219 557.445312 382.988281 C 557.445312 489.785156 492 513.28125 429.664062 520.269531 C 439.722656 528.9375 448.945312 546.003906 448.945312 571.992188 L 448.945312 648.621094 C 448.945312 656.164062 453.421875 665.109375 467.691406 662.597656 C 471.746094 661.238281 475.765625 659.789062 479.753906 658.246094 C 483.738281 656.703125 487.6875 655.070312 491.601562 653.347656 C 495.511719 651.625 499.382812 649.8125 503.210938 647.910156 C 507.042969 646.011719 510.824219 644.023438 514.5625 641.949219 C 518.300781 639.875 521.988281 637.714844 525.628906 635.472656 C 529.265625 633.230469 532.851562 630.90625 536.386719 628.496094 C 539.917969 626.089844 543.394531 623.601562 546.8125 621.035156 C 550.230469 618.46875 553.589844 615.824219 556.886719 613.105469 C 560.183594 610.382812 563.417969 607.589844 566.585938 604.722656 C 569.753906 601.851562 572.859375 598.914062 575.890625 595.902344 C 578.925781 592.890625 581.890625 589.8125 584.785156 586.664062 C 587.679688 583.519531 590.5 580.308594 593.246094 577.03125 C 595.992188 573.757812 598.660156 570.417969 601.253906 567.019531 C 603.847656 563.621094 606.363281 560.167969 608.796875 556.652344 C 611.234375 553.140625 613.585938 549.574219 615.859375 545.953125 C 618.128906 542.332031 620.316406 538.660156 622.421875 534.9375 C 624.523438 531.214844 626.542969 527.449219 628.472656 523.636719 C 630.402344 519.820312 632.246094 515.964844 634 512.066406 C 635.753906 508.167969 637.417969 504.230469 638.992188 500.257812 C 640.566406 496.28125 642.046875 492.273438 643.4375 488.230469 C 644.828125 484.1875 646.125 480.117188 647.328125 476.015625 C 648.53125 471.914062 649.640625 467.785156 650.65625 463.632812 C 651.667969 459.480469 652.589844 455.308594 653.410156 451.113281 C 654.234375 446.917969 654.960938 442.707031 655.59375 438.476562 C 656.222656 434.25 656.753906 430.007812 657.191406 425.757812 C 657.628906 421.503906 657.964844 417.242188 658.207031 412.976562 C 658.445312 408.707031 658.589844 404.4375 658.636719 400.160156 C 658.679688 395.886719 658.625 391.613281 658.476562 387.34375 C 658.324219 383.070312 658.078125 378.804688 657.730469 374.542969 C 657.382812 370.28125 656.941406 366.03125 656.398438 361.789062 C 655.859375 357.550781 655.21875 353.324219 654.484375 349.113281 C 653.75 344.902344 652.921875 340.710938 651.992188 336.535156 C 651.066406 332.363281 650.046875 328.214844 648.929688 324.085938 C 647.8125 319.960938 646.601562 315.863281 645.296875 311.792969 C 643.992188 307.722656 642.59375 303.683594 641.105469 299.675781 C 639.613281 295.667969 638.035156 291.699219 636.363281 287.761719 C 634.691406 283.828125 632.929688 279.933594 631.078125 276.082031 C 629.230469 272.226562 627.292969 268.417969 625.265625 264.652344 C 623.242188 260.886719 621.132812 257.171875 618.9375 253.503906 C 616.742188 249.835938 614.464844 246.21875 612.105469 242.65625 C 609.742188 239.089844 607.300781 235.582031 604.78125 232.132812 C 602.257812 228.679688 599.660156 225.285156 596.984375 221.953125 C 594.304688 218.621094 591.554688 215.351562 588.726562 212.144531 C 585.902344 208.9375 583.003906 205.796875 580.03125 202.722656 C 577.0625 199.648438 574.023438 196.644531 570.914062 193.710938 C 567.804688 190.773438 564.632812 187.914062 561.390625 185.125 C 558.152344 182.335938 554.851562 179.621094 551.488281 176.984375 C 548.125 174.34375 544.703125 171.785156 541.21875 169.304688 C 537.738281 166.820312 534.203125 164.421875 530.613281 162.101562 C 527.023438 159.785156 523.378906 157.546875 519.6875 155.394531 C 515.992188 153.242188 512.25 151.175781 508.464844 149.195312 C 504.675781 147.214844 500.84375 145.320312 496.96875 143.515625 C 493.09375 141.710938 489.179688 139.996094 485.226562 138.367188 C 481.273438 136.742188 477.285156 135.207031 473.261719 133.765625 C 469.238281 132.320312 465.183594 130.972656 461.097656 129.714844 C 457.011719 128.457031 452.898438 127.292969 448.757812 126.222656 C 444.621094 125.15625 440.457031 124.179688 436.273438 123.304688 C 432.089844 122.425781 427.890625 121.640625 423.671875 120.957031 C 419.453125 120.269531 415.21875 119.683594 410.972656 119.191406 C 406.726562 118.699219 402.46875 118.304688 398.207031 118.007812 C 393.941406 117.710938 389.671875 117.511719 385.398438 117.410156 C 381.125 117.308594 376.851562 117.304688 372.578125 117.398438 C 368.304688 117.492188 364.035156 117.6875 359.769531 117.976562 C 355.503906 118.265625 351.25 118.652344 347 119.140625 Z M 347 119.140625 " fill-opacity="1" fill-rule="nonzero"/></svg>