<svg xmlns="http://www.w3.org/2000/svg" xmlns:xlink="http://www.w3.org/1999/xlink" width="1024" zoomAndPan="magnify" viewBox="0 0 768 767.999994" height="1024" preserveAspectRatio="xMidYMid meet" version="1.0"><defs><clipPath id="8ecf3256e4"><path d="M 98.519531 98.519531 L 669.269531 98.519531 L 669.269531 669.269531 L 98.519531 669.269531 Z M 98.519531 98.519531 " clip-rule="nonzero"/></clipPath></defs><g clip-path="url(#8ecf3256e4)"><path fill="#ffffff" d="M 552.589844 98.519531 L 215.40625 98.519531 C 150.953125 98.519531 98.519531 150.953125 98.519531 215.40625 L 98.519531 552.589844 C 98.519531 617.042969 150.953125 669.480469 215.40625 669.480469 L 552.589844 669.480469 C 617.042969 669.480469 669.480469 617.042969 669.480469 552.589844 L 669.480469 215.40625 C 669.480469 150.953125 617.042969 98.519531 552.589844 98.519531 Z M 635.894531 552.589844 C 635.894531 598.523438 598.523438 635.894531 552.589844 635.894531 L 215.40625 635.894531 C 169.472656 635.894531 132.105469 598.523438 132.105469 552.589844 L 132.105469 215.40625 C 132.105469 169.472656 169.472656 132.105469 215.40625 132.105469 L 552.589844 132.105469 C 598.523438 132.105469 635.894531 169.472656 635.894531 215.40625 Z M 635.894531 552.589844 " fill-opacity="1" fill-rule="nonzero"/></g><path fill="#ffffff" d="M 272.046875 325.363281 L 204.875 325.363281 C 195.597656 325.363281 188.082031 332.882812 188.082031 342.15625 L 188.082031 561.023438 C 188.082031 570.296875 195.597656 577.816406 204.875 577.816406 L 272.046875 577.816406 C 281.320312 577.816406 288.839844 570.296875 288.839844 561.023438 L 288.839844 342.15625 C 288.839844 332.882812 281.320312 325.363281 272.046875 325.363281 Z M 255.253906 544.230469 L 221.667969 544.230469 L 221.667969 358.949219 L 255.253906 358.949219 Z M 255.253906 544.230469 " fill-opacity="1" fill-rule="nonzero"/><path fill="#ffffff" d="M 423.183594 355.289062 L 423.183594 342.15625 C 423.183594 332.882812 415.664062 325.363281 406.390625 325.363281 L 339.21875 325.363281 C 329.941406 325.363281 322.425781 332.882812 322.425781 342.15625 L 322.425781 561.023438 C 322.425781 570.296875 329.941406 577.816406 339.21875 577.816406 L 406.390625 577.816406 C 415.664062 577.816406 423.183594 570.296875 423.183594 561.023438 L 423.183594 480.976562 C 423.183594 465.546875 435.738281 452.988281 451.171875 452.988281 C 466.601562 452.988281 479.160156 465.546875 479.160156 480.976562 L 479.160156 561.023438 C 479.160156 570.296875 486.675781 577.816406 495.953125 577.816406 L 563.125 577.816406 C 572.398438 577.816406 579.917969 570.296875 579.917969 561.023438 L 579.917969 480.976562 C 579.917969 398.960938 503.660156 337.351562 423.183594 355.289062 Z M 546.332031 544.230469 L 512.746094 544.230469 L 512.746094 480.976562 C 512.746094 447.027344 485.121094 419.402344 451.171875 419.402344 C 417.21875 419.402344 389.597656 447.027344 389.597656 480.976562 L 389.597656 544.230469 L 356.011719 544.230469 L 356.011719 358.949219 L 389.597656 358.949219 L 389.597656 378.382812 C 389.597656 390.488281 402.042969 398.613281 413.128906 393.761719 C 475.390625 366.480469 546.332031 412.140625 546.332031 480.976562 Z M 546.332031 544.230469 " fill-opacity="1" fill-rule="nonzero"/><path fill="#ffffff" d="M 238.460938 190.179688 C 210.679688 190.179688 188.082031 212.78125 188.082031 240.558594 C 188.082031 268.335938 210.679688 290.9375 238.460938 290.9375 C 266.238281 290.9375 288.839844 268.335938 288.839844 240.558594 C 288.839844 212.78125 266.238281 190.179688 238.460938 190.179688 Z M 238.460938 257.351562 C 229.199219 257.351562 221.667969 249.816406 221.667969 240.558594 C 221.667969 231.300781 229.199219 223.765625 238.460938 223.765625 C 247.71875 223.765625 255.253906 231.300781 255.253906 240.558594 C 255.253906 249.816406 247.71875 257.351562 238.460938 257.351562 Z M 238.460938 257.351562 " fill-opacity="1" fill-rule="nonzero"/></svg>