<svg xmlns="http://www.w3.org/2000/svg" xmlns:xlink="http://www.w3.org/1999/xlink" width="1920" zoomAndPan="magnify" viewBox="0 0 1440 809.999993" height="1080" preserveAspectRatio="xMidYMid meet" version="1.0"><defs><filter x="0%" y="0%" width="100%" height="100%" id="e48eab8f45"><feColorMatrix values="0 0 0 0 1 0 0 0 0 1 0 0 0 0 1 0 0 0 1 0" color-interpolation-filters="sRGB"/></filter><g/><clipPath id="52701730f6"><path d="M 473.5625 158.5625 L 966.4375 158.5625 L 966.4375 651.4375 L 473.5625 651.4375 Z M 473.5625 158.5625 " clip-rule="nonzero"/></clipPath><clipPath id="ee49da1360"><path d="M 720 158.5625 C 583.898438 158.5625 473.5625 268.898438 473.5625 405 C 473.5625 541.101562 583.898438 651.4375 720 651.4375 C 856.101562 651.4375 966.4375 541.101562 966.4375 405 C 966.4375 268.898438 856.101562 158.5625 720 158.5625 Z M 720 158.5625 " clip-rule="nonzero"/></clipPath><mask id="49c4edb09f"><g filter="url(#e48eab8f45)"><rect x="-144" width="1728" fill="#000000" y="-80.999999" height="971.999992" fill-opacity="0.58"/></g></mask><clipPath id="b8deab8d4c"><path d="M 0.5625 0.5625 L 493.4375 0.5625 L 493.4375 493.4375 L 0.5625 493.4375 Z M 0.5625 0.5625 " clip-rule="nonzero"/></clipPath><clipPath id="29c44fef77"><path d="M 247 0.5625 C 110.898438 0.5625 0.5625 110.898438 0.5625 247 C 0.5625 383.101562 110.898438 493.4375 247 493.4375 C 383.101562 493.4375 493.4375 383.101562 493.4375 247 C 493.4375 110.898438 383.101562 0.5625 247 0.5625 Z M 247 0.5625 " clip-rule="nonzero"/></clipPath><clipPath id="33f6d555bc"><rect x="0" width="494" y="0" height="494"/></clipPath><clipPath id="13632ec398"><path d="M 473.5625 158.5625 L 966.773438 158.5625 L 966.773438 651.773438 L 473.5625 651.773438 Z M 473.5625 158.5625 " clip-rule="nonzero"/></clipPath><clipPath id="db4ac60035"><path d="M 966.773438 405.167969 C 966.773438 409.207031 966.675781 413.238281 966.476562 417.269531 C 966.28125 421.300781 965.984375 425.324219 965.585938 429.339844 C 965.191406 433.359375 964.699219 437.363281 964.105469 441.355469 C 963.515625 445.347656 962.824219 449.320312 962.035156 453.28125 C 961.25 457.238281 960.367188 461.175781 959.386719 465.089844 C 958.402344 469.003906 957.328125 472.894531 956.15625 476.753906 C 954.984375 480.617188 953.71875 484.449219 952.359375 488.25 C 951 492.046875 949.546875 495.8125 948.003906 499.542969 C 946.460938 503.269531 944.824219 506.957031 943.097656 510.605469 C 941.371094 514.253906 939.558594 517.859375 937.65625 521.417969 C 935.753906 524.976562 933.765625 528.488281 931.691406 531.949219 C 929.617188 535.410156 927.457031 538.820312 925.214844 542.175781 C 922.972656 545.53125 920.648438 548.832031 918.246094 552.074219 C 915.839844 555.3125 913.359375 558.496094 910.796875 561.613281 C 908.238281 564.734375 905.601562 567.789062 902.890625 570.78125 C 900.183594 573.769531 897.398438 576.691406 894.546875 579.546875 C 891.691406 582.398438 888.769531 585.183594 885.78125 587.890625 C 882.789062 590.601562 879.734375 593.238281 876.613281 595.796875 C 873.496094 598.359375 870.3125 600.839844 867.074219 603.246094 C 863.832031 605.648438 860.53125 607.972656 857.175781 610.214844 C 853.820312 612.457031 850.410156 614.617188 846.949219 616.691406 C 843.488281 618.765625 839.976562 620.753906 836.417969 622.65625 C 832.859375 624.558594 829.253906 626.371094 825.605469 628.097656 C 821.957031 629.824219 818.269531 631.460938 814.542969 633.003906 C 810.8125 634.546875 807.046875 636 803.25 637.359375 C 799.449219 638.71875 795.617188 639.984375 791.753906 641.15625 C 787.894531 642.328125 784.003906 643.402344 780.089844 644.386719 C 776.175781 645.367188 772.238281 646.25 768.28125 647.035156 C 764.320312 647.824219 760.347656 648.515625 756.355469 649.105469 C 752.363281 649.699219 748.359375 650.191406 744.339844 650.585938 C 740.324219 650.984375 736.300781 651.28125 732.269531 651.476562 C 728.238281 651.675781 724.207031 651.773438 720.167969 651.773438 C 716.132812 651.773438 712.101562 651.675781 708.070312 651.476562 C 704.039062 651.28125 700.015625 650.984375 695.996094 650.585938 C 691.980469 650.191406 687.976562 649.699219 683.984375 649.105469 C 679.992188 648.515625 676.015625 647.824219 672.058594 647.035156 C 668.101562 646.25 664.164062 645.367188 660.25 644.386719 C 656.335938 643.402344 652.445312 642.328125 648.582031 641.15625 C 644.722656 639.984375 640.890625 638.71875 637.089844 637.359375 C 633.289062 636 629.527344 634.546875 625.796875 633.003906 C 622.070312 631.460938 618.378906 629.824219 614.730469 628.097656 C 611.082031 626.371094 607.480469 624.558594 603.921875 622.65625 C 600.359375 620.753906 596.851562 618.765625 593.390625 616.691406 C 589.925781 614.617188 586.519531 612.457031 583.164062 610.214844 C 579.808594 607.972656 576.507812 605.648438 573.265625 603.246094 C 570.023438 600.839844 566.84375 598.359375 563.726562 595.796875 C 560.605469 593.238281 557.550781 590.601562 554.558594 587.890625 C 551.570312 585.183594 548.648438 582.398438 545.792969 579.546875 C 542.9375 576.691406 540.15625 573.769531 537.445312 570.78125 C 534.738281 567.789062 532.101562 564.734375 529.539062 561.613281 C 526.980469 558.496094 524.5 555.3125 522.09375 552.074219 C 519.691406 548.832031 517.367188 545.53125 515.125 542.175781 C 512.882812 538.820312 510.722656 535.410156 508.648438 531.949219 C 506.574219 528.488281 504.585938 524.976562 502.683594 521.417969 C 500.78125 517.859375 498.964844 514.253906 497.242188 510.605469 C 495.515625 506.957031 493.878906 503.269531 492.335938 499.542969 C 490.792969 495.8125 489.339844 492.046875 487.980469 488.25 C 486.621094 484.449219 485.355469 480.617188 484.183594 476.753906 C 483.011719 472.894531 481.933594 469.003906 480.953125 465.089844 C 479.972656 461.175781 479.089844 457.238281 478.300781 453.28125 C 477.515625 449.320312 476.824219 445.347656 476.234375 441.355469 C 475.640625 437.363281 475.148438 433.359375 474.75 429.339844 C 474.355469 425.324219 474.058594 421.300781 473.859375 417.269531 C 473.664062 413.238281 473.5625 409.207031 473.5625 405.167969 C 473.5625 401.132812 473.664062 397.101562 473.859375 393.070312 C 474.058594 389.039062 474.355469 385.015625 474.75 381 C 475.148438 376.980469 475.640625 372.976562 476.234375 368.984375 C 476.824219 364.992188 477.515625 361.015625 478.300781 357.058594 C 479.089844 353.101562 479.972656 349.164062 480.953125 345.25 C 481.933594 341.335938 483.011719 337.445312 484.183594 333.582031 C 485.355469 329.722656 486.621094 325.890625 487.980469 322.089844 C 489.339844 318.289062 490.792969 314.527344 492.335938 310.796875 C 493.878906 307.070312 495.515625 303.378906 497.242188 299.730469 C 498.964844 296.082031 500.78125 292.480469 502.683594 288.921875 C 504.585938 285.359375 506.574219 281.851562 508.648438 278.390625 C 510.722656 274.925781 512.882812 271.519531 515.125 268.164062 C 517.367188 264.808594 519.691406 261.507812 522.09375 258.265625 C 524.5 255.023438 526.980469 251.84375 529.539062 248.726562 C 532.101562 245.605469 534.738281 242.550781 537.445312 239.558594 C 540.15625 236.570312 542.9375 233.648438 545.792969 230.792969 C 548.648438 227.9375 551.570312 225.15625 554.558594 222.445312 C 557.550781 219.738281 560.605469 217.101562 563.726562 214.539062 C 566.84375 211.980469 570.023438 209.5 573.265625 207.09375 C 576.507812 204.691406 579.808594 202.367188 583.164062 200.125 C 586.519531 197.882812 589.925781 195.722656 593.390625 193.648438 C 596.851562 191.574219 600.359375 189.585938 603.921875 187.683594 C 607.480469 185.78125 611.082031 183.964844 614.730469 182.242188 C 618.378906 180.515625 622.070312 178.878906 625.796875 177.335938 C 629.527344 175.792969 633.289062 174.339844 637.089844 172.980469 C 640.890625 171.621094 644.722656 170.355469 648.582031 169.183594 C 652.445312 168.011719 656.335938 166.933594 660.25 165.953125 C 664.164062 164.972656 668.101562 164.089844 672.058594 163.300781 C 676.015625 162.515625 679.992188 161.824219 683.984375 161.234375 C 687.976562 160.640625 691.980469 160.148438 695.996094 159.75 C 700.015625 159.355469 704.039062 159.058594 708.070312 158.859375 C 712.101562 158.664062 716.132812 158.5625 720.167969 158.5625 C 724.207031 158.5625 728.238281 158.664062 732.269531 158.859375 C 736.300781 159.058594 740.324219 159.355469 744.339844 159.75 C 748.359375 160.148438 752.363281 160.640625 756.355469 161.234375 C 760.347656 161.824219 764.320312 162.515625 768.28125 163.300781 C 772.238281 164.089844 776.175781 164.972656 780.089844 165.953125 C 784.003906 166.933594 787.894531 168.011719 791.753906 169.183594 C 795.617188 170.355469 799.449219 171.621094 803.25 172.980469 C 807.046875 174.339844 810.8125 175.792969 814.542969 177.335938 C 818.269531 178.878906 821.957031 180.515625 825.605469 182.242188 C 829.253906 183.964844 832.859375 185.78125 836.417969 187.683594 C 839.976562 189.585938 843.488281 191.574219 846.949219 193.648438 C 850.410156 195.722656 853.820312 197.882812 857.175781 200.125 C 860.53125 202.367188 863.832031 204.691406 867.074219 207.09375 C 870.3125 209.5 873.496094 211.980469 876.613281 214.539062 C 879.734375 217.101562 882.789062 219.738281 885.78125 222.445312 C 888.769531 225.15625 891.691406 227.9375 894.546875 230.792969 C 897.398438 233.648438 900.183594 236.570312 902.890625 239.558594 C 905.601562 242.550781 908.238281 245.605469 910.796875 248.726562 C 913.359375 251.84375 915.839844 255.023438 918.246094 258.265625 C 920.648438 261.507812 922.972656 264.808594 925.214844 268.164062 C 927.457031 271.519531 929.617188 274.925781 931.691406 278.390625 C 933.765625 281.851562 935.753906 285.359375 937.65625 288.921875 C 939.558594 292.480469 941.371094 296.082031 943.097656 299.730469 C 944.824219 303.378906 946.460938 307.070312 948.003906 310.796875 C 949.546875 314.527344 951 318.289062 952.359375 322.089844 C 953.71875 325.890625 954.984375 329.722656 956.15625 333.582031 C 957.328125 337.445312 958.402344 341.335938 959.386719 345.25 C 960.367188 349.164062 961.25 353.101562 962.035156 357.058594 C 962.824219 361.015625 963.515625 364.992188 964.105469 368.984375 C 964.699219 372.976562 965.191406 376.980469 965.585938 381 C 965.984375 385.015625 966.28125 389.039062 966.476562 393.070312 C 966.675781 397.101562 966.773438 401.132812 966.773438 405.167969 Z M 966.773438 405.167969 " clip-rule="nonzero"/></clipPath><linearGradient x1="-0.000000743773" gradientTransform="matrix(7.706428, 0, 0, 7.706428, 473.563932, 158.563919)" y1="32" x2="63.99999" gradientUnits="userSpaceOnUse" y2="32" id="9ecab79f15"><stop stop-opacity="1" stop-color="rgb(100%, 23.498535%, 67.498779%)" offset="0"/><stop stop-opacity="1" stop-color="rgb(99.586487%, 23.544312%, 67.460632%)" offset="0.00390625"/><stop stop-opacity="1" stop-color="rgb(99.172974%, 23.591614%, 67.424011%)" offset="0.0078125"/><stop stop-opacity="1" stop-color="rgb(98.75946%, 23.63739%, 67.385864%)" offset="0.0117188"/><stop stop-opacity="1" stop-color="rgb(98.345947%, 23.683167%, 67.349243%)" offset="0.015625"/><stop stop-opacity="1" stop-color="rgb(97.932434%, 23.728943%, 67.311096%)" offset="0.0195312"/><stop stop-opacity="1" stop-color="rgb(97.518921%, 23.776245%, 67.274475%)" offset="0.0234375"/><stop stop-opacity="1" stop-color="rgb(97.105408%, 23.822021%, 67.236328%)" offset="0.0273438"/><stop stop-opacity="1" stop-color="rgb(96.69342%, 23.867798%, 67.199707%)" offset="0.03125"/><stop stop-opacity="1" stop-color="rgb(96.279907%, 23.913574%, 67.16156%)" offset="0.0351562"/><stop stop-opacity="1" stop-color="rgb(95.866394%, 23.960876%, 67.124939%)" offset="0.0390625"/><stop stop-opacity="1" stop-color="rgb(95.452881%, 24.006653%, 67.086792%)" offset="0.0429688"/><stop stop-opacity="1" stop-color="rgb(95.039368%, 24.052429%, 67.048645%)" offset="0.046875"/><stop stop-opacity="1" stop-color="rgb(94.625854%, 24.098206%, 67.010498%)" offset="0.0507812"/><stop stop-opacity="1" stop-color="rgb(94.213867%, 24.143982%, 66.973877%)" offset="0.0546875"/><stop stop-opacity="1" stop-color="rgb(93.800354%, 24.189758%, 66.93573%)" offset="0.0585938"/><stop stop-opacity="1" stop-color="rgb(93.386841%, 24.237061%, 66.899109%)" offset="0.0625"/><stop stop-opacity="1" stop-color="rgb(92.973328%, 24.282837%, 66.860962%)" offset="0.0664062"/><stop stop-opacity="1" stop-color="rgb(92.559814%, 24.328613%, 66.824341%)" offset="0.0703125"/><stop stop-opacity="1" stop-color="rgb(92.146301%, 24.37439%, 66.786194%)" offset="0.0742188"/><stop stop-opacity="1" stop-color="rgb(91.734314%, 24.421692%, 66.749573%)" offset="0.078125"/><stop stop-opacity="1" stop-color="rgb(91.320801%, 24.467468%, 66.711426%)" offset="0.0820312"/><stop stop-opacity="1" stop-color="rgb(90.907288%, 24.513245%, 66.674805%)" offset="0.0859375"/><stop stop-opacity="1" stop-color="rgb(90.493774%, 24.559021%, 66.636658%)" offset="0.0898438"/><stop stop-opacity="1" stop-color="rgb(90.080261%, 24.604797%, 66.598511%)" offset="0.09375"/><stop stop-opacity="1" stop-color="rgb(89.666748%, 24.650574%, 66.560364%)" offset="0.0976562"/><stop stop-opacity="1" stop-color="rgb(89.253235%, 24.697876%, 66.523743%)" offset="0.101562"/><stop stop-opacity="1" stop-color="rgb(88.839722%, 24.743652%, 66.485596%)" offset="0.105469"/><stop stop-opacity="1" stop-color="rgb(88.427734%, 24.789429%, 66.448975%)" offset="0.109375"/><stop stop-opacity="1" stop-color="rgb(88.014221%, 24.835205%, 66.410828%)" offset="0.113281"/><stop stop-opacity="1" stop-color="rgb(87.600708%, 24.882507%, 66.374207%)" offset="0.117188"/><stop stop-opacity="1" stop-color="rgb(87.187195%, 24.928284%, 66.33606%)" offset="0.121094"/><stop stop-opacity="1" stop-color="rgb(86.773682%, 24.97406%, 66.299438%)" offset="0.125"/><stop stop-opacity="1" stop-color="rgb(86.360168%, 25.019836%, 66.261292%)" offset="0.128906"/><stop stop-opacity="1" stop-color="rgb(85.948181%, 25.067139%, 66.22467%)" offset="0.132812"/><stop stop-opacity="1" stop-color="rgb(85.534668%, 25.112915%, 66.186523%)" offset="0.136719"/><stop stop-opacity="1" stop-color="rgb(85.121155%, 25.158691%, 66.149902%)" offset="0.140625"/><stop stop-opacity="1" stop-color="rgb(84.707642%, 25.204468%, 66.111755%)" offset="0.144531"/><stop stop-opacity="1" stop-color="rgb(84.294128%, 25.250244%, 66.073608%)" offset="0.148438"/><stop stop-opacity="1" stop-color="rgb(83.880615%, 25.296021%, 66.035461%)" offset="0.152344"/><stop stop-opacity="1" stop-color="rgb(83.468628%, 25.343323%, 65.99884%)" offset="0.15625"/><stop stop-opacity="1" stop-color="rgb(83.055115%, 25.389099%, 65.960693%)" offset="0.160156"/><stop stop-opacity="1" stop-color="rgb(82.641602%, 25.434875%, 65.924072%)" offset="0.164062"/><stop stop-opacity="1" stop-color="rgb(82.228088%, 25.480652%, 65.885925%)" offset="0.167969"/><stop stop-opacity="1" stop-color="rgb(81.814575%, 25.527954%, 65.849304%)" offset="0.171875"/><stop stop-opacity="1" stop-color="rgb(81.401062%, 25.57373%, 65.811157%)" offset="0.175781"/><stop stop-opacity="1" stop-color="rgb(80.987549%, 25.619507%, 65.774536%)" offset="0.179688"/><stop stop-opacity="1" stop-color="rgb(80.574036%, 25.665283%, 65.736389%)" offset="0.183594"/><stop stop-opacity="1" stop-color="rgb(80.162048%, 25.71106%, 65.699768%)" offset="0.1875"/><stop stop-opacity="1" stop-color="rgb(79.748535%, 25.756836%, 65.661621%)" offset="0.191406"/><stop stop-opacity="1" stop-color="rgb(79.335022%, 25.804138%, 65.625%)" offset="0.195312"/><stop stop-opacity="1" stop-color="rgb(78.921509%, 25.849915%, 65.586853%)" offset="0.199219"/><stop stop-opacity="1" stop-color="rgb(78.507996%, 25.895691%, 65.548706%)" offset="0.203125"/><stop stop-opacity="1" stop-color="rgb(78.094482%, 25.941467%, 65.510559%)" offset="0.207031"/><stop stop-opacity="1" stop-color="rgb(77.682495%, 25.98877%, 65.473938%)" offset="0.210938"/><stop stop-opacity="1" stop-color="rgb(77.268982%, 26.034546%, 65.435791%)" offset="0.214844"/><stop stop-opacity="1" stop-color="rgb(76.855469%, 26.080322%, 65.39917%)" offset="0.21875"/><stop stop-opacity="1" stop-color="rgb(76.441956%, 26.126099%, 65.361023%)" offset="0.222656"/><stop stop-opacity="1" stop-color="rgb(76.028442%, 26.173401%, 65.324402%)" offset="0.226562"/><stop stop-opacity="1" stop-color="rgb(75.614929%, 26.219177%, 65.286255%)" offset="0.230469"/><stop stop-opacity="1" stop-color="rgb(75.202942%, 26.264954%, 65.249634%)" offset="0.234375"/><stop stop-opacity="1" stop-color="rgb(74.789429%, 26.31073%, 65.211487%)" offset="0.238281"/><stop stop-opacity="1" stop-color="rgb(74.375916%, 26.356506%, 65.174866%)" offset="0.242188"/><stop stop-opacity="1" stop-color="rgb(73.962402%, 26.402283%, 65.136719%)" offset="0.246094"/><stop stop-opacity="1" stop-color="rgb(73.548889%, 26.449585%, 65.098572%)" offset="0.25"/><stop stop-opacity="1" stop-color="rgb(73.135376%, 26.495361%, 65.060425%)" offset="0.253906"/><stop stop-opacity="1" stop-color="rgb(72.723389%, 26.541138%, 65.023804%)" offset="0.257812"/><stop stop-opacity="1" stop-color="rgb(72.309875%, 26.586914%, 64.985657%)" offset="0.261719"/><stop stop-opacity="1" stop-color="rgb(71.896362%, 26.634216%, 64.949036%)" offset="0.265625"/><stop stop-opacity="1" stop-color="rgb(71.482849%, 26.679993%, 64.910889%)" offset="0.269531"/><stop stop-opacity="1" stop-color="rgb(71.069336%, 26.725769%, 64.874268%)" offset="0.273438"/><stop stop-opacity="1" stop-color="rgb(70.655823%, 26.771545%, 64.836121%)" offset="0.277344"/><stop stop-opacity="1" stop-color="rgb(70.24231%, 26.817322%, 64.7995%)" offset="0.28125"/><stop stop-opacity="1" stop-color="rgb(69.828796%, 26.863098%, 64.761353%)" offset="0.285156"/><stop stop-opacity="1" stop-color="rgb(69.416809%, 26.9104%, 64.724731%)" offset="0.289062"/><stop stop-opacity="1" stop-color="rgb(69.003296%, 26.956177%, 64.686584%)" offset="0.292969"/><stop stop-opacity="1" stop-color="rgb(68.589783%, 27.001953%, 64.649963%)" offset="0.296875"/><stop stop-opacity="1" stop-color="rgb(68.17627%, 27.047729%, 64.611816%)" offset="0.300781"/><stop stop-opacity="1" stop-color="rgb(67.762756%, 27.095032%, 64.573669%)" offset="0.304688"/><stop stop-opacity="1" stop-color="rgb(67.349243%, 27.140808%, 64.535522%)" offset="0.308594"/><stop stop-opacity="1" stop-color="rgb(66.937256%, 27.186584%, 64.498901%)" offset="0.3125"/><stop stop-opacity="1" stop-color="rgb(66.523743%, 27.232361%, 64.460754%)" offset="0.316406"/><stop stop-opacity="1" stop-color="rgb(66.110229%, 27.279663%, 64.424133%)" offset="0.320312"/><stop stop-opacity="1" stop-color="rgb(65.696716%, 27.325439%, 64.385986%)" offset="0.324219"/><stop stop-opacity="1" stop-color="rgb(65.283203%, 27.371216%, 64.349365%)" offset="0.328125"/><stop stop-opacity="1" stop-color="rgb(64.86969%, 27.416992%, 64.311218%)" offset="0.332031"/><stop stop-opacity="1" stop-color="rgb(64.457703%, 27.462769%, 64.274597%)" offset="0.335938"/><stop stop-opacity="1" stop-color="rgb(64.044189%, 27.508545%, 64.23645%)" offset="0.339844"/><stop stop-opacity="1" stop-color="rgb(63.630676%, 27.555847%, 64.199829%)" offset="0.34375"/><stop stop-opacity="1" stop-color="rgb(63.217163%, 27.601624%, 64.161682%)" offset="0.347656"/><stop stop-opacity="1" stop-color="rgb(62.80365%, 27.6474%, 64.123535%)" offset="0.351562"/><stop stop-opacity="1" stop-color="rgb(62.390137%, 27.693176%, 64.085388%)" offset="0.355469"/><stop stop-opacity="1" stop-color="rgb(61.976624%, 27.740479%, 64.048767%)" offset="0.359375"/><stop stop-opacity="1" stop-color="rgb(61.56311%, 27.786255%, 64.01062%)" offset="0.363281"/><stop stop-opacity="1" stop-color="rgb(61.151123%, 27.832031%, 63.973999%)" offset="0.367188"/><stop stop-opacity="1" stop-color="rgb(60.73761%, 27.877808%, 63.935852%)" offset="0.371094"/><stop stop-opacity="1" stop-color="rgb(60.324097%, 27.923584%, 63.899231%)" offset="0.375"/><stop stop-opacity="1" stop-color="rgb(59.910583%, 27.96936%, 63.861084%)" offset="0.378906"/><stop stop-opacity="1" stop-color="rgb(59.49707%, 28.016663%, 63.824463%)" offset="0.382812"/><stop stop-opacity="1" stop-color="rgb(59.083557%, 28.062439%, 63.786316%)" offset="0.386719"/><stop stop-opacity="1" stop-color="rgb(58.67157%, 28.108215%, 63.749695%)" offset="0.390625"/><stop stop-opacity="1" stop-color="rgb(58.258057%, 28.153992%, 63.711548%)" offset="0.394531"/><stop stop-opacity="1" stop-color="rgb(57.844543%, 28.201294%, 63.674927%)" offset="0.398438"/><stop stop-opacity="1" stop-color="rgb(57.43103%, 28.24707%, 63.63678%)" offset="0.402344"/><stop stop-opacity="1" stop-color="rgb(57.017517%, 28.292847%, 63.598633%)" offset="0.40625"/><stop stop-opacity="1" stop-color="rgb(56.604004%, 28.338623%, 63.560486%)" offset="0.410156"/><stop stop-opacity="1" stop-color="rgb(56.192017%, 28.385925%, 63.523865%)" offset="0.414062"/><stop stop-opacity="1" stop-color="rgb(55.778503%, 28.431702%, 63.485718%)" offset="0.417969"/><stop stop-opacity="1" stop-color="rgb(55.36499%, 28.477478%, 63.449097%)" offset="0.421875"/><stop stop-opacity="1" stop-color="rgb(54.951477%, 28.523254%, 63.41095%)" offset="0.425781"/><stop stop-opacity="1" stop-color="rgb(54.537964%, 28.569031%, 63.374329%)" offset="0.429688"/><stop stop-opacity="1" stop-color="rgb(54.124451%, 28.614807%, 63.336182%)" offset="0.433594"/><stop stop-opacity="1" stop-color="rgb(53.712463%, 28.662109%, 63.299561%)" offset="0.4375"/><stop stop-opacity="1" stop-color="rgb(53.29895%, 28.707886%, 63.261414%)" offset="0.441406"/><stop stop-opacity="1" stop-color="rgb(52.885437%, 28.753662%, 63.224792%)" offset="0.445313"/><stop stop-opacity="1" stop-color="rgb(52.471924%, 28.799438%, 63.186646%)" offset="0.449219"/><stop stop-opacity="1" stop-color="rgb(52.058411%, 28.846741%, 63.148499%)" offset="0.453125"/><stop stop-opacity="1" stop-color="rgb(51.644897%, 28.892517%, 63.110352%)" offset="0.457031"/><stop stop-opacity="1" stop-color="rgb(51.231384%, 28.938293%, 63.07373%)" offset="0.460938"/><stop stop-opacity="1" stop-color="rgb(50.817871%, 28.98407%, 63.035583%)" offset="0.464844"/><stop stop-opacity="1" stop-color="rgb(50.405884%, 29.029846%, 62.998962%)" offset="0.46875"/><stop stop-opacity="1" stop-color="rgb(49.992371%, 29.075623%, 62.960815%)" offset="0.472656"/><stop stop-opacity="1" stop-color="rgb(49.578857%, 29.122925%, 62.924194%)" offset="0.476562"/><stop stop-opacity="1" stop-color="rgb(49.165344%, 29.168701%, 62.886047%)" offset="0.480469"/><stop stop-opacity="1" stop-color="rgb(48.751831%, 29.214478%, 62.849426%)" offset="0.484375"/><stop stop-opacity="1" stop-color="rgb(48.338318%, 29.260254%, 62.811279%)" offset="0.488281"/><stop stop-opacity="1" stop-color="rgb(47.926331%, 29.307556%, 62.774658%)" offset="0.492188"/><stop stop-opacity="1" stop-color="rgb(47.512817%, 29.353333%, 62.736511%)" offset="0.496094"/><stop stop-opacity="1" stop-color="rgb(47.099304%, 29.399109%, 62.69989%)" offset="0.5"/><stop stop-opacity="1" stop-color="rgb(46.862793%, 29.579163%, 62.812805%)" offset="0.503906"/><stop stop-opacity="1" stop-color="rgb(46.627808%, 29.760742%, 62.927246%)" offset="0.507812"/><stop stop-opacity="1" stop-color="rgb(46.391296%, 29.940796%, 63.041687%)" offset="0.511719"/><stop stop-opacity="1" stop-color="rgb(46.154785%, 30.12085%, 63.156128%)" offset="0.515625"/><stop stop-opacity="1" stop-color="rgb(45.918274%, 30.300903%, 63.269043%)" offset="0.519531"/><stop stop-opacity="1" stop-color="rgb(45.683289%, 30.482483%, 63.383484%)" offset="0.523437"/><stop stop-opacity="1" stop-color="rgb(45.446777%, 30.662537%, 63.497925%)" offset="0.527344"/><stop stop-opacity="1" stop-color="rgb(45.211792%, 30.84259%, 63.612366%)" offset="0.53125"/><stop stop-opacity="1" stop-color="rgb(44.975281%, 31.022644%, 63.725281%)" offset="0.535156"/><stop stop-opacity="1" stop-color="rgb(44.740295%, 31.204224%, 63.839722%)" offset="0.539062"/><stop stop-opacity="1" stop-color="rgb(44.503784%, 31.384277%, 63.954163%)" offset="0.542969"/><stop stop-opacity="1" stop-color="rgb(44.267273%, 31.564331%, 64.068604%)" offset="0.546875"/><stop stop-opacity="1" stop-color="rgb(44.030762%, 31.744385%, 64.181519%)" offset="0.550781"/><stop stop-opacity="1" stop-color="rgb(43.795776%, 31.925964%, 64.295959%)" offset="0.554688"/><stop stop-opacity="1" stop-color="rgb(43.559265%, 32.106018%, 64.4104%)" offset="0.558594"/><stop stop-opacity="1" stop-color="rgb(43.32428%, 32.286072%, 64.524841%)" offset="0.5625"/><stop stop-opacity="1" stop-color="rgb(43.087769%, 32.466125%, 64.637756%)" offset="0.566406"/><stop stop-opacity="1" stop-color="rgb(42.852783%, 32.647705%, 64.752197%)" offset="0.570312"/><stop stop-opacity="1" stop-color="rgb(42.616272%, 32.827759%, 64.866638%)" offset="0.574219"/><stop stop-opacity="1" stop-color="rgb(42.379761%, 33.009338%, 64.981079%)" offset="0.578125"/><stop stop-opacity="1" stop-color="rgb(42.14325%, 33.189392%, 65.093994%)" offset="0.582031"/><stop stop-opacity="1" stop-color="rgb(41.908264%, 33.369446%, 65.208435%)" offset="0.585938"/><stop stop-opacity="1" stop-color="rgb(41.671753%, 33.5495%, 65.322876%)" offset="0.589844"/><stop stop-opacity="1" stop-color="rgb(41.436768%, 33.731079%, 65.437317%)" offset="0.59375"/><stop stop-opacity="1" stop-color="rgb(41.200256%, 33.911133%, 65.550232%)" offset="0.597656"/><stop stop-opacity="1" stop-color="rgb(40.965271%, 34.091187%, 65.664673%)" offset="0.601562"/><stop stop-opacity="1" stop-color="rgb(40.72876%, 34.27124%, 65.779114%)" offset="0.605469"/><stop stop-opacity="1" stop-color="rgb(40.492249%, 34.45282%, 65.893555%)" offset="0.609375"/><stop stop-opacity="1" stop-color="rgb(40.255737%, 34.632874%, 66.00647%)" offset="0.613281"/><stop stop-opacity="1" stop-color="rgb(40.020752%, 34.812927%, 66.120911%)" offset="0.617187"/><stop stop-opacity="1" stop-color="rgb(39.784241%, 34.992981%, 66.235352%)" offset="0.621094"/><stop stop-opacity="1" stop-color="rgb(39.549255%, 35.174561%, 66.349792%)" offset="0.625"/><stop stop-opacity="1" stop-color="rgb(39.312744%, 35.354614%, 66.462708%)" offset="0.628906"/><stop stop-opacity="1" stop-color="rgb(39.077759%, 35.534668%, 66.577148%)" offset="0.632812"/><stop stop-opacity="1" stop-color="rgb(38.841248%, 35.714722%, 66.691589%)" offset="0.636719"/><stop stop-opacity="1" stop-color="rgb(38.604736%, 35.896301%, 66.80603%)" offset="0.640625"/><stop stop-opacity="1" stop-color="rgb(38.368225%, 36.076355%, 66.918945%)" offset="0.644531"/><stop stop-opacity="1" stop-color="rgb(38.13324%, 36.256409%, 67.033386%)" offset="0.648438"/><stop stop-opacity="1" stop-color="rgb(37.896729%, 36.436462%, 67.147827%)" offset="0.652344"/><stop stop-opacity="1" stop-color="rgb(37.661743%, 36.618042%, 67.262268%)" offset="0.65625"/><stop stop-opacity="1" stop-color="rgb(37.425232%, 36.798096%, 67.375183%)" offset="0.660156"/><stop stop-opacity="1" stop-color="rgb(37.190247%, 36.979675%, 67.489624%)" offset="0.664062"/><stop stop-opacity="1" stop-color="rgb(36.953735%, 37.159729%, 67.604065%)" offset="0.667969"/><stop stop-opacity="1" stop-color="rgb(36.71875%, 37.339783%, 67.718506%)" offset="0.671875"/><stop stop-opacity="1" stop-color="rgb(36.482239%, 37.519836%, 67.831421%)" offset="0.675781"/><stop stop-opacity="1" stop-color="rgb(36.245728%, 37.701416%, 67.945862%)" offset="0.679688"/><stop stop-opacity="1" stop-color="rgb(36.009216%, 37.88147%, 68.060303%)" offset="0.683594"/><stop stop-opacity="1" stop-color="rgb(35.774231%, 38.061523%, 68.174744%)" offset="0.6875"/><stop stop-opacity="1" stop-color="rgb(35.53772%, 38.241577%, 68.287659%)" offset="0.691406"/><stop stop-opacity="1" stop-color="rgb(35.302734%, 38.423157%, 68.4021%)" offset="0.695312"/><stop stop-opacity="1" stop-color="rgb(35.066223%, 38.60321%, 68.516541%)" offset="0.699219"/><stop stop-opacity="1" stop-color="rgb(34.831238%, 38.783264%, 68.630981%)" offset="0.703125"/><stop stop-opacity="1" stop-color="rgb(34.594727%, 38.963318%, 68.743896%)" offset="0.707031"/><stop stop-opacity="1" stop-color="rgb(34.358215%, 39.144897%, 68.858337%)" offset="0.710937"/><stop stop-opacity="1" stop-color="rgb(34.121704%, 39.324951%, 68.972778%)" offset="0.714844"/><stop stop-opacity="1" stop-color="rgb(33.886719%, 39.505005%, 69.087219%)" offset="0.71875"/><stop stop-opacity="1" stop-color="rgb(33.650208%, 39.685059%, 69.200134%)" offset="0.722656"/><stop stop-opacity="1" stop-color="rgb(33.415222%, 39.866638%, 69.314575%)" offset="0.726562"/><stop stop-opacity="1" stop-color="rgb(33.178711%, 40.046692%, 69.429016%)" offset="0.730469"/><stop stop-opacity="1" stop-color="rgb(32.943726%, 40.226746%, 69.543457%)" offset="0.734375"/><stop stop-opacity="1" stop-color="rgb(32.707214%, 40.406799%, 69.656372%)" offset="0.738281"/><stop stop-opacity="1" stop-color="rgb(32.470703%, 40.588379%, 69.770813%)" offset="0.742188"/><stop stop-opacity="1" stop-color="rgb(32.234192%, 40.768433%, 69.885254%)" offset="0.746094"/><stop stop-opacity="1" stop-color="rgb(31.999207%, 40.948486%, 69.999695%)" offset="0.75"/><stop stop-opacity="1" stop-color="rgb(31.762695%, 41.12854%, 70.11261%)" offset="0.753906"/><stop stop-opacity="1" stop-color="rgb(31.52771%, 41.31012%, 70.227051%)" offset="0.757812"/><stop stop-opacity="1" stop-color="rgb(31.291199%, 41.490173%, 70.341492%)" offset="0.761719"/><stop stop-opacity="1" stop-color="rgb(31.056213%, 41.671753%, 70.455933%)" offset="0.765625"/><stop stop-opacity="1" stop-color="rgb(30.819702%, 41.851807%, 70.568848%)" offset="0.769531"/><stop stop-opacity="1" stop-color="rgb(30.583191%, 42.03186%, 70.683289%)" offset="0.773438"/><stop stop-opacity="1" stop-color="rgb(30.34668%, 42.211914%, 70.797729%)" offset="0.777344"/><stop stop-opacity="1" stop-color="rgb(30.111694%, 42.393494%, 70.91217%)" offset="0.78125"/><stop stop-opacity="1" stop-color="rgb(29.875183%, 42.573547%, 71.025085%)" offset="0.785156"/><stop stop-opacity="1" stop-color="rgb(29.640198%, 42.753601%, 71.139526%)" offset="0.789062"/><stop stop-opacity="1" stop-color="rgb(29.403687%, 42.933655%, 71.253967%)" offset="0.792969"/><stop stop-opacity="1" stop-color="rgb(29.168701%, 43.115234%, 71.368408%)" offset="0.796875"/><stop stop-opacity="1" stop-color="rgb(28.93219%, 43.295288%, 71.481323%)" offset="0.800781"/><stop stop-opacity="1" stop-color="rgb(28.695679%, 43.475342%, 71.595764%)" offset="0.804687"/><stop stop-opacity="1" stop-color="rgb(28.459167%, 43.655396%, 71.710205%)" offset="0.808594"/><stop stop-opacity="1" stop-color="rgb(28.224182%, 43.836975%, 71.824646%)" offset="0.8125"/><stop stop-opacity="1" stop-color="rgb(27.987671%, 44.017029%, 71.937561%)" offset="0.816406"/><stop stop-opacity="1" stop-color="rgb(27.752686%, 44.197083%, 72.052002%)" offset="0.820313"/><stop stop-opacity="1" stop-color="rgb(27.516174%, 44.377136%, 72.166443%)" offset="0.824219"/><stop stop-opacity="1" stop-color="rgb(27.281189%, 44.558716%, 72.280884%)" offset="0.828125"/><stop stop-opacity="1" stop-color="rgb(27.044678%, 44.73877%, 72.393799%)" offset="0.832031"/><stop stop-opacity="1" stop-color="rgb(26.808167%, 44.918823%, 72.50824%)" offset="0.835938"/><stop stop-opacity="1" stop-color="rgb(26.571655%, 45.098877%, 72.622681%)" offset="0.839844"/><stop stop-opacity="1" stop-color="rgb(26.33667%, 45.280457%, 72.737122%)" offset="0.84375"/><stop stop-opacity="1" stop-color="rgb(26.100159%, 45.46051%, 72.850037%)" offset="0.847656"/><stop stop-opacity="1" stop-color="rgb(25.865173%, 45.64209%, 72.964478%)" offset="0.851562"/><stop stop-opacity="1" stop-color="rgb(25.628662%, 45.822144%, 73.078918%)" offset="0.855469"/><stop stop-opacity="1" stop-color="rgb(25.393677%, 46.002197%, 73.193359%)" offset="0.859375"/><stop stop-opacity="1" stop-color="rgb(25.157166%, 46.182251%, 73.306274%)" offset="0.863281"/><stop stop-opacity="1" stop-color="rgb(24.920654%, 46.363831%, 73.420715%)" offset="0.867188"/><stop stop-opacity="1" stop-color="rgb(24.684143%, 46.543884%, 73.535156%)" offset="0.871094"/><stop stop-opacity="1" stop-color="rgb(24.449158%, 46.723938%, 73.649597%)" offset="0.875"/><stop stop-opacity="1" stop-color="rgb(24.212646%, 46.903992%, 73.762512%)" offset="0.878906"/><stop stop-opacity="1" stop-color="rgb(23.977661%, 47.085571%, 73.876953%)" offset="0.882812"/><stop stop-opacity="1" stop-color="rgb(23.74115%, 47.265625%, 73.991394%)" offset="0.886719"/><stop stop-opacity="1" stop-color="rgb(23.506165%, 47.445679%, 74.105835%)" offset="0.890625"/><stop stop-opacity="1" stop-color="rgb(23.269653%, 47.625732%, 74.21875%)" offset="0.894531"/><stop stop-opacity="1" stop-color="rgb(23.033142%, 47.807312%, 74.333191%)" offset="0.898437"/><stop stop-opacity="1" stop-color="rgb(22.796631%, 47.987366%, 74.447632%)" offset="0.902344"/><stop stop-opacity="1" stop-color="rgb(22.561646%, 48.167419%, 74.562073%)" offset="0.90625"/><stop stop-opacity="1" stop-color="rgb(22.325134%, 48.347473%, 74.674988%)" offset="0.910156"/><stop stop-opacity="1" stop-color="rgb(22.090149%, 48.529053%, 74.789429%)" offset="0.914063"/><stop stop-opacity="1" stop-color="rgb(21.853638%, 48.709106%, 74.90387%)" offset="0.917969"/><stop stop-opacity="1" stop-color="rgb(21.618652%, 48.88916%, 75.018311%)" offset="0.921875"/><stop stop-opacity="1" stop-color="rgb(21.382141%, 49.069214%, 75.131226%)" offset="0.925781"/><stop stop-opacity="1" stop-color="rgb(21.14563%, 49.250793%, 75.245667%)" offset="0.929688"/><stop stop-opacity="1" stop-color="rgb(20.909119%, 49.430847%, 75.360107%)" offset="0.933594"/><stop stop-opacity="1" stop-color="rgb(20.674133%, 49.612427%, 75.474548%)" offset="0.9375"/><stop stop-opacity="1" stop-color="rgb(20.437622%, 49.79248%, 75.587463%)" offset="0.941406"/><stop stop-opacity="1" stop-color="rgb(20.202637%, 49.972534%, 75.701904%)" offset="0.945312"/><stop stop-opacity="1" stop-color="rgb(19.966125%, 50.152588%, 75.816345%)" offset="0.949219"/><stop stop-opacity="1" stop-color="rgb(19.73114%, 50.334167%, 75.930786%)" offset="0.953125"/><stop stop-opacity="1" stop-color="rgb(19.494629%, 50.514221%, 76.043701%)" offset="0.957031"/><stop stop-opacity="1" stop-color="rgb(19.258118%, 50.694275%, 76.158142%)" offset="0.960938"/><stop stop-opacity="1" stop-color="rgb(19.021606%, 50.874329%, 76.272583%)" offset="0.964844"/><stop stop-opacity="1" stop-color="rgb(18.786621%, 51.055908%, 76.387024%)" offset="0.96875"/><stop stop-opacity="1" stop-color="rgb(18.55011%, 51.235962%, 76.499939%)" offset="0.972656"/><stop stop-opacity="1" stop-color="rgb(18.315125%, 51.416016%, 76.61438%)" offset="0.976562"/><stop stop-opacity="1" stop-color="rgb(18.078613%, 51.596069%, 76.728821%)" offset="0.980469"/><stop stop-opacity="1" stop-color="rgb(17.843628%, 51.777649%, 76.843262%)" offset="0.984375"/><stop stop-opacity="1" stop-color="rgb(17.607117%, 51.957703%, 76.956177%)" offset="0.988281"/><stop stop-opacity="1" stop-color="rgb(17.370605%, 52.137756%, 77.070618%)" offset="0.992187"/><stop stop-opacity="1" stop-color="rgb(17.134094%, 52.31781%, 77.185059%)" offset="0.996094"/><stop stop-opacity="1" stop-color="rgb(16.899109%, 52.49939%, 77.2995%)" offset="1"/></linearGradient><clipPath id="91e6aba718"><path d="M 566 262 L 875 262 L 875 549 L 566 549 Z M 566 262 " clip-rule="nonzero"/></clipPath><clipPath id="2bdd94c1b8"><path d="M 874.296875 321.128906 L 874.296875 548.265625 L 782.363281 548.265625 L 782.363281 321.128906 C 782.363281 320.597656 782.386719 320.066406 782.441406 319.539062 C 782.492188 319.011719 782.570312 318.484375 782.671875 317.964844 C 782.777344 317.441406 782.90625 316.929688 783.058594 316.417969 C 783.214844 315.910156 783.394531 315.410156 783.597656 314.921875 C 783.800781 314.429688 784.027344 313.949219 784.277344 313.480469 C 784.527344 313.011719 784.800781 312.558594 785.097656 312.117188 C 785.390625 311.671875 785.707031 311.246094 786.042969 310.835938 C 786.382812 310.425781 786.738281 310.03125 787.113281 309.65625 C 787.488281 309.28125 787.882812 308.925781 788.292969 308.585938 C 788.703125 308.25 789.128906 307.933594 789.574219 307.640625 C 790.015625 307.34375 790.46875 307.070312 790.9375 306.820312 C 791.40625 306.570312 791.886719 306.34375 792.378906 306.140625 C 792.867188 305.9375 793.367188 305.757812 793.875 305.605469 C 794.386719 305.449219 794.898438 305.320312 795.421875 305.214844 C 795.941406 305.113281 796.46875 305.035156 796.996094 304.984375 C 797.523438 304.929688 798.054688 304.90625 798.585938 304.90625 L 858.074219 304.90625 C 858.605469 304.90625 859.136719 304.929688 859.664062 304.984375 C 860.191406 305.035156 860.71875 305.113281 861.238281 305.214844 C 861.761719 305.320312 862.273438 305.449219 862.785156 305.601562 C 863.292969 305.757812 863.792969 305.9375 864.28125 306.140625 C 864.773438 306.34375 865.253906 306.570312 865.722656 306.820312 C 866.191406 307.070312 866.644531 307.34375 867.085938 307.640625 C 867.53125 307.933594 867.957031 308.25 868.367188 308.585938 C 868.777344 308.925781 869.171875 309.28125 869.546875 309.65625 C 869.921875 310.03125 870.277344 310.425781 870.617188 310.835938 C 870.953125 311.246094 871.269531 311.671875 871.5625 312.117188 C 871.859375 312.558594 872.132812 313.011719 872.382812 313.480469 C 872.632812 313.949219 872.859375 314.429688 873.0625 314.921875 C 873.265625 315.410156 873.445312 315.910156 873.601562 316.417969 C 873.753906 316.929688 873.882812 317.441406 873.988281 317.964844 C 874.089844 318.484375 874.167969 319.011719 874.21875 319.539062 C 874.273438 320.066406 874.296875 320.597656 874.296875 321.128906 Z M 749.914062 262.074219 L 690.425781 262.074219 C 689.894531 262.074219 689.363281 262.097656 688.835938 262.152344 C 688.304688 262.203125 687.78125 262.28125 687.261719 262.386719 C 686.738281 262.488281 686.222656 262.617188 685.714844 262.773438 C 685.207031 262.925781 684.707031 263.105469 684.21875 263.308594 C 683.726562 263.511719 683.246094 263.738281 682.777344 263.988281 C 682.308594 264.238281 681.855469 264.511719 681.410156 264.808594 C 680.96875 265.101562 680.542969 265.417969 680.132812 265.757812 C 679.722656 266.09375 679.328125 266.449219 678.953125 266.824219 C 678.578125 267.199219 678.222656 267.59375 677.882812 268.003906 C 677.546875 268.414062 677.230469 268.84375 676.9375 269.285156 C 676.640625 269.726562 676.367188 270.179688 676.117188 270.648438 C 675.867188 271.117188 675.640625 271.597656 675.4375 272.089844 C 675.234375 272.578125 675.054688 273.078125 674.898438 273.589844 C 674.746094 274.097656 674.617188 274.609375 674.511719 275.132812 C 674.410156 275.652344 674.332031 276.179688 674.28125 276.707031 C 674.226562 277.234375 674.203125 277.765625 674.203125 278.296875 L 674.203125 548.265625 L 766.136719 548.265625 L 766.136719 278.296875 C 766.136719 277.765625 766.113281 277.234375 766.058594 276.707031 C 766.007812 276.179688 765.929688 275.652344 765.824219 275.132812 C 765.722656 274.609375 765.59375 274.097656 765.4375 273.589844 C 765.285156 273.078125 765.105469 272.578125 764.902344 272.089844 C 764.699219 271.597656 764.472656 271.117188 764.222656 270.648438 C 763.972656 270.179688 763.699219 269.726562 763.402344 269.285156 C 763.109375 268.84375 762.792969 268.414062 762.457031 268.003906 C 762.117188 267.59375 761.761719 267.199219 761.386719 266.824219 C 761.011719 266.449219 760.617188 266.09375 760.207031 265.757812 C 759.796875 265.417969 759.371094 265.101562 758.925781 264.808594 C 758.484375 264.511719 758.03125 264.238281 757.5625 263.988281 C 757.09375 263.738281 756.613281 263.511719 756.121094 263.308594 C 755.632812 263.105469 755.132812 262.925781 754.625 262.773438 C 754.113281 262.617188 753.601562 262.488281 753.078125 262.386719 C 752.558594 262.28125 752.03125 262.203125 751.503906 262.152344 C 750.976562 262.097656 750.445312 262.074219 749.914062 262.074219 Z M 641.753906 348.167969 L 582.265625 348.167969 C 581.734375 348.167969 581.203125 348.195312 580.675781 348.246094 C 580.144531 348.300781 579.621094 348.378906 579.101562 348.480469 C 578.578125 348.585938 578.0625 348.714844 577.554688 348.867188 C 577.046875 349.023438 576.546875 349.199219 576.054688 349.402344 C 575.566406 349.605469 575.085938 349.835938 574.617188 350.085938 C 574.148438 350.335938 573.691406 350.609375 573.25 350.902344 C 572.808594 351.199219 572.382812 351.515625 571.972656 351.851562 C 571.5625 352.1875 571.167969 352.546875 570.792969 352.921875 C 570.417969 353.296875 570.0625 353.691406 569.722656 354.101562 C 569.386719 354.511719 569.070312 354.9375 568.773438 355.378906 C 568.480469 355.820312 568.207031 356.277344 567.957031 356.746094 C 567.707031 357.214844 567.480469 357.695312 567.277344 358.183594 C 567.074219 358.675781 566.894531 359.175781 566.738281 359.683594 C 566.585938 360.191406 566.457031 360.707031 566.351562 361.226562 C 566.25 361.75 566.171875 362.273438 566.121094 362.804688 C 566.066406 363.332031 566.042969 363.863281 566.042969 364.394531 L 566.042969 548.265625 L 657.976562 548.265625 L 657.976562 364.394531 C 657.976562 363.863281 657.953125 363.332031 657.898438 362.804688 C 657.847656 362.273438 657.769531 361.75 657.664062 361.226562 C 657.5625 360.707031 657.433594 360.191406 657.277344 359.683594 C 657.125 359.175781 656.945312 358.675781 656.742188 358.183594 C 656.539062 357.695312 656.3125 357.214844 656.0625 356.746094 C 655.8125 356.277344 655.539062 355.820312 655.242188 355.378906 C 654.949219 354.9375 654.632812 354.511719 654.292969 354.101562 C 653.957031 353.691406 653.601562 353.296875 653.226562 352.921875 C 652.851562 352.546875 652.457031 352.1875 652.046875 351.851562 C 651.636719 351.515625 651.207031 351.199219 650.765625 350.902344 C 650.324219 350.609375 649.871094 350.335938 649.402344 350.085938 C 648.933594 349.835938 648.453125 349.605469 647.960938 349.402344 C 647.472656 349.199219 646.972656 349.023438 646.464844 348.867188 C 645.953125 348.714844 645.441406 348.585938 644.917969 348.480469 C 644.398438 348.378906 643.871094 348.300781 643.34375 348.246094 C 642.816406 348.195312 642.285156 348.167969 641.753906 348.167969 Z M 641.753906 348.167969 " clip-rule="nonzero"/></clipPath><linearGradient x1="11.999999" gradientTransform="matrix(7.706428, 0, 0, 7.706428, 473.563932, 158.563919)" y1="32" x2="52.000001" gradientUnits="userSpaceOnUse" y2="32" id="fda39a84d3"><stop stop-opacity="1" stop-color="rgb(100%, 23.498535%, 67.498779%)" offset="0"/><stop stop-opacity="1" stop-color="rgb(99.586487%, 23.544312%, 67.460632%)" offset="0.00390625"/><stop stop-opacity="1" stop-color="rgb(99.172974%, 23.591614%, 67.424011%)" offset="0.0078125"/><stop stop-opacity="1" stop-color="rgb(98.75946%, 23.63739%, 67.385864%)" offset="0.0117187"/><stop stop-opacity="1" stop-color="rgb(98.345947%, 23.683167%, 67.349243%)" offset="0.015625"/><stop stop-opacity="1" stop-color="rgb(97.932434%, 23.728943%, 67.311096%)" offset="0.0195312"/><stop stop-opacity="1" stop-color="rgb(97.518921%, 23.776245%, 67.274475%)" offset="0.0234375"/><stop stop-opacity="1" stop-color="rgb(97.105408%, 23.822021%, 67.236328%)" offset="0.0273437"/><stop stop-opacity="1" stop-color="rgb(96.69342%, 23.867798%, 67.199707%)" offset="0.03125"/><stop stop-opacity="1" stop-color="rgb(96.279907%, 23.913574%, 67.16156%)" offset="0.0351562"/><stop stop-opacity="1" stop-color="rgb(95.866394%, 23.960876%, 67.124939%)" offset="0.0390625"/><stop stop-opacity="1" stop-color="rgb(95.452881%, 24.006653%, 67.086792%)" offset="0.0429688"/><stop stop-opacity="1" stop-color="rgb(95.039368%, 24.052429%, 67.048645%)" offset="0.046875"/><stop stop-opacity="1" stop-color="rgb(94.625854%, 24.098206%, 67.010498%)" offset="0.0507812"/><stop stop-opacity="1" stop-color="rgb(94.213867%, 24.143982%, 66.973877%)" offset="0.0546875"/><stop stop-opacity="1" stop-color="rgb(93.800354%, 24.189758%, 66.93573%)" offset="0.0585938"/><stop stop-opacity="1" stop-color="rgb(93.386841%, 24.237061%, 66.899109%)" offset="0.0625"/><stop stop-opacity="1" stop-color="rgb(92.973328%, 24.282837%, 66.860962%)" offset="0.0664062"/><stop stop-opacity="1" stop-color="rgb(92.559814%, 24.328613%, 66.824341%)" offset="0.0703125"/><stop stop-opacity="1" stop-color="rgb(92.146301%, 24.37439%, 66.786194%)" offset="0.0742188"/><stop stop-opacity="1" stop-color="rgb(91.734314%, 24.421692%, 66.749573%)" offset="0.078125"/><stop stop-opacity="1" stop-color="rgb(91.320801%, 24.467468%, 66.711426%)" offset="0.0820312"/><stop stop-opacity="1" stop-color="rgb(90.907288%, 24.513245%, 66.674805%)" offset="0.0859375"/><stop stop-opacity="1" stop-color="rgb(90.493774%, 24.559021%, 66.636658%)" offset="0.0898438"/><stop stop-opacity="1" stop-color="rgb(90.080261%, 24.604797%, 66.598511%)" offset="0.09375"/><stop stop-opacity="1" stop-color="rgb(89.666748%, 24.650574%, 66.560364%)" offset="0.0976562"/><stop stop-opacity="1" stop-color="rgb(89.253235%, 24.697876%, 66.523743%)" offset="0.101562"/><stop stop-opacity="1" stop-color="rgb(88.839722%, 24.743652%, 66.485596%)" offset="0.105469"/><stop stop-opacity="1" stop-color="rgb(88.427734%, 24.789429%, 66.448975%)" offset="0.109375"/><stop stop-opacity="1" stop-color="rgb(88.014221%, 24.835205%, 66.410828%)" offset="0.113281"/><stop stop-opacity="1" stop-color="rgb(87.600708%, 24.882507%, 66.374207%)" offset="0.117188"/><stop stop-opacity="1" stop-color="rgb(87.187195%, 24.928284%, 66.33606%)" offset="0.121094"/><stop stop-opacity="1" stop-color="rgb(86.773682%, 24.97406%, 66.299438%)" offset="0.125"/><stop stop-opacity="1" stop-color="rgb(86.360168%, 25.019836%, 66.261292%)" offset="0.128906"/><stop stop-opacity="1" stop-color="rgb(85.948181%, 25.067139%, 66.22467%)" offset="0.132812"/><stop stop-opacity="1" stop-color="rgb(85.534668%, 25.112915%, 66.186523%)" offset="0.136719"/><stop stop-opacity="1" stop-color="rgb(85.121155%, 25.158691%, 66.149902%)" offset="0.140625"/><stop stop-opacity="1" stop-color="rgb(84.707642%, 25.204468%, 66.111755%)" offset="0.144531"/><stop stop-opacity="1" stop-color="rgb(84.294128%, 25.250244%, 66.073608%)" offset="0.148437"/><stop stop-opacity="1" stop-color="rgb(83.880615%, 25.296021%, 66.035461%)" offset="0.152344"/><stop stop-opacity="1" stop-color="rgb(83.468628%, 25.343323%, 65.99884%)" offset="0.15625"/><stop stop-opacity="1" stop-color="rgb(83.055115%, 25.389099%, 65.960693%)" offset="0.160156"/><stop stop-opacity="1" stop-color="rgb(82.641602%, 25.434875%, 65.924072%)" offset="0.164062"/><stop stop-opacity="1" stop-color="rgb(82.228088%, 25.480652%, 65.885925%)" offset="0.167969"/><stop stop-opacity="1" stop-color="rgb(81.814575%, 25.527954%, 65.849304%)" offset="0.171875"/><stop stop-opacity="1" stop-color="rgb(81.401062%, 25.57373%, 65.811157%)" offset="0.175781"/><stop stop-opacity="1" stop-color="rgb(80.987549%, 25.619507%, 65.774536%)" offset="0.179687"/><stop stop-opacity="1" stop-color="rgb(80.574036%, 25.665283%, 65.736389%)" offset="0.183594"/><stop stop-opacity="1" stop-color="rgb(80.162048%, 25.71106%, 65.699768%)" offset="0.1875"/><stop stop-opacity="1" stop-color="rgb(79.748535%, 25.756836%, 65.661621%)" offset="0.191406"/><stop stop-opacity="1" stop-color="rgb(79.335022%, 25.804138%, 65.625%)" offset="0.195312"/><stop stop-opacity="1" stop-color="rgb(78.921509%, 25.849915%, 65.586853%)" offset="0.199219"/><stop stop-opacity="1" stop-color="rgb(78.507996%, 25.895691%, 65.548706%)" offset="0.203125"/><stop stop-opacity="1" stop-color="rgb(78.094482%, 25.941467%, 65.510559%)" offset="0.207031"/><stop stop-opacity="1" stop-color="rgb(77.682495%, 25.98877%, 65.473938%)" offset="0.210937"/><stop stop-opacity="1" stop-color="rgb(77.268982%, 26.034546%, 65.435791%)" offset="0.214844"/><stop stop-opacity="1" stop-color="rgb(76.855469%, 26.080322%, 65.39917%)" offset="0.21875"/><stop stop-opacity="1" stop-color="rgb(76.441956%, 26.126099%, 65.361023%)" offset="0.222656"/><stop stop-opacity="1" stop-color="rgb(76.028442%, 26.173401%, 65.324402%)" offset="0.226562"/><stop stop-opacity="1" stop-color="rgb(75.614929%, 26.219177%, 65.286255%)" offset="0.230469"/><stop stop-opacity="1" stop-color="rgb(75.202942%, 26.264954%, 65.249634%)" offset="0.234375"/><stop stop-opacity="1" stop-color="rgb(74.789429%, 26.31073%, 65.211487%)" offset="0.238281"/><stop stop-opacity="1" stop-color="rgb(74.375916%, 26.356506%, 65.174866%)" offset="0.242187"/><stop stop-opacity="1" stop-color="rgb(73.962402%, 26.402283%, 65.136719%)" offset="0.246094"/><stop stop-opacity="1" stop-color="rgb(73.548889%, 26.449585%, 65.098572%)" offset="0.25"/><stop stop-opacity="1" stop-color="rgb(73.135376%, 26.495361%, 65.060425%)" offset="0.253906"/><stop stop-opacity="1" stop-color="rgb(72.723389%, 26.541138%, 65.023804%)" offset="0.257812"/><stop stop-opacity="1" stop-color="rgb(72.309875%, 26.586914%, 64.985657%)" offset="0.261719"/><stop stop-opacity="1" stop-color="rgb(71.896362%, 26.634216%, 64.949036%)" offset="0.265625"/><stop stop-opacity="1" stop-color="rgb(71.482849%, 26.679993%, 64.910889%)" offset="0.269531"/><stop stop-opacity="1" stop-color="rgb(71.069336%, 26.725769%, 64.874268%)" offset="0.273437"/><stop stop-opacity="1" stop-color="rgb(70.655823%, 26.771545%, 64.836121%)" offset="0.277344"/><stop stop-opacity="1" stop-color="rgb(70.24231%, 26.817322%, 64.7995%)" offset="0.28125"/><stop stop-opacity="1" stop-color="rgb(69.828796%, 26.863098%, 64.761353%)" offset="0.285156"/><stop stop-opacity="1" stop-color="rgb(69.416809%, 26.9104%, 64.724731%)" offset="0.289062"/><stop stop-opacity="1" stop-color="rgb(69.003296%, 26.956177%, 64.686584%)" offset="0.292969"/><stop stop-opacity="1" stop-color="rgb(68.589783%, 27.001953%, 64.649963%)" offset="0.296875"/><stop stop-opacity="1" stop-color="rgb(68.17627%, 27.047729%, 64.611816%)" offset="0.300781"/><stop stop-opacity="1" stop-color="rgb(67.762756%, 27.095032%, 64.573669%)" offset="0.304687"/><stop stop-opacity="1" stop-color="rgb(67.349243%, 27.140808%, 64.535522%)" offset="0.308594"/><stop stop-opacity="1" stop-color="rgb(66.937256%, 27.186584%, 64.498901%)" offset="0.3125"/><stop stop-opacity="1" stop-color="rgb(66.523743%, 27.232361%, 64.460754%)" offset="0.316406"/><stop stop-opacity="1" stop-color="rgb(66.110229%, 27.279663%, 64.424133%)" offset="0.320312"/><stop stop-opacity="1" stop-color="rgb(65.696716%, 27.325439%, 64.385986%)" offset="0.324219"/><stop stop-opacity="1" stop-color="rgb(65.283203%, 27.371216%, 64.349365%)" offset="0.328125"/><stop stop-opacity="1" stop-color="rgb(64.86969%, 27.416992%, 64.311218%)" offset="0.332031"/><stop stop-opacity="1" stop-color="rgb(64.457703%, 27.462769%, 64.274597%)" offset="0.335937"/><stop stop-opacity="1" stop-color="rgb(64.044189%, 27.508545%, 64.23645%)" offset="0.339844"/><stop stop-opacity="1" stop-color="rgb(63.630676%, 27.555847%, 64.199829%)" offset="0.34375"/><stop stop-opacity="1" stop-color="rgb(63.217163%, 27.601624%, 64.161682%)" offset="0.347656"/><stop stop-opacity="1" stop-color="rgb(62.80365%, 27.6474%, 64.123535%)" offset="0.351562"/><stop stop-opacity="1" stop-color="rgb(62.390137%, 27.693176%, 64.085388%)" offset="0.355469"/><stop stop-opacity="1" stop-color="rgb(61.976624%, 27.740479%, 64.048767%)" offset="0.359375"/><stop stop-opacity="1" stop-color="rgb(61.56311%, 27.786255%, 64.01062%)" offset="0.363281"/><stop stop-opacity="1" stop-color="rgb(61.151123%, 27.832031%, 63.973999%)" offset="0.367187"/><stop stop-opacity="1" stop-color="rgb(60.73761%, 27.877808%, 63.935852%)" offset="0.371094"/><stop stop-opacity="1" stop-color="rgb(60.324097%, 27.923584%, 63.899231%)" offset="0.375"/><stop stop-opacity="1" stop-color="rgb(59.910583%, 27.96936%, 63.861084%)" offset="0.378906"/><stop stop-opacity="1" stop-color="rgb(59.49707%, 28.016663%, 63.824463%)" offset="0.382812"/><stop stop-opacity="1" stop-color="rgb(59.083557%, 28.062439%, 63.786316%)" offset="0.386719"/><stop stop-opacity="1" stop-color="rgb(58.67157%, 28.108215%, 63.749695%)" offset="0.390625"/><stop stop-opacity="1" stop-color="rgb(58.258057%, 28.153992%, 63.711548%)" offset="0.394531"/><stop stop-opacity="1" stop-color="rgb(57.844543%, 28.201294%, 63.674927%)" offset="0.398437"/><stop stop-opacity="1" stop-color="rgb(57.43103%, 28.24707%, 63.63678%)" offset="0.402344"/><stop stop-opacity="1" stop-color="rgb(57.017517%, 28.292847%, 63.598633%)" offset="0.40625"/><stop stop-opacity="1" stop-color="rgb(56.604004%, 28.338623%, 63.560486%)" offset="0.410156"/><stop stop-opacity="1" stop-color="rgb(56.192017%, 28.385925%, 63.523865%)" offset="0.414062"/><stop stop-opacity="1" stop-color="rgb(55.778503%, 28.431702%, 63.485718%)" offset="0.417969"/><stop stop-opacity="1" stop-color="rgb(55.36499%, 28.477478%, 63.449097%)" offset="0.421875"/><stop stop-opacity="1" stop-color="rgb(54.951477%, 28.523254%, 63.41095%)" offset="0.425781"/><stop stop-opacity="1" stop-color="rgb(54.537964%, 28.569031%, 63.374329%)" offset="0.429687"/><stop stop-opacity="1" stop-color="rgb(54.124451%, 28.614807%, 63.336182%)" offset="0.433594"/><stop stop-opacity="1" stop-color="rgb(53.712463%, 28.662109%, 63.299561%)" offset="0.4375"/><stop stop-opacity="1" stop-color="rgb(53.29895%, 28.707886%, 63.261414%)" offset="0.441406"/><stop stop-opacity="1" stop-color="rgb(52.885437%, 28.753662%, 63.224792%)" offset="0.445312"/><stop stop-opacity="1" stop-color="rgb(52.471924%, 28.799438%, 63.186646%)" offset="0.449219"/><stop stop-opacity="1" stop-color="rgb(52.058411%, 28.846741%, 63.148499%)" offset="0.453125"/><stop stop-opacity="1" stop-color="rgb(51.644897%, 28.892517%, 63.110352%)" offset="0.457031"/><stop stop-opacity="1" stop-color="rgb(51.231384%, 28.938293%, 63.07373%)" offset="0.460937"/><stop stop-opacity="1" stop-color="rgb(50.817871%, 28.98407%, 63.035583%)" offset="0.464844"/><stop stop-opacity="1" stop-color="rgb(50.405884%, 29.029846%, 62.998962%)" offset="0.46875"/><stop stop-opacity="1" stop-color="rgb(49.992371%, 29.075623%, 62.960815%)" offset="0.472656"/><stop stop-opacity="1" stop-color="rgb(49.578857%, 29.122925%, 62.924194%)" offset="0.476562"/><stop stop-opacity="1" stop-color="rgb(49.165344%, 29.168701%, 62.886047%)" offset="0.480469"/><stop stop-opacity="1" stop-color="rgb(48.751831%, 29.214478%, 62.849426%)" offset="0.484375"/><stop stop-opacity="1" stop-color="rgb(48.338318%, 29.260254%, 62.811279%)" offset="0.488281"/><stop stop-opacity="1" stop-color="rgb(47.926331%, 29.307556%, 62.774658%)" offset="0.492187"/><stop stop-opacity="1" stop-color="rgb(47.512817%, 29.353333%, 62.736511%)" offset="0.496094"/><stop stop-opacity="1" stop-color="rgb(47.099304%, 29.399109%, 62.69989%)" offset="0.5"/><stop stop-opacity="1" stop-color="rgb(46.862793%, 29.579163%, 62.812805%)" offset="0.503906"/><stop stop-opacity="1" stop-color="rgb(46.627808%, 29.760742%, 62.927246%)" offset="0.507812"/><stop stop-opacity="1" stop-color="rgb(46.391296%, 29.940796%, 63.041687%)" offset="0.511719"/><stop stop-opacity="1" stop-color="rgb(46.154785%, 30.12085%, 63.156128%)" offset="0.515625"/><stop stop-opacity="1" stop-color="rgb(45.918274%, 30.300903%, 63.269043%)" offset="0.519531"/><stop stop-opacity="1" stop-color="rgb(45.683289%, 30.482483%, 63.383484%)" offset="0.523437"/><stop stop-opacity="1" stop-color="rgb(45.446777%, 30.662537%, 63.497925%)" offset="0.527344"/><stop stop-opacity="1" stop-color="rgb(45.211792%, 30.84259%, 63.612366%)" offset="0.53125"/><stop stop-opacity="1" stop-color="rgb(44.975281%, 31.022644%, 63.725281%)" offset="0.535156"/><stop stop-opacity="1" stop-color="rgb(44.740295%, 31.204224%, 63.839722%)" offset="0.539062"/><stop stop-opacity="1" stop-color="rgb(44.503784%, 31.384277%, 63.954163%)" offset="0.542969"/><stop stop-opacity="1" stop-color="rgb(44.267273%, 31.564331%, 64.068604%)" offset="0.546875"/><stop stop-opacity="1" stop-color="rgb(44.030762%, 31.744385%, 64.181519%)" offset="0.550781"/><stop stop-opacity="1" stop-color="rgb(43.795776%, 31.925964%, 64.295959%)" offset="0.554688"/><stop stop-opacity="1" stop-color="rgb(43.559265%, 32.106018%, 64.4104%)" offset="0.558594"/><stop stop-opacity="1" stop-color="rgb(43.32428%, 32.286072%, 64.524841%)" offset="0.5625"/><stop stop-opacity="1" stop-color="rgb(43.087769%, 32.466125%, 64.637756%)" offset="0.566406"/><stop stop-opacity="1" stop-color="rgb(42.852783%, 32.647705%, 64.752197%)" offset="0.570312"/><stop stop-opacity="1" stop-color="rgb(42.616272%, 32.827759%, 64.866638%)" offset="0.574219"/><stop stop-opacity="1" stop-color="rgb(42.379761%, 33.009338%, 64.981079%)" offset="0.578125"/><stop stop-opacity="1" stop-color="rgb(42.14325%, 33.189392%, 65.093994%)" offset="0.582031"/><stop stop-opacity="1" stop-color="rgb(41.908264%, 33.369446%, 65.208435%)" offset="0.585938"/><stop stop-opacity="1" stop-color="rgb(41.671753%, 33.5495%, 65.322876%)" offset="0.589844"/><stop stop-opacity="1" stop-color="rgb(41.436768%, 33.731079%, 65.437317%)" offset="0.59375"/><stop stop-opacity="1" stop-color="rgb(41.200256%, 33.911133%, 65.550232%)" offset="0.597656"/><stop stop-opacity="1" stop-color="rgb(40.965271%, 34.091187%, 65.664673%)" offset="0.601563"/><stop stop-opacity="1" stop-color="rgb(40.72876%, 34.27124%, 65.779114%)" offset="0.605469"/><stop stop-opacity="1" stop-color="rgb(40.492249%, 34.45282%, 65.893555%)" offset="0.609375"/><stop stop-opacity="1" stop-color="rgb(40.255737%, 34.632874%, 66.00647%)" offset="0.613281"/><stop stop-opacity="1" stop-color="rgb(40.020752%, 34.812927%, 66.120911%)" offset="0.617188"/><stop stop-opacity="1" stop-color="rgb(39.784241%, 34.992981%, 66.235352%)" offset="0.621094"/><stop stop-opacity="1" stop-color="rgb(39.549255%, 35.174561%, 66.349792%)" offset="0.625"/><stop stop-opacity="1" stop-color="rgb(39.312744%, 35.354614%, 66.462708%)" offset="0.628906"/><stop stop-opacity="1" stop-color="rgb(39.077759%, 35.534668%, 66.577148%)" offset="0.632812"/><stop stop-opacity="1" stop-color="rgb(38.841248%, 35.714722%, 66.691589%)" offset="0.636719"/><stop stop-opacity="1" stop-color="rgb(38.604736%, 35.896301%, 66.80603%)" offset="0.640625"/><stop stop-opacity="1" stop-color="rgb(38.368225%, 36.076355%, 66.918945%)" offset="0.644531"/><stop stop-opacity="1" stop-color="rgb(38.13324%, 36.256409%, 67.033386%)" offset="0.648437"/><stop stop-opacity="1" stop-color="rgb(37.896729%, 36.436462%, 67.147827%)" offset="0.652344"/><stop stop-opacity="1" stop-color="rgb(37.661743%, 36.618042%, 67.262268%)" offset="0.65625"/><stop stop-opacity="1" stop-color="rgb(37.425232%, 36.798096%, 67.375183%)" offset="0.660156"/><stop stop-opacity="1" stop-color="rgb(37.190247%, 36.979675%, 67.489624%)" offset="0.664062"/><stop stop-opacity="1" stop-color="rgb(36.953735%, 37.159729%, 67.604065%)" offset="0.667969"/><stop stop-opacity="1" stop-color="rgb(36.717224%, 37.339783%, 67.718506%)" offset="0.671875"/><stop stop-opacity="1" stop-color="rgb(36.480713%, 37.519836%, 67.831421%)" offset="0.675781"/><stop stop-opacity="1" stop-color="rgb(36.245728%, 37.701416%, 67.945862%)" offset="0.679688"/><stop stop-opacity="1" stop-color="rgb(36.009216%, 37.88147%, 68.060303%)" offset="0.683594"/><stop stop-opacity="1" stop-color="rgb(35.774231%, 38.061523%, 68.174744%)" offset="0.6875"/><stop stop-opacity="1" stop-color="rgb(35.53772%, 38.241577%, 68.287659%)" offset="0.691406"/><stop stop-opacity="1" stop-color="rgb(35.302734%, 38.423157%, 68.4021%)" offset="0.695312"/><stop stop-opacity="1" stop-color="rgb(35.066223%, 38.60321%, 68.516541%)" offset="0.699219"/><stop stop-opacity="1" stop-color="rgb(34.831238%, 38.783264%, 68.630981%)" offset="0.703125"/><stop stop-opacity="1" stop-color="rgb(34.594727%, 38.963318%, 68.743896%)" offset="0.707031"/><stop stop-opacity="1" stop-color="rgb(34.358215%, 39.144897%, 68.858337%)" offset="0.710938"/><stop stop-opacity="1" stop-color="rgb(34.121704%, 39.324951%, 68.972778%)" offset="0.714844"/><stop stop-opacity="1" stop-color="rgb(33.886719%, 39.505005%, 69.087219%)" offset="0.71875"/><stop stop-opacity="1" stop-color="rgb(33.650208%, 39.685059%, 69.200134%)" offset="0.722656"/><stop stop-opacity="1" stop-color="rgb(33.415222%, 39.866638%, 69.314575%)" offset="0.726563"/><stop stop-opacity="1" stop-color="rgb(33.178711%, 40.046692%, 69.429016%)" offset="0.730469"/><stop stop-opacity="1" stop-color="rgb(32.943726%, 40.226746%, 69.543457%)" offset="0.734375"/><stop stop-opacity="1" stop-color="rgb(32.707214%, 40.406799%, 69.656372%)" offset="0.738281"/><stop stop-opacity="1" stop-color="rgb(32.470703%, 40.588379%, 69.770813%)" offset="0.742188"/><stop stop-opacity="1" stop-color="rgb(32.234192%, 40.768433%, 69.885254%)" offset="0.746094"/><stop stop-opacity="1" stop-color="rgb(31.999207%, 40.948486%, 69.999695%)" offset="0.75"/><stop stop-opacity="1" stop-color="rgb(31.762695%, 41.12854%, 70.11261%)" offset="0.753906"/><stop stop-opacity="1" stop-color="rgb(31.52771%, 41.31012%, 70.227051%)" offset="0.757812"/><stop stop-opacity="1" stop-color="rgb(31.291199%, 41.490173%, 70.341492%)" offset="0.761719"/><stop stop-opacity="1" stop-color="rgb(31.056213%, 41.671753%, 70.455933%)" offset="0.765625"/><stop stop-opacity="1" stop-color="rgb(30.819702%, 41.851807%, 70.568848%)" offset="0.769531"/><stop stop-opacity="1" stop-color="rgb(30.583191%, 42.03186%, 70.683289%)" offset="0.773437"/><stop stop-opacity="1" stop-color="rgb(30.34668%, 42.211914%, 70.797729%)" offset="0.777344"/><stop stop-opacity="1" stop-color="rgb(30.111694%, 42.393494%, 70.91217%)" offset="0.78125"/><stop stop-opacity="1" stop-color="rgb(29.875183%, 42.573547%, 71.025085%)" offset="0.785156"/><stop stop-opacity="1" stop-color="rgb(29.640198%, 42.753601%, 71.139526%)" offset="0.789062"/><stop stop-opacity="1" stop-color="rgb(29.403687%, 42.933655%, 71.253967%)" offset="0.792969"/><stop stop-opacity="1" stop-color="rgb(29.168701%, 43.115234%, 71.368408%)" offset="0.796875"/><stop stop-opacity="1" stop-color="rgb(28.93219%, 43.295288%, 71.481323%)" offset="0.800781"/><stop stop-opacity="1" stop-color="rgb(28.695679%, 43.475342%, 71.595764%)" offset="0.804688"/><stop stop-opacity="1" stop-color="rgb(28.459167%, 43.655396%, 71.710205%)" offset="0.808594"/><stop stop-opacity="1" stop-color="rgb(28.224182%, 43.836975%, 71.824646%)" offset="0.8125"/><stop stop-opacity="1" stop-color="rgb(27.987671%, 44.017029%, 71.937561%)" offset="0.816406"/><stop stop-opacity="1" stop-color="rgb(27.752686%, 44.197083%, 72.052002%)" offset="0.820312"/><stop stop-opacity="1" stop-color="rgb(27.516174%, 44.377136%, 72.166443%)" offset="0.824219"/><stop stop-opacity="1" stop-color="rgb(27.281189%, 44.558716%, 72.280884%)" offset="0.828125"/><stop stop-opacity="1" stop-color="rgb(27.044678%, 44.73877%, 72.393799%)" offset="0.832031"/><stop stop-opacity="1" stop-color="rgb(26.808167%, 44.918823%, 72.50824%)" offset="0.835938"/><stop stop-opacity="1" stop-color="rgb(26.571655%, 45.098877%, 72.622681%)" offset="0.839844"/><stop stop-opacity="1" stop-color="rgb(26.33667%, 45.280457%, 72.737122%)" offset="0.84375"/><stop stop-opacity="1" stop-color="rgb(26.100159%, 45.46051%, 72.850037%)" offset="0.847656"/><stop stop-opacity="1" stop-color="rgb(25.865173%, 45.64209%, 72.964478%)" offset="0.851563"/><stop stop-opacity="1" stop-color="rgb(25.628662%, 45.822144%, 73.078918%)" offset="0.855469"/><stop stop-opacity="1" stop-color="rgb(25.393677%, 46.002197%, 73.193359%)" offset="0.859375"/><stop stop-opacity="1" stop-color="rgb(25.157166%, 46.182251%, 73.306274%)" offset="0.863281"/><stop stop-opacity="1" stop-color="rgb(24.920654%, 46.363831%, 73.420715%)" offset="0.867188"/><stop stop-opacity="1" stop-color="rgb(24.684143%, 46.543884%, 73.535156%)" offset="0.871094"/><stop stop-opacity="1" stop-color="rgb(24.449158%, 46.723938%, 73.649597%)" offset="0.875"/><stop stop-opacity="1" stop-color="rgb(24.212646%, 46.903992%, 73.762512%)" offset="0.878906"/><stop stop-opacity="1" stop-color="rgb(23.977661%, 47.085571%, 73.876953%)" offset="0.882812"/><stop stop-opacity="1" stop-color="rgb(23.74115%, 47.265625%, 73.991394%)" offset="0.886719"/><stop stop-opacity="1" stop-color="rgb(23.506165%, 47.445679%, 74.105835%)" offset="0.890625"/><stop stop-opacity="1" stop-color="rgb(23.269653%, 47.625732%, 74.21875%)" offset="0.894531"/><stop stop-opacity="1" stop-color="rgb(23.033142%, 47.807312%, 74.333191%)" offset="0.898437"/><stop stop-opacity="1" stop-color="rgb(22.796631%, 47.987366%, 74.447632%)" offset="0.902344"/><stop stop-opacity="1" stop-color="rgb(22.561646%, 48.167419%, 74.562073%)" offset="0.90625"/><stop stop-opacity="1" stop-color="rgb(22.325134%, 48.347473%, 74.674988%)" offset="0.910156"/><stop stop-opacity="1" stop-color="rgb(22.090149%, 48.529053%, 74.789429%)" offset="0.914062"/><stop stop-opacity="1" stop-color="rgb(21.853638%, 48.709106%, 74.90387%)" offset="0.917969"/><stop stop-opacity="1" stop-color="rgb(21.618652%, 48.88916%, 75.018311%)" offset="0.921875"/><stop stop-opacity="1" stop-color="rgb(21.382141%, 49.069214%, 75.131226%)" offset="0.925781"/><stop stop-opacity="1" stop-color="rgb(21.14563%, 49.250793%, 75.245667%)" offset="0.929688"/><stop stop-opacity="1" stop-color="rgb(20.909119%, 49.430847%, 75.360107%)" offset="0.933594"/><stop stop-opacity="1" stop-color="rgb(20.674133%, 49.612427%, 75.474548%)" offset="0.9375"/><stop stop-opacity="1" stop-color="rgb(20.437622%, 49.79248%, 75.587463%)" offset="0.941406"/><stop stop-opacity="1" stop-color="rgb(20.202637%, 49.972534%, 75.701904%)" offset="0.945312"/><stop stop-opacity="1" stop-color="rgb(19.966125%, 50.152588%, 75.816345%)" offset="0.949219"/><stop stop-opacity="1" stop-color="rgb(19.73114%, 50.334167%, 75.930786%)" offset="0.953125"/><stop stop-opacity="1" stop-color="rgb(19.494629%, 50.514221%, 76.043701%)" offset="0.957031"/><stop stop-opacity="1" stop-color="rgb(19.258118%, 50.694275%, 76.158142%)" offset="0.960938"/><stop stop-opacity="1" stop-color="rgb(19.021606%, 50.874329%, 76.272583%)" offset="0.964844"/><stop stop-opacity="1" stop-color="rgb(18.786621%, 51.055908%, 76.387024%)" offset="0.96875"/><stop stop-opacity="1" stop-color="rgb(18.55011%, 51.235962%, 76.499939%)" offset="0.972656"/><stop stop-opacity="1" stop-color="rgb(18.315125%, 51.416016%, 76.61438%)" offset="0.976563"/><stop stop-opacity="1" stop-color="rgb(18.078613%, 51.596069%, 76.728821%)" offset="0.980469"/><stop stop-opacity="1" stop-color="rgb(17.843628%, 51.777649%, 76.843262%)" offset="0.984375"/><stop stop-opacity="1" stop-color="rgb(17.607117%, 51.957703%, 76.956177%)" offset="0.988281"/><stop stop-opacity="1" stop-color="rgb(17.370605%, 52.137756%, 77.070618%)" offset="0.992188"/><stop stop-opacity="1" stop-color="rgb(17.134094%, 52.31781%, 77.185059%)" offset="0.996094"/><stop stop-opacity="1" stop-color="rgb(16.899109%, 52.49939%, 77.2995%)" offset="1"/></linearGradient><clipPath id="10e62d792b"><path d="M 782.601562 369 L 871.699219 369 L 871.699219 545.558594 L 782.601562 545.558594 Z M 782.601562 369 " clip-rule="nonzero"/></clipPath></defs><g clip-path="url(#52701730f6)"><g clip-path="url(#ee49da1360)"><path fill="#ffffff" d="M 473.5625 158.5625 L 966.4375 158.5625 L 966.4375 651.4375 L 473.5625 651.4375 Z M 473.5625 158.5625 " fill-opacity="1" fill-rule="nonzero"/></g></g><g mask="url(#49c4edb09f)"><g transform="matrix(1, 0, 0, 1, 473, 158)"><g clip-path="url(#33f6d555bc)"><g clip-path="url(#b8deab8d4c)"><g clip-path="url(#29c44fef77)"><path fill="#d9d9d9" d="M 0.5625 0.5625 L 493.4375 0.5625 L 493.4375 493.4375 L 0.5625 493.4375 Z M 0.5625 0.5625 " fill-opacity="1" fill-rule="nonzero"/></g></g></g></g></g><g clip-path="url(#13632ec398)"><g clip-path="url(#db4ac60035)"><path fill="url(#9ecab79f15)" d="M 473.5625 158.5625 L 473.5625 651.773438 L 966.773438 651.773438 L 966.773438 158.5625 Z M 473.5625 158.5625 " fill-rule="nonzero"/></g></g><g clip-path="url(#91e6aba718)"><g clip-path="url(#2bdd94c1b8)"><path fill="url(#fda39a84d3)" d="M 566.042969 262.074219 L 566.042969 548.265625 L 874.296875 548.265625 L 874.296875 262.074219 Z M 566.042969 262.074219 " fill-rule="nonzero"/></g></g><path fill="#ffffff" d="M 823.382812 425.59375 C 823.382812 432.585938 829.226562 438.253906 836.4375 438.253906 C 843.648438 438.253906 849.496094 432.585938 849.496094 425.59375 C 849.496094 418.601562 843.648438 412.9375 836.4375 412.9375 C 829.226562 412.9375 823.382812 418.601562 823.382812 425.59375 Z M 830.503906 432.53125 C 830.503906 432.53125 838.679688 432.925781 843.214844 429.195312 C 843.214844 429.195312 839.566406 440.203125 830.503906 432.53125 Z M 830.503906 432.53125 " fill-opacity="1" fill-rule="nonzero"/><g clip-path="url(#10e62d792b)"><path fill="#ffffff" d="M 787.03125 429.398438 L 797.191406 418.386719 L 798.808594 434.9375 C 798.957031 436.484375 799.894531 437.84375 801.289062 438.535156 L 820.746094 448.179688 L 820.746094 479.03125 L 815.792969 537.875 C 815.472656 541.703125 818.414062 545.058594 822.363281 545.371094 C 826.3125 545.683594 829.773438 542.835938 830.097656 539.003906 L 834.40625 487.761719 L 838.46875 487.761719 L 842.78125 539.003906 C 843.101562 542.835938 846.566406 545.683594 850.515625 545.371094 C 854.460938 545.058594 857.402344 541.703125 857.082031 537.875 L 852.726562 486.113281 C 853.929688 486.023438 855.089844 485.457031 855.902344 484.441406 L 871.183594 465.3125 C 872.53125 463.625 872.488281 461.21875 871.085938 459.578125 C 870.925781 459.394531 867.191406 455.039062 862.726562 450.609375 C 855.042969 442.988281 851.160156 441.070312 848.601562 440.691406 C 848.292969 440.625 847.976562 440.589844 847.648438 440.589844 L 825.703125 440.589844 L 807.523438 431.578125 L 805.371094 409.523438 L 812.566406 401.726562 C 819.933594 406.316406 829.851562 405.175781 835.878906 398.648438 C 842.558594 391.410156 841.921875 380.292969 834.457031 373.816406 C 826.988281 367.339844 815.523438 367.957031 808.839844 375.195312 C 802.816406 381.722656 802.746094 391.40625 808.265625 397.996094 L 802.640625 404.09375 C 801.929688 403.753906 801.121094 403.59375 800.277344 403.675781 C 797.804688 403.917969 795.996094 406.117188 796.234375 408.589844 L 796.453125 410.796875 L 782.730469 425.664062 Z M 861.792969 462.644531 L 852.132812 474.738281 L 852.132812 453.03125 C 854.921875 455.453125 858.40625 458.90625 861.792969 462.644531 Z M 812.324219 378.214844 C 817.28125 372.839844 825.796875 372.382812 831.339844 377.191406 C 836.882812 382 837.355469 390.253906 832.394531 395.628906 C 827.433594 401.003906 818.921875 401.460938 813.378906 396.652344 C 807.835938 391.84375 807.363281 383.589844 812.324219 378.214844 Z M 812.324219 378.214844 " fill-opacity="1" fill-rule="nonzero"/></g><g fill="#0d009f" fill-opacity="1"><g transform="translate(586.577629, 589.437111)"><g><path d="M 10.546875 -27.09375 C 11.492188 -27.09375 12.40625 -27.015625 13.28125 -26.859375 C 14.164062 -26.703125 14.988281 -26.503906 15.75 -26.265625 C 16.519531 -26.023438 17.210938 -25.753906 17.828125 -25.453125 C 18.453125 -25.148438 18.988281 -24.84375 19.4375 -24.53125 L 17.140625 -20.1875 C 16.828125 -20.34375 16.445312 -20.546875 16 -20.796875 C 15.550781 -21.046875 15.066406 -21.289062 14.546875 -21.53125 C 14.035156 -21.769531 13.507812 -21.96875 12.96875 -22.125 C 12.4375 -22.28125 11.921875 -22.359375 11.421875 -22.359375 C 10.492188 -22.359375 9.804688 -22.164062 9.359375 -21.78125 C 8.910156 -21.40625 8.6875 -20.925781 8.6875 -20.34375 C 8.71875 -19.894531 8.820312 -19.5 9 -19.15625 C 9.1875 -18.8125 9.460938 -18.472656 9.828125 -18.140625 C 10.203125 -17.816406 10.675781 -17.492188 11.25 -17.171875 C 11.832031 -16.859375 12.546875 -16.53125 13.390625 -16.1875 C 14.441406 -15.75 15.363281 -15.289062 16.15625 -14.8125 C 16.945312 -14.332031 17.597656 -13.789062 18.109375 -13.1875 C 18.617188 -12.582031 19.003906 -11.898438 19.265625 -11.140625 C 19.535156 -10.378906 19.671875 -9.5 19.671875 -8.5 C 19.671875 -7.28125 19.453125 -6.132812 19.015625 -5.0625 C 18.585938 -4 17.960938 -3.070312 17.140625 -2.28125 C 16.328125 -1.5 15.335938 -0.882812 14.171875 -0.4375 C 13.015625 0.0078125 11.710938 0.234375 10.265625 0.234375 C 9.242188 0.234375 8.265625 0.144531 7.328125 -0.03125 C 6.390625 -0.21875 5.523438 -0.457031 4.734375 -0.75 C 3.953125 -1.039062 3.226562 -1.347656 2.5625 -1.671875 C 1.90625 -2.003906 1.34375 -2.316406 0.875 -2.609375 L 3 -7.265625 C 3.1875 -7.140625 3.53125 -6.921875 4.03125 -6.609375 C 4.53125 -6.304688 5.09375 -6.003906 5.71875 -5.703125 C 6.351562 -5.398438 7 -5.128906 7.65625 -4.890625 C 8.320312 -4.660156 8.914062 -4.546875 9.4375 -4.546875 C 10.539062 -4.546875 11.347656 -4.800781 11.859375 -5.3125 C 12.378906 -5.820312 12.640625 -6.550781 12.640625 -7.5 C 12.640625 -8.445312 12.316406 -9.164062 11.671875 -9.65625 C 11.023438 -10.144531 10.109375 -10.625 8.921875 -11.09375 C 7.765625 -11.570312 6.738281 -12.070312 5.84375 -12.59375 C 4.945312 -13.125 4.1875 -13.71875 3.5625 -14.375 C 2.945312 -15.03125 2.472656 -15.765625 2.140625 -16.578125 C 1.816406 -17.398438 1.65625 -18.351562 1.65625 -19.4375 C 1.65625 -20.625 1.898438 -21.679688 2.390625 -22.609375 C 2.878906 -23.546875 3.53125 -24.347656 4.34375 -25.015625 C 5.15625 -25.691406 6.09375 -26.207031 7.15625 -26.5625 C 8.226562 -26.914062 9.359375 -27.09375 10.546875 -27.09375 Z M 10.546875 -27.09375 "/></g></g></g><g fill="#0d009f" fill-opacity="1"><g transform="translate(607.352195, 589.437111)"><g><path d="M 18.84375 -9.515625 C 18.84375 -7.941406 18.945312 -6.625 19.15625 -5.5625 C 19.363281 -4.507812 19.613281 -3.671875 19.90625 -3.046875 C 20.21875 -2.273438 20.585938 -1.679688 21.015625 -1.265625 L 16 0.3125 C 15.707031 0.0507812 15.441406 -0.273438 15.203125 -0.671875 C 14.992188 -1.015625 14.789062 -1.425781 14.59375 -1.90625 C 14.394531 -2.394531 14.226562 -2.972656 14.09375 -3.640625 C 13.65625 -2.398438 13 -1.441406 12.125 -0.765625 C 11.257812 -0.0976562 10.113281 0.234375 8.6875 0.234375 C 7.394531 0.234375 6.269531 0 5.3125 -0.46875 C 4.351562 -0.945312 3.554688 -1.613281 2.921875 -2.46875 C 2.285156 -3.320312 1.816406 -4.351562 1.515625 -5.5625 C 1.210938 -6.78125 1.0625 -8.125 1.0625 -9.59375 C 1.0625 -11.09375 1.304688 -12.488281 1.796875 -13.78125 C 2.285156 -15.070312 2.960938 -16.1875 3.828125 -17.125 C 4.703125 -18.0625 5.742188 -18.789062 6.953125 -19.3125 C 8.160156 -19.84375 9.503906 -20.109375 10.984375 -20.109375 C 11.796875 -20.109375 12.660156 -20.046875 13.578125 -19.921875 C 14.503906 -19.804688 15.347656 -19.675781 16.109375 -19.53125 C 16.878906 -19.382812 17.519531 -19.25 18.03125 -19.125 C 18.539062 -19.007812 18.8125 -18.953125 18.84375 -18.953125 Z M 9.71875 -4.34375 C 10.113281 -4.34375 10.488281 -4.515625 10.84375 -4.859375 C 11.195312 -5.203125 11.503906 -5.660156 11.765625 -6.234375 C 12.035156 -6.816406 12.238281 -7.484375 12.375 -8.234375 C 12.519531 -8.984375 12.59375 -9.78125 12.59375 -10.625 L 12.59375 -15.203125 C 12.414062 -15.285156 12.160156 -15.359375 11.828125 -15.421875 C 11.503906 -15.492188 11.222656 -15.53125 10.984375 -15.53125 C 10.347656 -15.53125 9.816406 -15.390625 9.390625 -15.109375 C 8.972656 -14.828125 8.640625 -14.441406 8.390625 -13.953125 C 8.140625 -13.472656 7.960938 -12.890625 7.859375 -12.203125 C 7.753906 -11.515625 7.703125 -10.78125 7.703125 -10 C 7.703125 -9.257812 7.710938 -8.550781 7.734375 -7.875 C 7.765625 -7.207031 7.851562 -6.609375 8 -6.078125 C 8.144531 -5.554688 8.347656 -5.132812 8.609375 -4.8125 C 8.867188 -4.5 9.238281 -4.34375 9.71875 -4.34375 Z M 9.71875 -4.34375 "/></g></g></g><g fill="#0d009f" fill-opacity="1"><g transform="translate(628.837685, 589.437111)"><g><path d="M 12.875 -22.875 C 12.738281 -23.082031 12.519531 -23.296875 12.21875 -23.515625 C 11.914062 -23.742188 11.566406 -23.859375 11.171875 -23.859375 C 10.566406 -23.859375 10.050781 -23.65625 9.625 -23.25 C 9.207031 -22.84375 9 -22.253906 9 -21.484375 C 9 -20.878906 9.050781 -20.328125 9.15625 -19.828125 L 14.21875 -19.828125 L 13.4375 -15.09375 L 9.921875 -15.09375 L 9.921875 -0.671875 C 9.921875 0.828125 9.6875 2.085938 9.21875 3.109375 C 8.757812 4.140625 8.175781 5.007812 7.46875 5.71875 C 6.757812 6.4375 5.960938 7.03125 5.078125 7.5 C 4.191406 7.976562 3.34375 8.414062 2.53125 8.8125 L -0.3125 4.1875 C 0.945312 3.53125 1.925781 2.828125 2.625 2.078125 C 3.320312 1.328125 3.671875 0.453125 3.671875 -0.546875 L 3.671875 -15.09375 L 0.625 -15.09375 L 0.625 -19.828125 L 3.671875 -19.828125 C 3.515625 -20.222656 3.390625 -20.628906 3.296875 -21.046875 C 3.203125 -21.472656 3.15625 -21.921875 3.15625 -22.390625 C 3.15625 -23.367188 3.328125 -24.234375 3.671875 -24.984375 C 4.015625 -25.734375 4.5 -26.367188 5.125 -26.890625 C 5.757812 -27.421875 6.503906 -27.820312 7.359375 -28.09375 C 8.222656 -28.375 9.164062 -28.515625 10.1875 -28.515625 C 11.632812 -28.515625 12.785156 -28.273438 13.640625 -27.796875 C 14.503906 -27.328125 15.25 -26.738281 15.875 -26.03125 Z M 12.875 -22.875 "/></g></g></g><g fill="#0d009f" fill-opacity="1"><g transform="translate(643.41149, 589.437111)"><g><path d="M 1.0625 -9.359375 C 1.0625 -11.128906 1.316406 -12.691406 1.828125 -14.046875 C 2.347656 -15.398438 3.0625 -16.53125 3.96875 -17.4375 C 4.875 -18.34375 5.929688 -19.03125 7.140625 -19.5 C 8.359375 -19.976562 9.675781 -20.21875 11.09375 -20.21875 C 12.332031 -20.21875 13.382812 -20.066406 14.25 -19.765625 C 15.125 -19.460938 15.835938 -19.039062 16.390625 -18.5 C 16.941406 -17.96875 17.347656 -17.335938 17.609375 -16.609375 C 17.878906 -15.890625 18.015625 -15.109375 18.015625 -14.265625 C 18.015625 -13.316406 17.773438 -12.421875 17.296875 -11.578125 C 16.828125 -10.734375 16.148438 -9.988281 15.265625 -9.34375 C 14.378906 -8.695312 13.3125 -8.160156 12.0625 -7.734375 C 10.8125 -7.316406 9.398438 -7.039062 7.828125 -6.90625 C 8.003906 -6.125 8.335938 -5.488281 8.828125 -5 C 9.316406 -4.507812 10.0625 -4.265625 11.0625 -4.265625 C 11.632812 -4.265625 12.25 -4.328125 12.90625 -4.453125 C 13.570312 -4.585938 14.179688 -4.734375 14.734375 -4.890625 C 15.390625 -5.078125 16.035156 -5.289062 16.671875 -5.53125 L 17.859375 -1.421875 C 17.140625 -1.078125 16.363281 -0.773438 15.53125 -0.515625 C 14.8125 -0.304688 13.984375 -0.109375 13.046875 0.078125 C 12.117188 0.265625 11.128906 0.359375 10.078125 0.359375 C 8.460938 0.359375 7.082031 0.125 5.9375 -0.34375 C 4.789062 -0.820312 3.851562 -1.484375 3.125 -2.328125 C 2.40625 -3.171875 1.878906 -4.191406 1.546875 -5.390625 C 1.222656 -6.585938 1.0625 -7.910156 1.0625 -9.359375 Z M 10.3125 -15.765625 C 9.8125 -15.765625 9.382812 -15.617188 9.03125 -15.328125 C 8.675781 -15.035156 8.390625 -14.648438 8.171875 -14.171875 C 7.960938 -13.703125 7.804688 -13.175781 7.703125 -12.59375 C 7.597656 -12.019531 7.53125 -11.457031 7.5 -10.90625 C 8.289062 -10.925781 8.957031 -11.039062 9.5 -11.25 C 10.039062 -11.46875 10.484375 -11.734375 10.828125 -12.046875 C 11.171875 -12.359375 11.421875 -12.695312 11.578125 -13.0625 C 11.734375 -13.4375 11.8125 -13.78125 11.8125 -14.09375 C 11.8125 -14.601562 11.671875 -15.007812 11.390625 -15.3125 C 11.117188 -15.613281 10.757812 -15.765625 10.3125 -15.765625 Z M 10.3125 -15.765625 "/></g></g></g><g fill="#0d009f" fill-opacity="1"><g transform="translate(662.329781, 589.437111)"><g><path d="M 18.25 -26.734375 L 24.765625 -26.734375 L 24.765625 0 L 19.203125 0 L 11.578125 -11.53125 C 11.421875 -11.769531 11.203125 -12.113281 10.921875 -12.5625 C 10.640625 -13.007812 10.347656 -13.472656 10.046875 -13.953125 C 9.742188 -14.441406 9.453125 -14.914062 9.171875 -15.375 C 8.898438 -15.84375 8.675781 -16.222656 8.5 -16.515625 C 8.519531 -16.117188 8.550781 -15.632812 8.59375 -15.0625 C 8.632812 -14.5 8.671875 -13.925781 8.703125 -13.34375 C 8.742188 -12.769531 8.773438 -12.207031 8.796875 -11.65625 C 8.828125 -11.101562 8.84375 -10.640625 8.84375 -10.265625 L 8.96875 0 L 2.453125 0 L 2.453125 -26.734375 L 7.78125 -26.734375 L 15.484375 -15.28125 C 15.722656 -14.914062 15.984375 -14.5 16.265625 -14.03125 C 16.554688 -13.570312 16.851562 -13.101562 17.15625 -12.625 C 17.457031 -12.15625 17.738281 -11.703125 18 -11.265625 C 18.269531 -10.835938 18.5 -10.46875 18.6875 -10.15625 C 18.65625 -10.570312 18.625 -11.054688 18.59375 -11.609375 C 18.570312 -12.160156 18.539062 -12.734375 18.5 -13.328125 C 18.46875 -13.921875 18.4375 -14.492188 18.40625 -15.046875 C 18.382812 -15.597656 18.375 -16.085938 18.375 -16.515625 Z M 18.25 -26.734375 "/></g></g></g><g fill="#0d009f" fill-opacity="1"><g transform="translate(689.54211, 589.437111)"><g><path d="M 1.0625 -9.359375 C 1.0625 -11.128906 1.316406 -12.691406 1.828125 -14.046875 C 2.347656 -15.398438 3.0625 -16.53125 3.96875 -17.4375 C 4.875 -18.34375 5.929688 -19.03125 7.140625 -19.5 C 8.359375 -19.976562 9.675781 -20.21875 11.09375 -20.21875 C 12.332031 -20.21875 13.382812 -20.066406 14.25 -19.765625 C 15.125 -19.460938 15.835938 -19.039062 16.390625 -18.5 C 16.941406 -17.96875 17.347656 -17.335938 17.609375 -16.609375 C 17.878906 -15.890625 18.015625 -15.109375 18.015625 -14.265625 C 18.015625 -13.316406 17.773438 -12.421875 17.296875 -11.578125 C 16.828125 -10.734375 16.148438 -9.988281 15.265625 -9.34375 C 14.378906 -8.695312 13.3125 -8.160156 12.0625 -7.734375 C 10.8125 -7.316406 9.398438 -7.039062 7.828125 -6.90625 C 8.003906 -6.125 8.335938 -5.488281 8.828125 -5 C 9.316406 -4.507812 10.0625 -4.265625 11.0625 -4.265625 C 11.632812 -4.265625 12.25 -4.328125 12.90625 -4.453125 C 13.570312 -4.585938 14.179688 -4.734375 14.734375 -4.890625 C 15.390625 -5.078125 16.035156 -5.289062 16.671875 -5.53125 L 17.859375 -1.421875 C 17.140625 -1.078125 16.363281 -0.773438 15.53125 -0.515625 C 14.8125 -0.304688 13.984375 -0.109375 13.046875 0.078125 C 12.117188 0.265625 11.128906 0.359375 10.078125 0.359375 C 8.460938 0.359375 7.082031 0.125 5.9375 -0.34375 C 4.789062 -0.820312 3.851562 -1.484375 3.125 -2.328125 C 2.40625 -3.171875 1.878906 -4.191406 1.546875 -5.390625 C 1.222656 -6.585938 1.0625 -7.910156 1.0625 -9.359375 Z M 10.3125 -15.765625 C 9.8125 -15.765625 9.382812 -15.617188 9.03125 -15.328125 C 8.675781 -15.035156 8.390625 -14.648438 8.171875 -14.171875 C 7.960938 -13.703125 7.804688 -13.175781 7.703125 -12.59375 C 7.597656 -12.019531 7.53125 -11.457031 7.5 -10.90625 C 8.289062 -10.925781 8.957031 -11.039062 9.5 -11.25 C 10.039062 -11.46875 10.484375 -11.734375 10.828125 -12.046875 C 11.171875 -12.359375 11.421875 -12.695312 11.578125 -13.0625 C 11.734375 -13.4375 11.8125 -13.78125 11.8125 -14.09375 C 11.8125 -14.601562 11.671875 -15.007812 11.390625 -15.3125 C 11.117188 -15.613281 10.757812 -15.765625 10.3125 -15.765625 Z M 10.3125 -15.765625 "/></g></g></g><g fill="#0d009f" fill-opacity="1"><g transform="translate(708.460401, 589.437111)"><g><path d="M 0.390625 -19.671875 L 3.640625 -19.671875 L 4.3125 -23.734375 L 9.71875 -24.921875 L 9.71875 -19.671875 L 14.375 -19.671875 L 13.625 -15.09375 L 9.71875 -15.09375 L 9.71875 -6.28125 C 9.71875 -5.125 10.320312 -4.546875 11.53125 -4.546875 C 12.1875 -4.546875 12.820312 -4.609375 13.4375 -4.734375 C 13.75 -4.816406 14.0625 -4.898438 14.375 -4.984375 L 15.4375 -0.796875 C 14.914062 -0.609375 14.1875 -0.398438 13.25 -0.171875 C 12.3125 0.046875 11.171875 0.15625 9.828125 0.15625 C 7.859375 0.15625 6.3125 -0.25 5.1875 -1.0625 C 4.070312 -1.882812 3.515625 -3.269531 3.515625 -5.21875 L 3.515625 -15.09375 L 0.390625 -15.09375 Z M 0.390625 -19.671875 "/></g></g></g><g fill="#0d009f" fill-opacity="1"><g transform="translate(723.942597, 589.437111)"><g/></g></g><g fill="#0d009f" fill-opacity="1"><g transform="translate(734.013922, 589.437111)"><g><path d="M 7.078125 0.15625 C 5.566406 0.15625 4.347656 -0.226562 3.421875 -1 C 2.503906 -1.78125 2.046875 -2.882812 2.046875 -4.3125 L 2.046875 -19.828125 L 8.296875 -19.828125 L 8.296875 -6.078125 C 8.296875 -5.472656 8.382812 -5.066406 8.5625 -4.859375 C 8.75 -4.648438 9.03125 -4.546875 9.40625 -4.546875 C 9.613281 -4.546875 9.820312 -4.5625 10.03125 -4.59375 C 10.238281 -4.632812 10.367188 -4.671875 10.421875 -4.703125 L 10.984375 -0.796875 C 10.953125 -0.765625 10.832031 -0.703125 10.625 -0.609375 C 10.414062 -0.515625 10.140625 -0.410156 9.796875 -0.296875 C 9.453125 -0.179688 9.039062 -0.078125 8.5625 0.015625 C 8.09375 0.109375 7.597656 0.15625 7.078125 0.15625 Z M 5.25 -29.34375 C 6.351562 -29.34375 7.195312 -29.015625 7.78125 -28.359375 C 8.363281 -27.703125 8.65625 -26.875 8.65625 -25.875 C 8.65625 -24.84375 8.359375 -23.984375 7.765625 -23.296875 C 7.171875 -22.617188 6.28125 -22.28125 5.09375 -22.28125 C 3.988281 -22.28125 3.140625 -22.613281 2.546875 -23.28125 C 1.953125 -23.957031 1.65625 -24.753906 1.65625 -25.671875 C 1.65625 -26.722656 1.957031 -27.597656 2.5625 -28.296875 C 3.164062 -28.992188 4.0625 -29.34375 5.25 -29.34375 Z M 5.25 -29.34375 "/></g></g></g><g fill="#0d009f" fill-opacity="1"><g transform="translate(745.270112, 589.437111)"><g><path d="M 13.671875 0 L 13.671875 -12.328125 C 13.671875 -13.242188 13.554688 -13.984375 13.328125 -14.546875 C 13.109375 -15.117188 12.695312 -15.40625 12.09375 -15.40625 C 11.351562 -15.40625 10.664062 -14.921875 10.03125 -13.953125 C 9.394531 -12.992188 9.078125 -11.648438 9.078125 -9.921875 L 9.078125 0 L 2.84375 0 L 2.84375 -10.265625 C 2.84375 -11.847656 2.726562 -13.160156 2.5 -14.203125 C 2.28125 -15.242188 2.023438 -16.09375 1.734375 -16.75 C 1.421875 -17.488281 1.066406 -18.082031 0.671875 -18.53125 L 5.6875 -20.109375 C 5.925781 -19.835938 6.164062 -19.535156 6.40625 -19.203125 C 6.613281 -18.910156 6.816406 -18.53125 7.015625 -18.0625 C 7.210938 -17.601562 7.375 -17.085938 7.5 -16.515625 C 8.1875 -17.753906 9.128906 -18.660156 10.328125 -19.234375 C 11.523438 -19.816406 12.835938 -20.109375 14.265625 -20.109375 C 16.316406 -20.109375 17.773438 -19.484375 18.640625 -18.234375 C 19.515625 -16.984375 19.953125 -15.316406 19.953125 -13.234375 L 19.953125 0 Z M 13.671875 0 "/></g></g></g><g fill="#0d009f" fill-opacity="1"><g transform="translate(767.269038, 589.437111)"><g><path d="M 8.375 -20.1875 C 9.375 -20.1875 10.300781 -20.097656 11.15625 -19.921875 C 12.007812 -19.753906 12.769531 -19.566406 13.4375 -19.359375 C 14.195312 -19.085938 14.894531 -18.8125 15.53125 -18.53125 L 13.546875 -14.09375 C 13.335938 -14.207031 13.066406 -14.34375 12.734375 -14.5 C 12.410156 -14.65625 12.054688 -14.8125 11.671875 -14.96875 C 11.285156 -15.125 10.878906 -15.253906 10.453125 -15.359375 C 10.035156 -15.472656 9.632812 -15.53125 9.25 -15.53125 C 8.820312 -15.53125 8.460938 -15.4375 8.171875 -15.25 C 7.878906 -15.0625 7.734375 -14.769531 7.734375 -14.375 C 7.734375 -13.957031 8.003906 -13.539062 8.546875 -13.125 C 9.085938 -12.71875 9.804688 -12.332031 10.703125 -11.96875 C 12.285156 -11.3125 13.503906 -10.523438 14.359375 -9.609375 C 15.210938 -8.703125 15.640625 -7.488281 15.640625 -5.96875 C 15.640625 -5.125 15.488281 -4.3125 15.1875 -3.53125 C 14.882812 -2.757812 14.4375 -2.082031 13.84375 -1.5 C 13.25 -0.914062 12.503906 -0.453125 11.609375 -0.109375 C 10.710938 0.222656 9.6875 0.390625 8.53125 0.390625 C 7.613281 0.390625 6.75 0.320312 5.9375 0.1875 C 5.132812 0.0625 4.394531 -0.0976562 3.71875 -0.296875 C 3.050781 -0.492188 2.453125 -0.691406 1.921875 -0.890625 C 1.398438 -1.085938 0.984375 -1.265625 0.671875 -1.421875 L 2.71875 -5.96875 C 2.851562 -5.914062 3.082031 -5.796875 3.40625 -5.609375 C 3.738281 -5.421875 4.125 -5.234375 4.5625 -5.046875 C 5 -4.867188 5.457031 -4.707031 5.9375 -4.5625 C 6.425781 -4.414062 6.894531 -4.34375 7.34375 -4.34375 C 7.894531 -4.34375 8.347656 -4.445312 8.703125 -4.65625 C 9.066406 -4.875 9.25 -5.191406 9.25 -5.609375 C 9.25 -6.109375 9.03125 -6.554688 8.59375 -6.953125 C 8.15625 -7.347656 7.59375 -7.675781 6.90625 -7.9375 C 4.9375 -8.726562 3.519531 -9.617188 2.65625 -10.609375 C 1.800781 -11.597656 1.375 -12.828125 1.375 -14.296875 C 1.375 -15.140625 1.53125 -15.914062 1.84375 -16.625 C 2.164062 -17.34375 2.628906 -17.960938 3.234375 -18.484375 C 3.835938 -19.015625 4.566406 -19.429688 5.421875 -19.734375 C 6.285156 -20.035156 7.269531 -20.1875 8.375 -20.1875 Z M 8.375 -20.1875 "/></g></g></g><g fill="#0d009f" fill-opacity="1"><g transform="translate(783.975593, 589.437111)"><g><path d="M 7.078125 0.15625 C 5.566406 0.15625 4.347656 -0.226562 3.421875 -1 C 2.503906 -1.78125 2.046875 -2.882812 2.046875 -4.3125 L 2.046875 -19.828125 L 8.296875 -19.828125 L 8.296875 -6.078125 C 8.296875 -5.472656 8.382812 -5.066406 8.5625 -4.859375 C 8.75 -4.648438 9.03125 -4.546875 9.40625 -4.546875 C 9.613281 -4.546875 9.820312 -4.5625 10.03125 -4.59375 C 10.238281 -4.632812 10.367188 -4.671875 10.421875 -4.703125 L 10.984375 -0.796875 C 10.953125 -0.765625 10.832031 -0.703125 10.625 -0.609375 C 10.414062 -0.515625 10.140625 -0.410156 9.796875 -0.296875 C 9.453125 -0.179688 9.039062 -0.078125 8.5625 0.015625 C 8.09375 0.109375 7.597656 0.15625 7.078125 0.15625 Z M 5.25 -29.34375 C 6.351562 -29.34375 7.195312 -29.015625 7.78125 -28.359375 C 8.363281 -27.703125 8.65625 -26.875 8.65625 -25.875 C 8.65625 -24.84375 8.359375 -23.984375 7.765625 -23.296875 C 7.171875 -22.617188 6.28125 -22.28125 5.09375 -22.28125 C 3.988281 -22.28125 3.140625 -22.613281 2.546875 -23.28125 C 1.953125 -23.957031 1.65625 -24.753906 1.65625 -25.671875 C 1.65625 -26.722656 1.957031 -27.597656 2.5625 -28.296875 C 3.164062 -28.992188 4.0625 -29.34375 5.25 -29.34375 Z M 5.25 -29.34375 "/></g></g></g><g fill="#0d009f" fill-opacity="1"><g transform="translate(795.231783, 589.437111)"><g><path d="M 5.328125 2.015625 C 6.492188 2.410156 7.503906 2.71875 8.359375 2.9375 C 9.210938 3.164062 10.125 3.28125 11.09375 3.28125 C 12.144531 3.28125 12.992188 2.976562 13.640625 2.375 C 14.285156 1.769531 14.609375 0.898438 14.609375 -0.234375 C 14.609375 -1.441406 14.425781 -2.519531 14.0625 -3.46875 C 13.613281 -2.289062 12.953125 -1.378906 12.078125 -0.734375 C 11.210938 -0.0859375 10.082031 0.234375 8.6875 0.234375 C 7.394531 0.234375 6.269531 0 5.3125 -0.46875 C 4.351562 -0.945312 3.554688 -1.613281 2.921875 -2.46875 C 2.285156 -3.320312 1.816406 -4.351562 1.515625 -5.5625 C 1.210938 -6.78125 1.0625 -8.125 1.0625 -9.59375 C 1.0625 -11.09375 1.304688 -12.488281 1.796875 -13.78125 C 2.285156 -15.070312 2.960938 -16.1875 3.828125 -17.125 C 4.703125 -18.0625 5.742188 -18.789062 6.953125 -19.3125 C 8.160156 -19.84375 9.503906 -20.109375 10.984375 -20.109375 C 11.773438 -20.109375 12.597656 -20.054688 13.453125 -19.953125 C 14.304688 -19.847656 15.109375 -19.726562 15.859375 -19.59375 C 16.609375 -19.457031 17.265625 -19.328125 17.828125 -19.203125 C 18.398438 -19.085938 18.773438 -19.003906 18.953125 -18.953125 L 18.796875 -9.125 C 18.796875 -8.28125 18.867188 -7.492188 19.015625 -6.765625 C 19.160156 -6.046875 19.316406 -5.335938 19.484375 -4.640625 C 19.660156 -3.941406 19.828125 -3.222656 19.984375 -2.484375 C 20.140625 -1.742188 20.21875 -0.957031 20.21875 -0.125 C 20.21875 2.644531 19.4375 4.773438 17.875 6.265625 C 16.3125 7.753906 14.1875 8.5 11.5 8.5 C 10.28125 8.5 9.015625 8.351562 7.703125 8.0625 C 6.390625 7.769531 5.113281 7.359375 3.875 6.828125 Z M 9.71875 -4.34375 C 10.132812 -4.34375 10.515625 -4.519531 10.859375 -4.875 C 11.203125 -5.226562 11.503906 -5.707031 11.765625 -6.3125 C 12.035156 -6.925781 12.238281 -7.625 12.375 -8.40625 C 12.519531 -9.195312 12.59375 -10.03125 12.59375 -10.90625 L 12.59375 -15.203125 C 12.414062 -15.285156 12.160156 -15.359375 11.828125 -15.421875 C 11.503906 -15.492188 11.222656 -15.53125 10.984375 -15.53125 C 10.347656 -15.53125 9.816406 -15.390625 9.390625 -15.109375 C 8.972656 -14.828125 8.640625 -14.441406 8.390625 -13.953125 C 8.140625 -13.472656 7.960938 -12.890625 7.859375 -12.203125 C 7.753906 -11.515625 7.703125 -10.78125 7.703125 -10 C 7.703125 -9.257812 7.710938 -8.550781 7.734375 -7.875 C 7.765625 -7.207031 7.851562 -6.609375 8 -6.078125 C 8.144531 -5.554688 8.347656 -5.132812 8.609375 -4.8125 C 8.867188 -4.5 9.238281 -4.34375 9.71875 -4.34375 Z M 9.71875 -4.34375 "/></g></g></g><g fill="#0d009f" fill-opacity="1"><g transform="translate(816.519805, 589.437111)"><g><path d="M 8.5 -18.328125 C 9.175781 -18.929688 9.960938 -19.378906 10.859375 -19.671875 C 11.753906 -19.960938 12.691406 -20.109375 13.671875 -20.109375 C 15.722656 -20.109375 17.179688 -19.488281 18.046875 -18.25 C 18.921875 -17.007812 19.359375 -15.335938 19.359375 -13.234375 L 19.359375 0 L 13.078125 0 L 13.078125 -12.328125 C 13.078125 -13.242188 12.960938 -13.984375 12.734375 -14.546875 C 12.515625 -15.117188 12.101562 -15.40625 11.5 -15.40625 C 11.15625 -15.40625 10.804688 -15.289062 10.453125 -15.0625 C 10.097656 -14.84375 9.773438 -14.515625 9.484375 -14.078125 C 9.191406 -13.648438 8.953125 -13.125 8.765625 -12.5 C 8.585938 -11.882812 8.5 -11.191406 8.5 -10.421875 L 8.5 0 L 2.25 0 L 2.25 -27.578125 L 8.5 -28.640625 Z M 8.5 -18.328125 "/></g></g></g><g fill="#0d009f" fill-opacity="1"><g transform="translate(837.926307, 589.437111)"><g><path d="M 0.390625 -19.671875 L 3.640625 -19.671875 L 4.3125 -23.734375 L 9.71875 -24.921875 L 9.71875 -19.671875 L 14.375 -19.671875 L 13.625 -15.09375 L 9.71875 -15.09375 L 9.71875 -6.28125 C 9.71875 -5.125 10.320312 -4.546875 11.53125 -4.546875 C 12.1875 -4.546875 12.820312 -4.609375 13.4375 -4.734375 C 13.75 -4.816406 14.0625 -4.898438 14.375 -4.984375 L 15.4375 -0.796875 C 14.914062 -0.609375 14.1875 -0.398438 13.25 -0.171875 C 12.3125 0.046875 11.171875 0.15625 9.828125 0.15625 C 7.859375 0.15625 6.3125 -0.25 5.1875 -1.0625 C 4.070312 -1.882812 3.515625 -3.269531 3.515625 -5.21875 L 3.515625 -15.09375 L 0.390625 -15.09375 Z M 0.390625 -19.671875 "/></g></g></g></svg>