<svg xmlns="http://www.w3.org/2000/svg" xmlns:xlink="http://www.w3.org/1999/xlink" width="1080" zoomAndPan="magnify" viewBox="0 0 810 809.999993" height="1080" preserveAspectRatio="xMidYMid meet" version="1.0"><defs><g/></defs><g fill="#ffffff" fill-opacity="1"><g transform="translate(316.124988, 400.624922)"><g><path d="M 25.515625 4.484375 C 24.453125 4.484375 23.539062 4.054688 22.78125 3.203125 C 22.019531 2.347656 21.359375 1.253906 20.796875 -0.078125 C 20.234375 -1.410156 19.738281 -2.785156 19.3125 -4.203125 C 18.332031 -7.429688 17.921875 -9.347656 18.078125 -9.953125 C 16.503906 -7.847656 15.144531 -6.09375 14 -4.6875 C 12.851562 -3.289062 11.921875 -2.25 11.203125 -1.5625 C 8.054688 1.476562 4.867188 3 1.640625 3 C 0.679688 3 -0.109375 2.796875 -0.734375 2.390625 C -1.367188 1.992188 -1.6875 1.332031 -1.6875 0.40625 C -1.6875 -0.1875 -1.550781 -0.820312 -1.28125 -1.5 C -1.007812 -2.175781 -0.675781 -2.820312 -0.28125 -3.4375 C 0.113281 -4.050781 0.515625 -4.554688 0.921875 -4.953125 C 1.796875 -5.835938 2.53125 -6.28125 3.125 -6.28125 C 3.226562 -6.28125 3.28125 -6.253906 3.28125 -6.203125 C 3.28125 -6.066406 3.082031 -5.835938 2.6875 -5.515625 C 1.75 -4.773438 0.972656 -3.914062 0.359375 -2.9375 C -0.253906 -1.96875 -0.5625 -1.082031 -0.5625 -0.28125 C -0.5625 1.207031 0.488281 1.914062 2.59375 1.84375 C 6.039062 1.707031 10.816406 -2.453125 16.921875 -10.640625 C 17.265625 -11.085938 17.554688 -11.40625 17.796875 -11.59375 L 17.15625 -11.84375 C 16.8125 -11.707031 16.53125 -11.640625 16.3125 -11.640625 C 15.757812 -11.640625 15.484375 -11.863281 15.484375 -12.3125 C 15.484375 -12.925781 15.894531 -13.328125 16.71875 -13.515625 C 17.226562 -13.648438 17.882812 -13.425781 18.6875 -12.84375 C 19.71875 -14.007812 20.71875 -15.125 21.6875 -16.1875 C 22.664062 -17.257812 23.554688 -18.132812 24.359375 -18.8125 C 25.160156 -19.5 25.800781 -19.84375 26.28125 -19.84375 C 26.914062 -19.84375 27.234375 -19.546875 27.234375 -18.953125 C 27.234375 -18.710938 27.171875 -18.46875 27.046875 -18.21875 C 26.929688 -17.96875 26.796875 -17.84375 26.640625 -17.84375 C 26.484375 -17.8125 26.40625 -17.890625 26.40625 -18.078125 C 26.40625 -18.210938 26.484375 -18.375 26.640625 -18.5625 L 26.640625 -18.71875 C 26.640625 -18.875 26.585938 -18.992188 26.484375 -19.078125 C 25.785156 -19.535156 23.648438 -17.28125 20.078125 -12.3125 C 20.367188 -12.289062 20.679688 -12.269531 21.015625 -12.25 C 21.347656 -12.238281 21.703125 -12.234375 22.078125 -12.234375 C 28.265625 -12.234375 32.132812 -13.835938 33.6875 -17.046875 C 34 -17.734375 34.15625 -18.367188 34.15625 -18.953125 C 34.15625 -20.128906 33.609375 -21.160156 32.515625 -22.046875 C 31.535156 -22.835938 30.238281 -23.375 28.625 -23.65625 C 27.007812 -23.9375 25.398438 -24.078125 23.796875 -24.078125 C 20.253906 -24.078125 16.484375 -23.101562 12.484375 -21.15625 C 7.628906 -18.78125 5.203125 -15.992188 5.203125 -12.796875 C 5.203125 -11.753906 5.878906 -11.234375 7.234375 -11.234375 C 8.492188 -11.234375 9.910156 -11.742188 11.484375 -12.765625 C 12.835938 -13.671875 13.769531 -14.585938 14.28125 -15.515625 C 14.46875 -15.867188 14.640625 -16.046875 14.796875 -16.046875 C 14.984375 -16.046875 15.035156 -15.9375 14.953125 -15.71875 C 14.453125 -14.226562 13.320312 -12.945312 11.5625 -11.875 C 9.851562 -10.832031 8.09375 -10.3125 6.28125 -10.3125 C 4.125 -10.3125 3.125 -11.007812 3.28125 -12.40625 C 3.675781 -15.894531 5.820312 -18.863281 9.71875 -21.3125 C 13.582031 -23.738281 18.25 -24.953125 23.71875 -24.953125 C 25.800781 -24.953125 27.820312 -24.765625 29.78125 -24.390625 C 31.738281 -24.023438 33.332031 -23.332031 34.5625 -22.3125 C 35.84375 -21.25 36.484375 -20 36.484375 -18.5625 C 36.484375 -17.945312 36.335938 -17.28125 36.046875 -16.5625 C 35.585938 -15.519531 34.890625 -14.628906 33.953125 -13.890625 C 33.023438 -13.160156 31.945312 -12.566406 30.71875 -12.109375 C 29.488281 -11.660156 28.191406 -11.328125 26.828125 -11.109375 C 25.472656 -10.898438 24.15625 -10.796875 22.875 -10.796875 C 22.1875 -10.796875 21.523438 -10.820312 20.890625 -10.875 C 20.265625 -10.925781 19.6875 -11.007812 19.15625 -11.125 C 19.320312 -10.613281 19.601562 -9.691406 20 -8.359375 C 20.394531 -7.023438 20.898438 -5.289062 21.515625 -3.15625 C 21.703125 -2.570312 21.960938 -1.929688 22.296875 -1.234375 C 22.628906 -0.546875 23.007812 0.101562 23.4375 0.71875 C 23.863281 1.332031 24.320312 1.835938 24.8125 2.234375 C 25.3125 2.640625 25.8125 2.84375 26.3125 2.84375 C 27.4375 2.84375 28.375 1.707031 29.125 -0.5625 C 29.25 -1.09375 29.394531 -1.359375 29.5625 -1.359375 C 29.695312 -1.359375 29.816406 -1.101562 29.921875 -0.59375 C 29.941406 -0.519531 29.953125 -0.414062 29.953125 -0.28125 C 29.953125 0.414062 29.582031 1.269531 28.84375 2.28125 C 27.851562 3.75 26.742188 4.484375 25.515625 4.484375 Z M 25.515625 4.484375 "/></g></g></g><g fill="#ffffff" fill-opacity="1"><g transform="translate(346.202005, 400.624922)"><g><path d="M 2.6875 0.203125 C 2.039062 0.203125 1.394531 -0.0195312 0.75 -0.46875 C 0.113281 -0.925781 -0.238281 -1.460938 -0.3125 -2.078125 C -0.582031 -4.128906 0.707031 -6.570312 3.5625 -9.40625 C 6.382812 -12.226562 8.929688 -13.640625 11.203125 -13.640625 C 11.816406 -13.640625 12.296875 -13.492188 12.640625 -13.203125 C 12.828125 -13.015625 12.96875 -12.757812 13.0625 -12.4375 C 13.15625 -12.113281 13.226562 -11.953125 13.28125 -11.953125 C 13.382812 -11.953125 13.476562 -11.972656 13.5625 -12.015625 C 13.644531 -12.054688 13.738281 -12.078125 13.84375 -12.078125 C 14.15625 -12.078125 14.429688 -11.957031 14.671875 -11.71875 C 14.921875 -11.476562 15.054688 -11.265625 15.078125 -11.078125 C 15.109375 -11.023438 14.253906 -9.707031 12.515625 -7.125 C 10.785156 -4.582031 10 -2.859375 10.15625 -1.953125 C 10.289062 -1.347656 10.585938 -1.046875 11.046875 -1.046875 C 12.429688 -1.046875 14.960938 -3.335938 18.640625 -7.921875 C 18.722656 -8.023438 18.800781 -8.078125 18.875 -8.078125 C 19.007812 -8.078125 19.078125 -7.984375 19.078125 -7.796875 C 19.078125 -7.585938 18.957031 -7.320312 18.71875 -7 C 15.332031 -2.4375 12.734375 -0.15625 10.921875 -0.15625 C 10.679688 -0.15625 10.453125 -0.195312 10.234375 -0.28125 C 9.066406 -0.726562 8.484375 -1.609375 8.484375 -2.921875 C 8.484375 -3.367188 8.535156 -3.820312 8.640625 -4.28125 L 6.15625 -1.875 C 5.414062 -1.132812 4.742188 -0.601562 4.140625 -0.28125 C 3.535156 0.0390625 3.050781 0.203125 2.6875 0.203125 Z M 2.3125 -0.6875 C 3.863281 -0.6875 5.972656 -2.378906 8.640625 -5.765625 L 12.875 -11.59375 C 12.664062 -11.96875 12.320312 -12.15625 11.84375 -12.15625 C 10.21875 -12.15625 8.015625 -10.847656 5.234375 -8.234375 C 2.359375 -5.566406 1.066406 -3.367188 1.359375 -1.640625 C 1.492188 -1.003906 1.8125 -0.6875 2.3125 -0.6875 Z M 2.3125 -0.6875 "/></g></g></g><g fill="#ffffff" fill-opacity="1"><g transform="translate(362.680364, 400.624922)"><g><path d="M 9.234375 0.875 C 8.460938 0.875 7.695312 0.796875 6.9375 0.640625 C 6.175781 0.484375 5.488281 0.226562 4.875 -0.125 C 4.6875 -0.226562 4.410156 -0.398438 4.046875 -0.640625 C 3.691406 -0.878906 3.238281 -1.210938 2.6875 -1.640625 C 2.257812 -1.347656 1.859375 -1.085938 1.484375 -0.859375 C 1.109375 -0.628906 0.75 -0.515625 0.40625 -0.515625 C -0.207031 -0.515625 -0.515625 -0.847656 -0.515625 -1.515625 C -0.515625 -1.734375 -0.441406 -2.019531 -0.296875 -2.375 C -0.148438 -2.738281 0.015625 -2.921875 0.203125 -2.921875 C 0.335938 -2.921875 0.40625 -2.828125 0.40625 -2.640625 C 0.40625 -2.503906 0.390625 -2.394531 0.359375 -2.3125 C 0.359375 -2.289062 0.347656 -2.257812 0.328125 -2.21875 C 0.316406 -2.175781 0.3125 -2.144531 0.3125 -2.125 C 0.3125 -1.851562 0.445312 -1.71875 0.71875 -1.71875 C 1.0625 -1.71875 1.445312 -1.878906 1.875 -2.203125 L 0.359375 -3.359375 C 0.304688 -3.410156 0.28125 -3.476562 0.28125 -3.5625 C 0.28125 -3.75 0.410156 -3.96875 0.671875 -4.21875 C 0.941406 -4.46875 1.1875 -4.59375 1.40625 -4.59375 C 1.476562 -4.59375 2.085938 -4.140625 3.234375 -3.234375 C 4.304688 -4.441406 5.414062 -5.628906 6.5625 -6.796875 C 7.414062 -7.703125 8.164062 -8.472656 8.8125 -9.109375 C 9.46875 -9.753906 10.035156 -10.25 10.515625 -10.59375 C 8.410156 -11.238281 6.851562 -11.5625 5.84375 -11.5625 C 5.195312 -11.5625 4.675781 -11.421875 4.28125 -11.140625 C 3.882812 -10.859375 3.6875 -10.503906 3.6875 -10.078125 C 3.6875 -9.734375 3.867188 -9.414062 4.234375 -9.125 C 4.453125 -8.957031 4.5625 -8.820312 4.5625 -8.71875 C 4.5625 -8.5625 4.492188 -8.484375 4.359375 -8.484375 C 4.085938 -8.484375 3.726562 -8.75 3.28125 -9.28125 C 2.851562 -9.8125 2.640625 -10.359375 2.640625 -10.921875 C 2.640625 -11.484375 2.84375 -11.910156 3.25 -12.203125 C 3.664062 -12.492188 4.179688 -12.691406 4.796875 -12.796875 C 5.410156 -12.898438 6.007812 -12.953125 6.59375 -12.953125 C 7.445312 -12.953125 8.378906 -12.789062 9.390625 -12.46875 C 10.410156 -12.15625 11.414062 -11.835938 12.40625 -11.515625 C 12.769531 -11.734375 13.164062 -11.84375 13.59375 -11.84375 C 14.71875 -11.84375 15.28125 -11.507812 15.28125 -10.84375 C 15.28125 -10.570312 15.113281 -10.320312 14.78125 -10.09375 C 14.445312 -9.875 14.039062 -9.765625 13.5625 -9.765625 C 13.050781 -9.765625 12.597656 -9.859375 12.203125 -10.046875 C 9.691406 -8.492188 6.972656 -6.007812 4.046875 -2.59375 L 5.484375 -1.484375 C 6.097656 -1.023438 6.769531 -0.722656 7.5 -0.578125 C 8.226562 -0.429688 8.957031 -0.359375 9.6875 -0.359375 C 10.851562 -0.359375 11.847656 -0.570312 12.671875 -1 C 13.503906 -1.425781 13.921875 -2.066406 13.921875 -2.921875 C 13.921875 -3.265625 13.867188 -3.554688 13.765625 -3.796875 C 13.710938 -3.960938 13.6875 -4.054688 13.6875 -4.078125 C 13.6875 -4.265625 13.816406 -4.359375 14.078125 -4.359375 C 14.210938 -4.359375 14.304688 -4.289062 14.359375 -4.15625 C 14.578125 -3.675781 14.6875 -3.222656 14.6875 -2.796875 C 14.6875 -1.734375 14.1875 -0.851562 13.1875 -0.15625 C 12.1875 0.53125 10.867188 0.875 9.234375 0.875 Z M 9.234375 0.875 "/></g></g></g><g fill="#ffffff" fill-opacity="1"><g transform="translate(378.118832, 400.624922)"><g/></g></g><g fill="#ffffff" fill-opacity="1"><g transform="translate(386.03804, 400.624922)"><g><path d="M 16.953125 1.875 C 12.742188 1.875 9.878906 0.4375 8.359375 -2.4375 C 5.609375 -0.144531 3.648438 1 2.484375 1 C 1.921875 1 1.484375 0.734375 1.171875 0.203125 C 0.867188 -0.328125 0.71875 -0.925781 0.71875 -1.59375 C 0.71875 -3.195312 1.332031 -5.066406 2.5625 -7.203125 C 3.09375 -8.128906 3.675781 -8.976562 4.3125 -9.75 C 4.957031 -10.53125 5.679688 -10.921875 6.484375 -10.921875 C 7.253906 -10.921875 7.835938 -10.28125 8.234375 -9 L 9.4375 -5.15625 C 9.863281 -5.613281 10.335938 -6.164062 10.859375 -6.8125 C 11.378906 -7.46875 11.957031 -8.238281 12.59375 -9.125 L 16.15625 -13.921875 C 20.53125 -19.597656 23.398438 -22.703125 24.765625 -23.234375 C 25.242188 -23.421875 25.722656 -23.515625 26.203125 -23.515625 C 26.734375 -23.515625 27.164062 -23.398438 27.5 -23.171875 C 27.832031 -22.953125 28 -22.695312 28 -22.40625 C 28 -21.925781 27.613281 -21.644531 26.84375 -21.5625 C 26.039062 -21.101562 24.476562 -19.753906 22.15625 -17.515625 C 21.09375 -16.472656 20.234375 -15.613281 19.578125 -14.9375 C 18.921875 -14.257812 18.472656 -13.75 18.234375 -13.40625 C 15.253906 -9.238281 12.492188 -6.035156 9.953125 -3.796875 C 11.585938 -0.566406 14.03125 1.046875 17.28125 1.046875 C 18.507812 1.046875 19.753906 0.785156 21.015625 0.265625 C 22.285156 -0.253906 23.457031 -0.941406 24.53125 -1.796875 C 25.613281 -2.648438 26.488281 -3.601562 27.15625 -4.65625 C 27.820312 -5.707031 28.15625 -6.753906 28.15625 -7.796875 C 28.15625 -8.890625 27.769531 -9.875 27 -10.75 C 26.226562 -11.632812 25.28125 -12.265625 24.15625 -12.640625 C 24.15625 -12.640625 23.953125 -12.664062 23.546875 -12.71875 C 23.148438 -12.769531 22.539062 -12.847656 21.71875 -12.953125 C 20.46875 -13.117188 19.84375 -13.375 19.84375 -13.71875 C 19.84375 -13.957031 19.992188 -14.171875 20.296875 -14.359375 C 20.609375 -14.546875 20.921875 -14.640625 21.234375 -14.640625 C 21.472656 -14.640625 21.753906 -14.582031 22.078125 -14.46875 C 22.398438 -14.363281 22.6875 -14.265625 22.9375 -14.171875 C 23.1875 -14.085938 23.3125 -14.046875 23.3125 -14.046875 C 23.53125 -14.015625 23.769531 -13.988281 24.03125 -13.96875 C 24.300781 -13.957031 24.570312 -13.953125 24.84375 -13.953125 C 26.601562 -13.953125 28.203125 -14.234375 29.640625 -14.796875 C 31.023438 -15.359375 32.035156 -16.128906 32.671875 -17.109375 C 33.316406 -18.097656 33.640625 -19.25 33.640625 -20.5625 C 33.640625 -21.894531 33.21875 -22.945312 32.375 -23.71875 C 31.539062 -24.488281 30.4375 -25.039062 29.0625 -25.375 C 27.6875 -25.707031 26.195312 -25.875 24.59375 -25.875 C 21.476562 -25.875 18.515625 -25.421875 15.703125 -24.515625 C 12.890625 -23.609375 10.457031 -22.101562 8.40625 -20 C 6.832031 -18.375 6.046875 -17.015625 6.046875 -15.921875 C 6.046875 -15.148438 6.242188 -14.492188 6.640625 -13.953125 C 6.742188 -13.828125 6.863281 -13.695312 7 -13.5625 C 7.132812 -13.425781 7.296875 -13.289062 7.484375 -13.15625 C 7.617188 -13.082031 7.535156 -13.046875 7.234375 -13.046875 C 5.585938 -13.410156 4.765625 -14.515625 4.765625 -16.359375 C 4.765625 -18.203125 5.695312 -19.9375 7.5625 -21.5625 C 9 -22.8125 10.644531 -23.820312 12.5 -24.59375 C 14.351562 -25.375 16.3125 -25.9375 18.375 -26.28125 C 20.445312 -26.625 22.492188 -26.796875 24.515625 -26.796875 C 25.960938 -26.796875 27.351562 -26.6875 28.6875 -26.46875 C 30.019531 -26.257812 31.21875 -25.910156 32.28125 -25.421875 C 33.34375 -24.929688 34.1875 -24.285156 34.8125 -23.484375 C 35.445312 -22.679688 35.765625 -21.691406 35.765625 -20.515625 C 35.765625 -18.867188 35.320312 -17.550781 34.4375 -16.5625 C 33.5625 -15.570312 32.375 -14.8125 30.875 -14.28125 C 29.113281 -13.664062 27.222656 -13.34375 25.203125 -13.3125 C 26.316406 -13.257812 27.296875 -12.96875 28.140625 -12.4375 C 28.984375 -11.90625 29.632812 -11.210938 30.09375 -10.359375 C 30.5625 -9.503906 30.796875 -8.570312 30.796875 -7.5625 C 30.796875 -6.195312 30.390625 -4.9375 29.578125 -3.78125 C 28.765625 -2.625 27.675781 -1.625 26.3125 -0.78125 C 24.957031 0.0625 23.46875 0.710938 21.84375 1.171875 C 20.21875 1.640625 18.585938 1.875 16.953125 1.875 Z M 3 0.078125 C 3.851562 0.078125 5.492188 -1.132812 7.921875 -3.5625 L 7.796875 -3.71875 C 6.734375 -7.269531 5.878906 -9.046875 5.234375 -9.046875 C 5.210938 -9.046875 5.148438 -9.015625 5.046875 -8.953125 C 3.066406 -6.109375 2.078125 -3.816406 2.078125 -2.078125 C 2.078125 -1.703125 2.148438 -1.25 2.296875 -0.71875 C 2.441406 -0.1875 2.675781 0.078125 3 0.078125 Z M 3 0.078125 "/></g></g></g><g fill="#ffffff" fill-opacity="1"><g transform="translate(418.794782, 400.624922)"><g><path d="M 8.15625 0.203125 C 7.007812 0.203125 6.222656 -0.09375 5.796875 -0.6875 C 5.367188 -1.289062 5.15625 -2.101562 5.15625 -3.125 C 5.15625 -4.238281 5.503906 -5.570312 6.203125 -7.125 C 6.460938 -7.738281 6.738281 -8.289062 7.03125 -8.78125 C 7.332031 -9.269531 7.640625 -9.726562 7.953125 -10.15625 C 7.847656 -10.132812 7.753906 -10.125 7.671875 -10.125 C 7.597656 -10.125 7.519531 -10.125 7.4375 -10.125 C 6.800781 -10.125 6.269531 -10.578125 5.84375 -11.484375 L 2.875 -7.640625 C 1.300781 -5.585938 0.34375 -4.5625 0 -4.5625 C -0.132812 -4.5625 -0.203125 -4.613281 -0.203125 -4.71875 C -0.203125 -4.851562 -0.132812 -5.023438 0 -5.234375 C 0.0820312 -5.398438 0.242188 -5.613281 0.484375 -5.875 C 1.492188 -7.050781 2.425781 -8.210938 3.28125 -9.359375 C 4.132812 -10.503906 4.84375 -11.625 5.40625 -12.71875 C 6.007812 -15.039062 6.78125 -16.203125 7.71875 -16.203125 C 8.332031 -16.203125 8.640625 -15.921875 8.640625 -15.359375 C 8.640625 -14.847656 8.304688 -14.179688 7.640625 -13.359375 C 7.003906 -12.535156 6.6875 -12.109375 6.6875 -12.078125 C 6.6875 -11.515625 7.097656 -11.234375 7.921875 -11.234375 C 8.398438 -11.234375 8.929688 -11.410156 9.515625 -11.765625 L 10.5625 -12.40625 C 10.613281 -12.425781 10.691406 -12.4375 10.796875 -12.4375 C 11.117188 -12.4375 11.398438 -12.300781 11.640625 -12.03125 C 11.878906 -11.769531 11.957031 -11.53125 11.875 -11.3125 L 9.125 -7.84375 C 7.414062 -5.65625 6.5625 -3.894531 6.5625 -2.5625 C 6.5625 -1.363281 7.144531 -0.765625 8.3125 -0.765625 C 9.113281 -0.765625 9.972656 -1.003906 10.890625 -1.484375 C 11.816406 -1.960938 12.710938 -2.550781 13.578125 -3.25 C 14.441406 -3.957031 15.171875 -4.644531 15.765625 -5.3125 L 16.71875 -6.4375 C 16.769531 -6.488281 16.835938 -6.554688 16.921875 -6.640625 C 17.003906 -6.722656 17.070312 -6.765625 17.125 -6.765625 C 17.3125 -6.765625 17.40625 -6.671875 17.40625 -6.484375 C 17.40625 -6.429688 17.375 -6.335938 17.3125 -6.203125 C 17.257812 -6.066406 17.171875 -5.921875 17.046875 -5.765625 L 15.765625 -4.3125 C 15.148438 -3.625 14.394531 -2.925781 13.5 -2.21875 C 12.601562 -1.507812 11.679688 -0.925781 10.734375 -0.46875 C 9.785156 -0.0195312 8.925781 0.203125 8.15625 0.203125 Z M 8.15625 0.203125 "/></g></g></g><g fill="#ffffff" fill-opacity="1"><g transform="translate(434.553216, 400.624922)"><g><path d="M 2.6875 0.203125 C 2.039062 0.203125 1.394531 -0.0195312 0.75 -0.46875 C 0.113281 -0.925781 -0.238281 -1.460938 -0.3125 -2.078125 C -0.582031 -4.128906 0.707031 -6.570312 3.5625 -9.40625 C 6.382812 -12.226562 8.929688 -13.640625 11.203125 -13.640625 C 11.816406 -13.640625 12.296875 -13.492188 12.640625 -13.203125 C 12.828125 -13.015625 12.96875 -12.757812 13.0625 -12.4375 C 13.15625 -12.113281 13.226562 -11.953125 13.28125 -11.953125 C 13.382812 -11.953125 13.476562 -11.972656 13.5625 -12.015625 C 13.644531 -12.054688 13.738281 -12.078125 13.84375 -12.078125 C 14.15625 -12.078125 14.429688 -11.957031 14.671875 -11.71875 C 14.921875 -11.476562 15.054688 -11.265625 15.078125 -11.078125 C 15.109375 -11.023438 14.253906 -9.707031 12.515625 -7.125 C 10.785156 -4.582031 10 -2.859375 10.15625 -1.953125 C 10.289062 -1.347656 10.585938 -1.046875 11.046875 -1.046875 C 12.429688 -1.046875 14.960938 -3.335938 18.640625 -7.921875 C 18.722656 -8.023438 18.800781 -8.078125 18.875 -8.078125 C 19.007812 -8.078125 19.078125 -7.984375 19.078125 -7.796875 C 19.078125 -7.585938 18.957031 -7.320312 18.71875 -7 C 15.332031 -2.4375 12.734375 -0.15625 10.921875 -0.15625 C 10.679688 -0.15625 10.453125 -0.195312 10.234375 -0.28125 C 9.066406 -0.726562 8.484375 -1.609375 8.484375 -2.921875 C 8.484375 -3.367188 8.535156 -3.820312 8.640625 -4.28125 L 6.15625 -1.875 C 5.414062 -1.132812 4.742188 -0.601562 4.140625 -0.28125 C 3.535156 0.0390625 3.050781 0.203125 2.6875 0.203125 Z M 2.3125 -0.6875 C 3.863281 -0.6875 5.972656 -2.378906 8.640625 -5.765625 L 12.875 -11.59375 C 12.664062 -11.96875 12.320312 -12.15625 11.84375 -12.15625 C 10.21875 -12.15625 8.015625 -10.847656 5.234375 -8.234375 C 2.359375 -5.566406 1.066406 -3.367188 1.359375 -1.640625 C 1.492188 -1.003906 1.8125 -0.6875 2.3125 -0.6875 Z M 2.3125 -0.6875 "/></g></g></g><g fill="#ffffff" fill-opacity="1"><g transform="translate(451.031575, 400.624922)"><g><path d="M 3.046875 0.515625 C 2.191406 0.515625 1.414062 0.242188 0.71875 -0.296875 C 0.03125 -0.847656 -0.3125 -1.578125 -0.3125 -2.484375 C -0.3125 -4.367188 0.84375 -6.523438 3.15625 -8.953125 C 5.53125 -11.410156 7.648438 -12.640625 9.515625 -12.640625 C 10.160156 -12.640625 10.664062 -12.472656 11.03125 -12.140625 C 11.40625 -11.804688 11.59375 -11.398438 11.59375 -10.921875 C 11.59375 -10.253906 11.4375 -9.640625 11.125 -9.078125 C 10.75 -8.390625 10.210938 -8.046875 9.515625 -8.046875 C 8.828125 -8.046875 8.484375 -8.257812 8.484375 -8.6875 C 8.484375 -8.976562 8.65625 -9.414062 9 -10 C 9.375 -10.613281 9.5625 -10.929688 9.5625 -10.953125 C 9.5625 -11.015625 9.519531 -11.046875 9.4375 -11.046875 C 8.6875 -10.960938 7.644531 -10.414062 6.3125 -9.40625 C 5.726562 -8.945312 5.21875 -8.515625 4.78125 -8.109375 C 4.34375 -7.710938 3.988281 -7.328125 3.71875 -6.953125 L 2.15625 -4.6875 C 2 -4.4375 1.832031 -4.019531 1.65625 -3.4375 C 1.488281 -2.851562 1.40625 -2.414062 1.40625 -2.125 C 1.40625 -1.582031 1.582031 -1.140625 1.9375 -0.796875 C 2.300781 -0.453125 2.757812 -0.28125 3.3125 -0.28125 C 4.644531 -0.28125 6.40625 -1.144531 8.59375 -2.875 C 10.351562 -4.257812 11.769531 -5.660156 12.84375 -7.078125 C 12.976562 -7.234375 13.132812 -7.3125 13.3125 -7.3125 C 13.5 -7.3125 13.59375 -7.257812 13.59375 -7.15625 C 13.59375 -7.082031 13.53125 -6.953125 13.40625 -6.765625 C 11.9375 -4.816406 10.210938 -3.132812 8.234375 -1.71875 C 6.128906 -0.226562 4.398438 0.515625 3.046875 0.515625 Z M 3.046875 0.515625 "/></g></g></g><g fill="#ffffff" fill-opacity="1"><g transform="translate(462.350445, 400.624922)"><g><path d="M -1.078125 0.203125 C -1.847656 0.203125 -2.234375 -0.0234375 -2.234375 -0.484375 C -2.234375 -0.742188 -2.078125 -1.171875 -1.765625 -1.765625 C -0.535156 -3.953125 0.5625 -5.890625 1.53125 -7.578125 C 2.507812 -9.273438 3.375 -10.707031 4.125 -11.875 C 7.289062 -16.96875 9.53125 -19.726562 10.84375 -20.15625 C 10.894531 -20.15625 10.929688 -20.160156 10.953125 -20.171875 C 10.984375 -20.191406 11.015625 -20.203125 11.046875 -20.203125 C 11.390625 -20.203125 11.613281 -19.921875 11.71875 -19.359375 C 11.632812 -18.796875 10.25 -16.769531 7.5625 -13.28125 C 6.144531 -11.488281 5.039062 -10.015625 4.25 -8.859375 C 3.46875 -7.703125 2.984375 -6.851562 2.796875 -6.3125 C 3.679688 -6.957031 4.628906 -7.640625 5.640625 -8.359375 C 6.648438 -9.078125 7.632812 -9.765625 8.59375 -10.421875 C 9.5625 -11.078125 10.429688 -11.609375 11.203125 -12.015625 C 11.972656 -12.429688 12.570312 -12.664062 13 -12.71875 C 13.050781 -12.71875 13.113281 -12.722656 13.1875 -12.734375 C 13.269531 -12.753906 13.328125 -12.765625 13.359375 -12.765625 C 14.109375 -12.765625 14.484375 -12.414062 14.484375 -11.71875 C 14.484375 -11.53125 14.242188 -11.113281 13.765625 -10.46875 C 13.285156 -9.832031 12.550781 -8.847656 11.5625 -7.515625 C 9.800781 -5.171875 8.921875 -3.410156 8.921875 -2.234375 C 8.921875 -1.617188 9.144531 -1.3125 9.59375 -1.3125 C 10.070312 -1.34375 10.625 -1.554688 11.25 -1.953125 C 11.882812 -2.359375 12.519531 -2.851562 13.15625 -3.4375 C 13.800781 -4.019531 14.382812 -4.597656 14.90625 -5.171875 C 15.425781 -5.753906 15.816406 -6.203125 16.078125 -6.515625 C 16.316406 -6.753906 16.503906 -6.875 16.640625 -6.875 C 16.742188 -6.875 16.796875 -6.820312 16.796875 -6.71875 C 16.796875 -6.507812 16.691406 -6.253906 16.484375 -5.953125 C 16.160156 -5.554688 15.6875 -5.035156 15.0625 -4.390625 C 14.4375 -3.753906 13.753906 -3.109375 13.015625 -2.453125 C 12.285156 -1.804688 11.59375 -1.257812 10.9375 -0.8125 C 10.28125 -0.375 9.796875 -0.15625 9.484375 -0.15625 C 7.910156 -0.15625 7.125 -1.078125 7.125 -2.921875 C 7.125 -3.960938 7.601562 -5.320312 8.5625 -7 C 8.9375 -7.632812 9.320312 -8.269531 9.71875 -8.90625 C 10.113281 -9.550781 10.515625 -10.195312 10.921875 -10.84375 C 7.503906 -9.132812 4.410156 -6.613281 1.640625 -3.28125 C 1.296875 -2.800781 0.9375 -2.285156 0.5625 -1.734375 C 0.1875 -1.191406 -0.144531 -0.734375 -0.4375 -0.359375 C -0.726562 0.015625 -0.941406 0.203125 -1.078125 0.203125 Z M -1.078125 0.203125 "/></g></g></g><g fill="#ffffff" fill-opacity="1"><g transform="translate(477.388954, 400.624922)"><g><path d="M 2.6875 0.203125 C 2.039062 0.203125 1.394531 -0.0195312 0.75 -0.46875 C 0.113281 -0.925781 -0.238281 -1.460938 -0.3125 -2.078125 C -0.582031 -4.128906 0.707031 -6.570312 3.5625 -9.40625 C 6.382812 -12.226562 8.929688 -13.640625 11.203125 -13.640625 C 11.816406 -13.640625 12.296875 -13.492188 12.640625 -13.203125 C 12.828125 -13.015625 12.96875 -12.757812 13.0625 -12.4375 C 13.15625 -12.113281 13.226562 -11.953125 13.28125 -11.953125 C 13.382812 -11.953125 13.476562 -11.972656 13.5625 -12.015625 C 13.644531 -12.054688 13.738281 -12.078125 13.84375 -12.078125 C 14.15625 -12.078125 14.429688 -11.957031 14.671875 -11.71875 C 14.921875 -11.476562 15.054688 -11.265625 15.078125 -11.078125 C 15.109375 -11.023438 14.253906 -9.707031 12.515625 -7.125 C 10.785156 -4.582031 10 -2.859375 10.15625 -1.953125 C 10.289062 -1.347656 10.585938 -1.046875 11.046875 -1.046875 C 12.429688 -1.046875 14.960938 -3.335938 18.640625 -7.921875 C 18.722656 -8.023438 18.800781 -8.078125 18.875 -8.078125 C 19.007812 -8.078125 19.078125 -7.984375 19.078125 -7.796875 C 19.078125 -7.585938 18.957031 -7.320312 18.71875 -7 C 15.332031 -2.4375 12.734375 -0.15625 10.921875 -0.15625 C 10.679688 -0.15625 10.453125 -0.195312 10.234375 -0.28125 C 9.066406 -0.726562 8.484375 -1.609375 8.484375 -2.921875 C 8.484375 -3.367188 8.535156 -3.820312 8.640625 -4.28125 L 6.15625 -1.875 C 5.414062 -1.132812 4.742188 -0.601562 4.140625 -0.28125 C 3.535156 0.0390625 3.050781 0.203125 2.6875 0.203125 Z M 2.3125 -0.6875 C 3.863281 -0.6875 5.972656 -2.378906 8.640625 -5.765625 L 12.875 -11.59375 C 12.664062 -11.96875 12.320312 -12.15625 11.84375 -12.15625 C 10.21875 -12.15625 8.015625 -10.847656 5.234375 -8.234375 C 2.359375 -5.566406 1.066406 -3.367188 1.359375 -1.640625 C 1.492188 -1.003906 1.8125 -0.6875 2.3125 -0.6875 Z M 2.3125 -0.6875 "/></g></g></g></svg>