<svg xmlns="http://www.w3.org/2000/svg" xmlns:xlink="http://www.w3.org/1999/xlink" width="1920" zoomAndPan="magnify" viewBox="0 0 1440 809.999993" height="1080" preserveAspectRatio="xMidYMid meet" version="1.0"><defs><filter x="0%" y="0%" width="100%" height="100%" id="391619984c"><feColorMatrix values="0 0 0 0 1 0 0 0 0 1 0 0 0 0 1 0 0 0 1 0" color-interpolation-filters="sRGB"/></filter><g/><mask id="558e6ce445"><g filter="url(#391619984c)"><rect x="-144" width="1728" fill="#000000" y="-80.999999" height="971.999992" fill-opacity="0.58"/></g></mask><clipPath id="c59bea97ba"><path d="M 0.96875 1.007812 L 687.03125 1.007812 L 687.03125 687.074219 L 0.96875 687.074219 Z M 0.96875 1.007812 " clip-rule="nonzero"/></clipPath><clipPath id="4709ca1bab"><path d="M 344 1.007812 C 154.550781 1.007812 0.96875 154.589844 0.96875 344.039062 C 0.96875 533.492188 154.550781 687.074219 344 687.074219 C 533.449219 687.074219 687.03125 533.492188 687.03125 344.039062 C 687.03125 154.589844 533.449219 1.007812 344 1.007812 Z M 344 1.007812 " clip-rule="nonzero"/></clipPath><clipPath id="e15f9ebceb"><rect x="0" width="688" y="0" height="688"/></clipPath><clipPath id="54fd0e9fa2"><path d="M 376.96875 81.007812 L 1063.503906 81.007812 L 1063.503906 767.542969 L 376.96875 767.542969 Z M 376.96875 81.007812 " clip-rule="nonzero"/></clipPath><clipPath id="5d6c98e807"><path d="M 1063.503906 424.277344 C 1063.503906 429.894531 1063.367188 435.507812 1063.089844 441.121094 C 1062.816406 446.730469 1062.402344 452.332031 1061.851562 457.921875 C 1061.300781 463.515625 1060.613281 469.089844 1059.789062 474.644531 C 1058.964844 480.203125 1058.003906 485.734375 1056.90625 491.246094 C 1055.8125 496.753906 1054.582031 502.234375 1053.214844 507.683594 C 1051.851562 513.132812 1050.355469 518.546875 1048.722656 523.921875 C 1047.09375 529.296875 1045.332031 534.632812 1043.4375 539.921875 C 1041.546875 545.210938 1039.523438 550.449219 1037.375 555.640625 C 1035.222656 560.832031 1032.949219 565.964844 1030.546875 571.042969 C 1028.144531 576.121094 1025.621094 581.136719 1022.972656 586.09375 C 1020.324219 591.046875 1017.554688 595.933594 1014.667969 600.753906 C 1011.777344 605.570312 1008.773438 610.316406 1005.652344 614.988281 C 1002.53125 619.65625 999.296875 624.25 995.953125 628.761719 C 992.605469 633.273438 989.148438 637.703125 985.585938 642.042969 C 982.023438 646.386719 978.351562 650.640625 974.582031 654.800781 C 970.808594 658.964844 966.933594 663.03125 962.964844 667.003906 C 958.992188 670.976562 954.921875 674.847656 950.761719 678.621094 C 946.597656 682.394531 942.34375 686.0625 938.003906 689.625 C 933.660156 693.191406 929.234375 696.644531 924.71875 699.992188 C 920.207031 703.339844 915.617188 706.574219 910.945312 709.695312 C 906.273438 712.816406 901.53125 715.820312 896.710938 718.707031 C 891.890625 721.597656 887.007812 724.363281 882.050781 727.011719 C 877.097656 729.660156 872.082031 732.183594 867.003906 734.585938 C 861.921875 736.988281 856.789062 739.265625 851.597656 741.414062 C 846.410156 743.566406 841.167969 745.585938 835.878906 747.480469 C 830.589844 749.371094 825.257812 751.132812 819.882812 752.765625 C 814.503906 754.394531 809.09375 755.890625 803.644531 757.257812 C 798.195312 758.621094 792.714844 759.851562 787.203125 760.949219 C 781.695312 762.046875 776.160156 763.003906 770.605469 763.828125 C 765.046875 764.652344 759.472656 765.339844 753.882812 765.890625 C 748.292969 766.441406 742.691406 766.855469 737.078125 767.132812 C 731.46875 767.40625 725.855469 767.542969 720.234375 767.542969 C 714.617188 767.542969 709.003906 767.40625 703.394531 767.132812 C 697.78125 766.855469 692.179688 766.441406 686.589844 765.890625 C 681 765.339844 675.425781 764.652344 669.867188 763.828125 C 664.3125 763.003906 658.777344 762.046875 653.269531 760.949219 C 647.757812 759.851562 642.277344 758.621094 636.828125 757.257812 C 631.378906 755.890625 625.964844 754.394531 620.589844 752.765625 C 615.214844 751.132812 609.882812 749.371094 604.59375 747.480469 C 599.304688 745.585938 594.0625 743.566406 588.875 741.414062 C 583.683594 739.265625 578.546875 736.988281 573.46875 734.585938 C 568.390625 732.183594 563.375 729.660156 558.421875 727.011719 C 553.464844 724.363281 548.578125 721.597656 543.761719 718.707031 C 538.941406 715.820312 534.199219 712.816406 529.527344 709.695312 C 524.855469 706.574219 520.265625 703.339844 515.75 699.992188 C 511.238281 696.644531 506.8125 693.191406 502.46875 689.625 C 498.125 686.0625 493.875 682.394531 489.710938 678.621094 C 485.550781 674.847656 481.480469 670.976562 477.507812 667.003906 C 473.535156 663.03125 469.664062 658.964844 465.890625 654.800781 C 462.117188 650.640625 458.449219 646.386719 454.886719 642.042969 C 451.324219 637.703125 447.867188 633.273438 444.519531 628.761719 C 441.175781 624.25 437.941406 619.65625 434.820312 614.988281 C 431.699219 610.316406 428.695312 605.570312 425.804688 600.753906 C 422.917969 595.933594 420.148438 591.046875 417.5 586.09375 C 414.851562 581.136719 412.328125 576.121094 409.925781 571.042969 C 407.523438 565.964844 405.246094 560.832031 403.097656 555.640625 C 400.949219 550.449219 398.925781 545.210938 397.035156 539.921875 C 395.140625 534.632812 393.378906 529.296875 391.75 523.921875 C 390.117188 518.546875 388.621094 513.132812 387.253906 507.683594 C 385.890625 502.234375 384.660156 496.753906 383.5625 491.246094 C 382.46875 485.734375 381.507812 480.203125 380.683594 474.644531 C 379.859375 469.089844 379.171875 463.515625 378.621094 457.921875 C 378.070312 452.332031 377.65625 446.730469 377.382812 441.121094 C 377.105469 435.507812 376.96875 429.894531 376.96875 424.277344 C 376.96875 418.660156 377.105469 413.042969 377.382812 407.433594 C 377.65625 401.824219 378.070312 396.222656 378.621094 390.632812 C 379.171875 385.039062 379.859375 379.464844 380.683594 373.910156 C 381.507812 368.351562 382.46875 362.820312 383.5625 357.308594 C 384.660156 351.800781 385.890625 346.320312 387.253906 340.871094 C 388.621094 335.421875 390.117188 330.007812 391.75 324.632812 C 393.378906 319.253906 395.140625 313.921875 397.035156 308.632812 C 398.925781 303.34375 400.949219 298.105469 403.097656 292.914062 C 405.246094 287.722656 407.523438 282.589844 409.925781 277.511719 C 412.328125 272.433594 414.851562 267.417969 417.5 262.460938 C 420.148438 257.507812 422.917969 252.621094 425.804688 247.800781 C 428.695312 242.984375 431.699219 238.238281 434.820312 233.566406 C 437.941406 228.898438 441.175781 224.304688 444.519531 219.792969 C 447.867188 215.28125 451.324219 210.851562 454.886719 206.511719 C 458.449219 202.167969 462.117188 197.914062 465.890625 193.753906 C 469.664062 189.589844 473.535156 185.523438 477.507812 181.550781 C 481.480469 177.578125 485.550781 173.707031 489.710938 169.933594 C 493.875 166.160156 498.125 162.492188 502.46875 158.925781 C 506.8125 155.363281 511.238281 151.910156 515.75 148.5625 C 520.265625 145.214844 524.855469 141.980469 529.527344 138.859375 C 534.199219 135.738281 538.941406 132.734375 543.761719 129.847656 C 548.578125 126.957031 553.464844 124.191406 558.421875 121.542969 C 563.375 118.894531 568.390625 116.367188 573.46875 113.964844 C 578.546875 111.566406 583.683594 109.289062 588.875 107.140625 C 594.0625 104.988281 599.304688 102.96875 604.59375 101.074219 C 609.882812 99.183594 615.214844 97.421875 620.589844 95.789062 C 625.964844 94.160156 631.378906 92.660156 636.828125 91.296875 C 642.277344 89.929688 647.757812 88.699219 653.269531 87.605469 C 658.777344 86.507812 664.3125 85.550781 669.867188 84.726562 C 675.425781 83.902344 681 83.214844 686.589844 82.664062 C 692.179688 82.113281 697.78125 81.699219 703.394531 81.421875 C 709.003906 81.148438 714.617188 81.007812 720.234375 81.007812 C 725.855469 81.007812 731.46875 81.148438 737.078125 81.421875 C 742.691406 81.699219 748.292969 82.113281 753.882812 82.664062 C 759.472656 83.214844 765.046875 83.902344 770.605469 84.726562 C 776.160156 85.550781 781.695312 86.507812 787.203125 87.605469 C 792.714844 88.699219 798.195312 89.929688 803.644531 91.296875 C 809.09375 92.660156 814.503906 94.160156 819.882812 95.789062 C 825.257812 97.421875 830.589844 99.183594 835.878906 101.074219 C 841.167969 102.96875 846.410156 104.988281 851.597656 107.140625 C 856.789062 109.289062 861.921875 111.566406 867.003906 113.964844 C 872.082031 116.367188 877.097656 118.894531 882.050781 121.542969 C 887.007812 124.191406 891.890625 126.957031 896.710938 129.847656 C 901.53125 132.734375 906.273438 135.738281 910.945312 138.859375 C 915.617188 141.980469 920.207031 145.214844 924.71875 148.5625 C 929.234375 151.910156 933.660156 155.363281 938.003906 158.925781 C 942.34375 162.492188 946.597656 166.160156 950.761719 169.933594 C 954.921875 173.707031 958.992188 177.578125 962.964844 181.550781 C 966.933594 185.523438 970.808594 189.589844 974.582031 193.753906 C 978.351562 197.914062 982.023438 202.167969 985.585938 206.511719 C 989.148438 210.851562 992.605469 215.28125 995.953125 219.792969 C 999.296875 224.304688 1002.53125 228.898438 1005.652344 233.566406 C 1008.773438 238.238281 1011.777344 242.984375 1014.667969 247.800781 C 1017.554688 252.621094 1020.324219 257.507812 1022.972656 262.460938 C 1025.621094 267.417969 1028.144531 272.433594 1030.546875 277.511719 C 1032.949219 282.589844 1035.222656 287.722656 1037.375 292.914062 C 1039.523438 298.105469 1041.546875 303.34375 1043.4375 308.632812 C 1045.332031 313.921875 1047.09375 319.253906 1048.722656 324.632812 C 1050.355469 330.007812 1051.851562 335.421875 1053.214844 340.871094 C 1054.582031 346.320312 1055.8125 351.800781 1056.90625 357.308594 C 1058.003906 362.820312 1058.964844 368.351562 1059.789062 373.910156 C 1060.613281 379.464844 1061.300781 385.039062 1061.851562 390.632812 C 1062.402344 396.222656 1062.816406 401.824219 1063.089844 407.433594 C 1063.367188 413.042969 1063.503906 418.660156 1063.503906 424.277344 Z M 1063.503906 424.277344 " clip-rule="nonzero"/></clipPath><linearGradient x1="0.000000251044" gradientTransform="matrix(10.727118, 0, 0, 10.727118, 376.968383, 81.009359)" y1="32" x2="63.999997" gradientUnits="userSpaceOnUse" y2="32" id="1041be4a36"><stop stop-opacity="1" stop-color="rgb(99.998474%, 23.498535%, 67.498779%)" offset="0"/><stop stop-opacity="1" stop-color="rgb(99.584961%, 23.544312%, 67.460632%)" offset="0.00390625"/><stop stop-opacity="1" stop-color="rgb(99.172974%, 23.591614%, 67.424011%)" offset="0.0078125"/><stop stop-opacity="1" stop-color="rgb(98.75946%, 23.63739%, 67.385864%)" offset="0.0117188"/><stop stop-opacity="1" stop-color="rgb(98.345947%, 23.683167%, 67.349243%)" offset="0.015625"/><stop stop-opacity="1" stop-color="rgb(97.932434%, 23.728943%, 67.311096%)" offset="0.0195312"/><stop stop-opacity="1" stop-color="rgb(97.518921%, 23.776245%, 67.274475%)" offset="0.0234375"/><stop stop-opacity="1" stop-color="rgb(97.105408%, 23.822021%, 67.236328%)" offset="0.0273438"/><stop stop-opacity="1" stop-color="rgb(96.69342%, 23.867798%, 67.199707%)" offset="0.03125"/><stop stop-opacity="1" stop-color="rgb(96.279907%, 23.913574%, 67.16156%)" offset="0.0351562"/><stop stop-opacity="1" stop-color="rgb(95.866394%, 23.960876%, 67.124939%)" offset="0.0390625"/><stop stop-opacity="1" stop-color="rgb(95.452881%, 24.006653%, 67.086792%)" offset="0.0429688"/><stop stop-opacity="1" stop-color="rgb(95.039368%, 24.052429%, 67.048645%)" offset="0.046875"/><stop stop-opacity="1" stop-color="rgb(94.625854%, 24.098206%, 67.010498%)" offset="0.0507812"/><stop stop-opacity="1" stop-color="rgb(94.213867%, 24.143982%, 66.973877%)" offset="0.0546875"/><stop stop-opacity="1" stop-color="rgb(93.800354%, 24.189758%, 66.93573%)" offset="0.0585938"/><stop stop-opacity="1" stop-color="rgb(93.386841%, 24.237061%, 66.899109%)" offset="0.0625"/><stop stop-opacity="1" stop-color="rgb(92.973328%, 24.282837%, 66.860962%)" offset="0.0664062"/><stop stop-opacity="1" stop-color="rgb(92.559814%, 24.328613%, 66.824341%)" offset="0.0703125"/><stop stop-opacity="1" stop-color="rgb(92.146301%, 24.37439%, 66.786194%)" offset="0.0742188"/><stop stop-opacity="1" stop-color="rgb(91.734314%, 24.421692%, 66.749573%)" offset="0.078125"/><stop stop-opacity="1" stop-color="rgb(91.320801%, 24.467468%, 66.711426%)" offset="0.0820312"/><stop stop-opacity="1" stop-color="rgb(90.907288%, 24.513245%, 66.674805%)" offset="0.0859375"/><stop stop-opacity="1" stop-color="rgb(90.493774%, 24.559021%, 66.636658%)" offset="0.0898438"/><stop stop-opacity="1" stop-color="rgb(90.080261%, 24.604797%, 66.598511%)" offset="0.09375"/><stop stop-opacity="1" stop-color="rgb(89.666748%, 24.650574%, 66.560364%)" offset="0.0976562"/><stop stop-opacity="1" stop-color="rgb(89.253235%, 24.697876%, 66.523743%)" offset="0.101562"/><stop stop-opacity="1" stop-color="rgb(88.839722%, 24.743652%, 66.485596%)" offset="0.105469"/><stop stop-opacity="1" stop-color="rgb(88.427734%, 24.789429%, 66.448975%)" offset="0.109375"/><stop stop-opacity="1" stop-color="rgb(88.014221%, 24.835205%, 66.410828%)" offset="0.113281"/><stop stop-opacity="1" stop-color="rgb(87.600708%, 24.882507%, 66.374207%)" offset="0.117188"/><stop stop-opacity="1" stop-color="rgb(87.187195%, 24.928284%, 66.33606%)" offset="0.121094"/><stop stop-opacity="1" stop-color="rgb(86.773682%, 24.97406%, 66.299438%)" offset="0.125"/><stop stop-opacity="1" stop-color="rgb(86.360168%, 25.019836%, 66.261292%)" offset="0.128906"/><stop stop-opacity="1" stop-color="rgb(85.948181%, 25.067139%, 66.22467%)" offset="0.132812"/><stop stop-opacity="1" stop-color="rgb(85.534668%, 25.112915%, 66.186523%)" offset="0.136719"/><stop stop-opacity="1" stop-color="rgb(85.121155%, 25.158691%, 66.149902%)" offset="0.140625"/><stop stop-opacity="1" stop-color="rgb(84.707642%, 25.204468%, 66.111755%)" offset="0.144531"/><stop stop-opacity="1" stop-color="rgb(84.294128%, 25.250244%, 66.073608%)" offset="0.148438"/><stop stop-opacity="1" stop-color="rgb(83.880615%, 25.296021%, 66.035461%)" offset="0.152344"/><stop stop-opacity="1" stop-color="rgb(83.468628%, 25.343323%, 65.99884%)" offset="0.15625"/><stop stop-opacity="1" stop-color="rgb(83.055115%, 25.389099%, 65.960693%)" offset="0.160156"/><stop stop-opacity="1" stop-color="rgb(82.641602%, 25.434875%, 65.924072%)" offset="0.164062"/><stop stop-opacity="1" stop-color="rgb(82.228088%, 25.480652%, 65.885925%)" offset="0.167969"/><stop stop-opacity="1" stop-color="rgb(81.814575%, 25.527954%, 65.849304%)" offset="0.171875"/><stop stop-opacity="1" stop-color="rgb(81.401062%, 25.57373%, 65.811157%)" offset="0.175781"/><stop stop-opacity="1" stop-color="rgb(80.987549%, 25.619507%, 65.774536%)" offset="0.179688"/><stop stop-opacity="1" stop-color="rgb(80.574036%, 25.665283%, 65.736389%)" offset="0.183594"/><stop stop-opacity="1" stop-color="rgb(80.162048%, 25.71106%, 65.699768%)" offset="0.1875"/><stop stop-opacity="1" stop-color="rgb(79.748535%, 25.756836%, 65.661621%)" offset="0.191406"/><stop stop-opacity="1" stop-color="rgb(79.335022%, 25.804138%, 65.625%)" offset="0.195312"/><stop stop-opacity="1" stop-color="rgb(78.921509%, 25.849915%, 65.586853%)" offset="0.199219"/><stop stop-opacity="1" stop-color="rgb(78.507996%, 25.895691%, 65.548706%)" offset="0.203125"/><stop stop-opacity="1" stop-color="rgb(78.094482%, 25.941467%, 65.510559%)" offset="0.207031"/><stop stop-opacity="1" stop-color="rgb(77.682495%, 25.98877%, 65.473938%)" offset="0.210938"/><stop stop-opacity="1" stop-color="rgb(77.268982%, 26.034546%, 65.435791%)" offset="0.214844"/><stop stop-opacity="1" stop-color="rgb(76.855469%, 26.080322%, 65.39917%)" offset="0.21875"/><stop stop-opacity="1" stop-color="rgb(76.441956%, 26.126099%, 65.361023%)" offset="0.222656"/><stop stop-opacity="1" stop-color="rgb(76.028442%, 26.173401%, 65.324402%)" offset="0.226562"/><stop stop-opacity="1" stop-color="rgb(75.614929%, 26.219177%, 65.286255%)" offset="0.230469"/><stop stop-opacity="1" stop-color="rgb(75.202942%, 26.264954%, 65.249634%)" offset="0.234375"/><stop stop-opacity="1" stop-color="rgb(74.789429%, 26.31073%, 65.211487%)" offset="0.238281"/><stop stop-opacity="1" stop-color="rgb(74.375916%, 26.356506%, 65.174866%)" offset="0.242188"/><stop stop-opacity="1" stop-color="rgb(73.962402%, 26.402283%, 65.136719%)" offset="0.246094"/><stop stop-opacity="1" stop-color="rgb(73.548889%, 26.449585%, 65.098572%)" offset="0.25"/><stop stop-opacity="1" stop-color="rgb(73.135376%, 26.495361%, 65.060425%)" offset="0.253906"/><stop stop-opacity="1" stop-color="rgb(72.723389%, 26.541138%, 65.023804%)" offset="0.257812"/><stop stop-opacity="1" stop-color="rgb(72.309875%, 26.586914%, 64.985657%)" offset="0.261719"/><stop stop-opacity="1" stop-color="rgb(71.896362%, 26.634216%, 64.949036%)" offset="0.265625"/><stop stop-opacity="1" stop-color="rgb(71.482849%, 26.679993%, 64.910889%)" offset="0.269531"/><stop stop-opacity="1" stop-color="rgb(71.069336%, 26.725769%, 64.874268%)" offset="0.273438"/><stop stop-opacity="1" stop-color="rgb(70.655823%, 26.771545%, 64.836121%)" offset="0.277344"/><stop stop-opacity="1" stop-color="rgb(70.24231%, 26.817322%, 64.7995%)" offset="0.28125"/><stop stop-opacity="1" stop-color="rgb(69.828796%, 26.863098%, 64.761353%)" offset="0.285156"/><stop stop-opacity="1" stop-color="rgb(69.416809%, 26.9104%, 64.724731%)" offset="0.289062"/><stop stop-opacity="1" stop-color="rgb(69.003296%, 26.956177%, 64.686584%)" offset="0.292969"/><stop stop-opacity="1" stop-color="rgb(68.589783%, 27.001953%, 64.649963%)" offset="0.296875"/><stop stop-opacity="1" stop-color="rgb(68.17627%, 27.047729%, 64.611816%)" offset="0.300781"/><stop stop-opacity="1" stop-color="rgb(67.762756%, 27.095032%, 64.573669%)" offset="0.304688"/><stop stop-opacity="1" stop-color="rgb(67.349243%, 27.140808%, 64.535522%)" offset="0.308594"/><stop stop-opacity="1" stop-color="rgb(66.937256%, 27.186584%, 64.498901%)" offset="0.3125"/><stop stop-opacity="1" stop-color="rgb(66.523743%, 27.232361%, 64.460754%)" offset="0.316406"/><stop stop-opacity="1" stop-color="rgb(66.110229%, 27.279663%, 64.424133%)" offset="0.320312"/><stop stop-opacity="1" stop-color="rgb(65.696716%, 27.325439%, 64.385986%)" offset="0.324219"/><stop stop-opacity="1" stop-color="rgb(65.283203%, 27.371216%, 64.349365%)" offset="0.328125"/><stop stop-opacity="1" stop-color="rgb(64.86969%, 27.416992%, 64.311218%)" offset="0.332031"/><stop stop-opacity="1" stop-color="rgb(64.457703%, 27.462769%, 64.274597%)" offset="0.335938"/><stop stop-opacity="1" stop-color="rgb(64.044189%, 27.508545%, 64.23645%)" offset="0.339844"/><stop stop-opacity="1" stop-color="rgb(63.630676%, 27.555847%, 64.199829%)" offset="0.34375"/><stop stop-opacity="1" stop-color="rgb(63.217163%, 27.601624%, 64.161682%)" offset="0.347656"/><stop stop-opacity="1" stop-color="rgb(62.80365%, 27.6474%, 64.123535%)" offset="0.351562"/><stop stop-opacity="1" stop-color="rgb(62.390137%, 27.693176%, 64.085388%)" offset="0.355469"/><stop stop-opacity="1" stop-color="rgb(61.976624%, 27.740479%, 64.048767%)" offset="0.359375"/><stop stop-opacity="1" stop-color="rgb(61.56311%, 27.786255%, 64.01062%)" offset="0.363281"/><stop stop-opacity="1" stop-color="rgb(61.151123%, 27.832031%, 63.973999%)" offset="0.367188"/><stop stop-opacity="1" stop-color="rgb(60.73761%, 27.877808%, 63.935852%)" offset="0.371094"/><stop stop-opacity="1" stop-color="rgb(60.324097%, 27.923584%, 63.899231%)" offset="0.375"/><stop stop-opacity="1" stop-color="rgb(59.910583%, 27.96936%, 63.861084%)" offset="0.378906"/><stop stop-opacity="1" stop-color="rgb(59.49707%, 28.016663%, 63.824463%)" offset="0.382812"/><stop stop-opacity="1" stop-color="rgb(59.083557%, 28.062439%, 63.786316%)" offset="0.386719"/><stop stop-opacity="1" stop-color="rgb(58.67157%, 28.108215%, 63.749695%)" offset="0.390625"/><stop stop-opacity="1" stop-color="rgb(58.258057%, 28.153992%, 63.711548%)" offset="0.394531"/><stop stop-opacity="1" stop-color="rgb(57.844543%, 28.201294%, 63.674927%)" offset="0.398438"/><stop stop-opacity="1" stop-color="rgb(57.43103%, 28.24707%, 63.63678%)" offset="0.402344"/><stop stop-opacity="1" stop-color="rgb(57.017517%, 28.292847%, 63.598633%)" offset="0.40625"/><stop stop-opacity="1" stop-color="rgb(56.604004%, 28.338623%, 63.560486%)" offset="0.410156"/><stop stop-opacity="1" stop-color="rgb(56.192017%, 28.385925%, 63.523865%)" offset="0.414062"/><stop stop-opacity="1" stop-color="rgb(55.778503%, 28.431702%, 63.485718%)" offset="0.417969"/><stop stop-opacity="1" stop-color="rgb(55.36499%, 28.477478%, 63.449097%)" offset="0.421875"/><stop stop-opacity="1" stop-color="rgb(54.951477%, 28.523254%, 63.41095%)" offset="0.425781"/><stop stop-opacity="1" stop-color="rgb(54.537964%, 28.569031%, 63.374329%)" offset="0.429688"/><stop stop-opacity="1" stop-color="rgb(54.124451%, 28.614807%, 63.336182%)" offset="0.433594"/><stop stop-opacity="1" stop-color="rgb(53.712463%, 28.662109%, 63.299561%)" offset="0.4375"/><stop stop-opacity="1" stop-color="rgb(53.29895%, 28.707886%, 63.261414%)" offset="0.441406"/><stop stop-opacity="1" stop-color="rgb(52.885437%, 28.753662%, 63.224792%)" offset="0.445312"/><stop stop-opacity="1" stop-color="rgb(52.471924%, 28.799438%, 63.186646%)" offset="0.449219"/><stop stop-opacity="1" stop-color="rgb(52.058411%, 28.846741%, 63.148499%)" offset="0.453125"/><stop stop-opacity="1" stop-color="rgb(51.644897%, 28.892517%, 63.110352%)" offset="0.457031"/><stop stop-opacity="1" stop-color="rgb(51.231384%, 28.938293%, 63.07373%)" offset="0.460938"/><stop stop-opacity="1" stop-color="rgb(50.817871%, 28.98407%, 63.035583%)" offset="0.464844"/><stop stop-opacity="1" stop-color="rgb(50.405884%, 29.029846%, 62.998962%)" offset="0.46875"/><stop stop-opacity="1" stop-color="rgb(49.992371%, 29.075623%, 62.960815%)" offset="0.472656"/><stop stop-opacity="1" stop-color="rgb(49.578857%, 29.122925%, 62.924194%)" offset="0.476562"/><stop stop-opacity="1" stop-color="rgb(49.165344%, 29.168701%, 62.886047%)" offset="0.480469"/><stop stop-opacity="1" stop-color="rgb(48.751831%, 29.214478%, 62.849426%)" offset="0.484375"/><stop stop-opacity="1" stop-color="rgb(48.338318%, 29.260254%, 62.811279%)" offset="0.488281"/><stop stop-opacity="1" stop-color="rgb(47.926331%, 29.307556%, 62.774658%)" offset="0.492188"/><stop stop-opacity="1" stop-color="rgb(47.512817%, 29.353333%, 62.736511%)" offset="0.496094"/><stop stop-opacity="1" stop-color="rgb(47.099304%, 29.399109%, 62.69989%)" offset="0.5"/><stop stop-opacity="1" stop-color="rgb(46.862793%, 29.579163%, 62.812805%)" offset="0.503906"/><stop stop-opacity="1" stop-color="rgb(46.627808%, 29.760742%, 62.927246%)" offset="0.507813"/><stop stop-opacity="1" stop-color="rgb(46.391296%, 29.940796%, 63.041687%)" offset="0.511719"/><stop stop-opacity="1" stop-color="rgb(46.154785%, 30.12085%, 63.156128%)" offset="0.515625"/><stop stop-opacity="1" stop-color="rgb(45.918274%, 30.300903%, 63.269043%)" offset="0.519531"/><stop stop-opacity="1" stop-color="rgb(45.683289%, 30.482483%, 63.383484%)" offset="0.523437"/><stop stop-opacity="1" stop-color="rgb(45.446777%, 30.662537%, 63.497925%)" offset="0.527344"/><stop stop-opacity="1" stop-color="rgb(45.211792%, 30.84259%, 63.612366%)" offset="0.53125"/><stop stop-opacity="1" stop-color="rgb(44.975281%, 31.022644%, 63.725281%)" offset="0.535156"/><stop stop-opacity="1" stop-color="rgb(44.740295%, 31.204224%, 63.839722%)" offset="0.539063"/><stop stop-opacity="1" stop-color="rgb(44.503784%, 31.384277%, 63.954163%)" offset="0.542969"/><stop stop-opacity="1" stop-color="rgb(44.267273%, 31.564331%, 64.068604%)" offset="0.546875"/><stop stop-opacity="1" stop-color="rgb(44.030762%, 31.744385%, 64.181519%)" offset="0.550781"/><stop stop-opacity="1" stop-color="rgb(43.795776%, 31.925964%, 64.295959%)" offset="0.554687"/><stop stop-opacity="1" stop-color="rgb(43.559265%, 32.106018%, 64.4104%)" offset="0.558594"/><stop stop-opacity="1" stop-color="rgb(43.32428%, 32.286072%, 64.524841%)" offset="0.5625"/><stop stop-opacity="1" stop-color="rgb(43.087769%, 32.466125%, 64.637756%)" offset="0.566406"/><stop stop-opacity="1" stop-color="rgb(42.852783%, 32.647705%, 64.752197%)" offset="0.570313"/><stop stop-opacity="1" stop-color="rgb(42.616272%, 32.827759%, 64.866638%)" offset="0.574219"/><stop stop-opacity="1" stop-color="rgb(42.379761%, 33.009338%, 64.981079%)" offset="0.578125"/><stop stop-opacity="1" stop-color="rgb(42.14325%, 33.189392%, 65.093994%)" offset="0.582031"/><stop stop-opacity="1" stop-color="rgb(41.908264%, 33.369446%, 65.208435%)" offset="0.585937"/><stop stop-opacity="1" stop-color="rgb(41.671753%, 33.5495%, 65.322876%)" offset="0.589844"/><stop stop-opacity="1" stop-color="rgb(41.436768%, 33.731079%, 65.437317%)" offset="0.59375"/><stop stop-opacity="1" stop-color="rgb(41.200256%, 33.911133%, 65.550232%)" offset="0.597656"/><stop stop-opacity="1" stop-color="rgb(40.965271%, 34.091187%, 65.664673%)" offset="0.601563"/><stop stop-opacity="1" stop-color="rgb(40.72876%, 34.27124%, 65.779114%)" offset="0.605469"/><stop stop-opacity="1" stop-color="rgb(40.492249%, 34.45282%, 65.893555%)" offset="0.609375"/><stop stop-opacity="1" stop-color="rgb(40.255737%, 34.632874%, 66.00647%)" offset="0.613281"/><stop stop-opacity="1" stop-color="rgb(40.020752%, 34.812927%, 66.120911%)" offset="0.617187"/><stop stop-opacity="1" stop-color="rgb(39.784241%, 34.992981%, 66.235352%)" offset="0.621094"/><stop stop-opacity="1" stop-color="rgb(39.549255%, 35.174561%, 66.349792%)" offset="0.625"/><stop stop-opacity="1" stop-color="rgb(39.312744%, 35.354614%, 66.462708%)" offset="0.628906"/><stop stop-opacity="1" stop-color="rgb(39.077759%, 35.534668%, 66.577148%)" offset="0.632813"/><stop stop-opacity="1" stop-color="rgb(38.841248%, 35.714722%, 66.691589%)" offset="0.636719"/><stop stop-opacity="1" stop-color="rgb(38.604736%, 35.896301%, 66.80603%)" offset="0.640625"/><stop stop-opacity="1" stop-color="rgb(38.368225%, 36.076355%, 66.918945%)" offset="0.644531"/><stop stop-opacity="1" stop-color="rgb(38.13324%, 36.256409%, 67.033386%)" offset="0.648437"/><stop stop-opacity="1" stop-color="rgb(37.896729%, 36.436462%, 67.147827%)" offset="0.652344"/><stop stop-opacity="1" stop-color="rgb(37.661743%, 36.618042%, 67.262268%)" offset="0.65625"/><stop stop-opacity="1" stop-color="rgb(37.425232%, 36.798096%, 67.375183%)" offset="0.660156"/><stop stop-opacity="1" stop-color="rgb(37.190247%, 36.979675%, 67.489624%)" offset="0.664063"/><stop stop-opacity="1" stop-color="rgb(36.953735%, 37.159729%, 67.604065%)" offset="0.667969"/><stop stop-opacity="1" stop-color="rgb(36.71875%, 37.339783%, 67.718506%)" offset="0.671875"/><stop stop-opacity="1" stop-color="rgb(36.482239%, 37.519836%, 67.831421%)" offset="0.675781"/><stop stop-opacity="1" stop-color="rgb(36.245728%, 37.701416%, 67.945862%)" offset="0.679687"/><stop stop-opacity="1" stop-color="rgb(36.009216%, 37.88147%, 68.060303%)" offset="0.683594"/><stop stop-opacity="1" stop-color="rgb(35.774231%, 38.061523%, 68.174744%)" offset="0.6875"/><stop stop-opacity="1" stop-color="rgb(35.53772%, 38.241577%, 68.287659%)" offset="0.691406"/><stop stop-opacity="1" stop-color="rgb(35.302734%, 38.423157%, 68.4021%)" offset="0.695313"/><stop stop-opacity="1" stop-color="rgb(35.066223%, 38.60321%, 68.516541%)" offset="0.699219"/><stop stop-opacity="1" stop-color="rgb(34.831238%, 38.783264%, 68.630981%)" offset="0.703125"/><stop stop-opacity="1" stop-color="rgb(34.594727%, 38.963318%, 68.743896%)" offset="0.707031"/><stop stop-opacity="1" stop-color="rgb(34.358215%, 39.144897%, 68.858337%)" offset="0.710937"/><stop stop-opacity="1" stop-color="rgb(34.121704%, 39.324951%, 68.972778%)" offset="0.714844"/><stop stop-opacity="1" stop-color="rgb(33.886719%, 39.505005%, 69.087219%)" offset="0.71875"/><stop stop-opacity="1" stop-color="rgb(33.650208%, 39.685059%, 69.200134%)" offset="0.722656"/><stop stop-opacity="1" stop-color="rgb(33.415222%, 39.866638%, 69.314575%)" offset="0.726563"/><stop stop-opacity="1" stop-color="rgb(33.178711%, 40.046692%, 69.429016%)" offset="0.730469"/><stop stop-opacity="1" stop-color="rgb(32.943726%, 40.226746%, 69.543457%)" offset="0.734375"/><stop stop-opacity="1" stop-color="rgb(32.707214%, 40.406799%, 69.656372%)" offset="0.738281"/><stop stop-opacity="1" stop-color="rgb(32.470703%, 40.588379%, 69.770813%)" offset="0.742187"/><stop stop-opacity="1" stop-color="rgb(32.234192%, 40.768433%, 69.885254%)" offset="0.746094"/><stop stop-opacity="1" stop-color="rgb(31.999207%, 40.948486%, 69.999695%)" offset="0.75"/><stop stop-opacity="1" stop-color="rgb(31.762695%, 41.12854%, 70.11261%)" offset="0.753906"/><stop stop-opacity="1" stop-color="rgb(31.52771%, 41.31012%, 70.227051%)" offset="0.757813"/><stop stop-opacity="1" stop-color="rgb(31.291199%, 41.490173%, 70.341492%)" offset="0.761719"/><stop stop-opacity="1" stop-color="rgb(31.056213%, 41.671753%, 70.455933%)" offset="0.765625"/><stop stop-opacity="1" stop-color="rgb(30.819702%, 41.851807%, 70.568848%)" offset="0.769531"/><stop stop-opacity="1" stop-color="rgb(30.583191%, 42.03186%, 70.683289%)" offset="0.773437"/><stop stop-opacity="1" stop-color="rgb(30.34668%, 42.211914%, 70.797729%)" offset="0.777344"/><stop stop-opacity="1" stop-color="rgb(30.111694%, 42.393494%, 70.91217%)" offset="0.78125"/><stop stop-opacity="1" stop-color="rgb(29.875183%, 42.573547%, 71.025085%)" offset="0.785156"/><stop stop-opacity="1" stop-color="rgb(29.640198%, 42.753601%, 71.139526%)" offset="0.789063"/><stop stop-opacity="1" stop-color="rgb(29.403687%, 42.933655%, 71.253967%)" offset="0.792969"/><stop stop-opacity="1" stop-color="rgb(29.168701%, 43.115234%, 71.368408%)" offset="0.796875"/><stop stop-opacity="1" stop-color="rgb(28.93219%, 43.295288%, 71.481323%)" offset="0.800781"/><stop stop-opacity="1" stop-color="rgb(28.695679%, 43.475342%, 71.595764%)" offset="0.804687"/><stop stop-opacity="1" stop-color="rgb(28.459167%, 43.655396%, 71.710205%)" offset="0.808594"/><stop stop-opacity="1" stop-color="rgb(28.224182%, 43.836975%, 71.824646%)" offset="0.8125"/><stop stop-opacity="1" stop-color="rgb(27.987671%, 44.017029%, 71.937561%)" offset="0.816406"/><stop stop-opacity="1" stop-color="rgb(27.752686%, 44.197083%, 72.052002%)" offset="0.820313"/><stop stop-opacity="1" stop-color="rgb(27.516174%, 44.377136%, 72.166443%)" offset="0.824219"/><stop stop-opacity="1" stop-color="rgb(27.281189%, 44.558716%, 72.280884%)" offset="0.828125"/><stop stop-opacity="1" stop-color="rgb(27.044678%, 44.73877%, 72.393799%)" offset="0.832031"/><stop stop-opacity="1" stop-color="rgb(26.808167%, 44.918823%, 72.50824%)" offset="0.835937"/><stop stop-opacity="1" stop-color="rgb(26.571655%, 45.098877%, 72.622681%)" offset="0.839844"/><stop stop-opacity="1" stop-color="rgb(26.33667%, 45.280457%, 72.737122%)" offset="0.84375"/><stop stop-opacity="1" stop-color="rgb(26.100159%, 45.46051%, 72.850037%)" offset="0.847656"/><stop stop-opacity="1" stop-color="rgb(25.865173%, 45.64209%, 72.964478%)" offset="0.851563"/><stop stop-opacity="1" stop-color="rgb(25.628662%, 45.822144%, 73.078918%)" offset="0.855469"/><stop stop-opacity="1" stop-color="rgb(25.393677%, 46.002197%, 73.193359%)" offset="0.859375"/><stop stop-opacity="1" stop-color="rgb(25.157166%, 46.182251%, 73.306274%)" offset="0.863281"/><stop stop-opacity="1" stop-color="rgb(24.920654%, 46.363831%, 73.420715%)" offset="0.867187"/><stop stop-opacity="1" stop-color="rgb(24.684143%, 46.543884%, 73.535156%)" offset="0.871094"/><stop stop-opacity="1" stop-color="rgb(24.449158%, 46.723938%, 73.649597%)" offset="0.875"/><stop stop-opacity="1" stop-color="rgb(24.212646%, 46.903992%, 73.762512%)" offset="0.878906"/><stop stop-opacity="1" stop-color="rgb(23.977661%, 47.085571%, 73.876953%)" offset="0.882813"/><stop stop-opacity="1" stop-color="rgb(23.74115%, 47.265625%, 73.991394%)" offset="0.886719"/><stop stop-opacity="1" stop-color="rgb(23.506165%, 47.445679%, 74.105835%)" offset="0.890625"/><stop stop-opacity="1" stop-color="rgb(23.269653%, 47.625732%, 74.21875%)" offset="0.894531"/><stop stop-opacity="1" stop-color="rgb(23.033142%, 47.807312%, 74.333191%)" offset="0.898437"/><stop stop-opacity="1" stop-color="rgb(22.796631%, 47.987366%, 74.447632%)" offset="0.902344"/><stop stop-opacity="1" stop-color="rgb(22.561646%, 48.167419%, 74.562073%)" offset="0.90625"/><stop stop-opacity="1" stop-color="rgb(22.325134%, 48.347473%, 74.674988%)" offset="0.910156"/><stop stop-opacity="1" stop-color="rgb(22.090149%, 48.529053%, 74.789429%)" offset="0.914063"/><stop stop-opacity="1" stop-color="rgb(21.853638%, 48.709106%, 74.90387%)" offset="0.917969"/><stop stop-opacity="1" stop-color="rgb(21.618652%, 48.88916%, 75.018311%)" offset="0.921875"/><stop stop-opacity="1" stop-color="rgb(21.382141%, 49.069214%, 75.131226%)" offset="0.925781"/><stop stop-opacity="1" stop-color="rgb(21.14563%, 49.250793%, 75.245667%)" offset="0.929687"/><stop stop-opacity="1" stop-color="rgb(20.909119%, 49.430847%, 75.360107%)" offset="0.933594"/><stop stop-opacity="1" stop-color="rgb(20.674133%, 49.612427%, 75.474548%)" offset="0.9375"/><stop stop-opacity="1" stop-color="rgb(20.437622%, 49.79248%, 75.587463%)" offset="0.941406"/><stop stop-opacity="1" stop-color="rgb(20.202637%, 49.972534%, 75.701904%)" offset="0.945313"/><stop stop-opacity="1" stop-color="rgb(19.966125%, 50.152588%, 75.816345%)" offset="0.949219"/><stop stop-opacity="1" stop-color="rgb(19.73114%, 50.334167%, 75.930786%)" offset="0.953125"/><stop stop-opacity="1" stop-color="rgb(19.494629%, 50.514221%, 76.043701%)" offset="0.957031"/><stop stop-opacity="1" stop-color="rgb(19.258118%, 50.694275%, 76.158142%)" offset="0.960937"/><stop stop-opacity="1" stop-color="rgb(19.021606%, 50.874329%, 76.272583%)" offset="0.964844"/><stop stop-opacity="1" stop-color="rgb(18.786621%, 51.055908%, 76.387024%)" offset="0.96875"/><stop stop-opacity="1" stop-color="rgb(18.55011%, 51.235962%, 76.499939%)" offset="0.972656"/><stop stop-opacity="1" stop-color="rgb(18.315125%, 51.416016%, 76.61438%)" offset="0.976563"/><stop stop-opacity="1" stop-color="rgb(18.078613%, 51.596069%, 76.728821%)" offset="0.980469"/><stop stop-opacity="1" stop-color="rgb(17.843628%, 51.777649%, 76.843262%)" offset="0.984375"/><stop stop-opacity="1" stop-color="rgb(17.607117%, 51.957703%, 76.956177%)" offset="0.988281"/><stop stop-opacity="1" stop-color="rgb(17.370605%, 52.137756%, 77.070618%)" offset="0.992187"/><stop stop-opacity="1" stop-color="rgb(17.134094%, 52.31781%, 77.185059%)" offset="0.996094"/><stop stop-opacity="1" stop-color="rgb(16.899109%, 52.49939%, 77.2995%)" offset="1"/></linearGradient><clipPath id="a87b3ca25d"><path d="M 505 225 L 935 225 L 935 624 L 505 624 Z M 505 225 " clip-rule="nonzero"/></clipPath><clipPath id="3251d5a83b"><path d="M 934.777344 307.296875 L 934.777344 623.460938 L 806.804688 623.460938 L 806.804688 307.296875 C 806.804688 306.554688 806.84375 305.816406 806.914062 305.082031 C 806.988281 304.34375 807.09375 303.613281 807.238281 302.890625 C 807.382812 302.164062 807.5625 301.445312 807.777344 300.738281 C 807.992188 300.03125 808.242188 299.335938 808.523438 298.652344 C 808.808594 297.96875 809.125 297.300781 809.472656 296.648438 C 809.820312 295.996094 810.199219 295.363281 810.613281 294.75 C 811.023438 294.132812 811.464844 293.539062 811.933594 292.96875 C 812.402344 292.398438 812.898438 291.847656 813.421875 291.328125 C 813.945312 290.804688 814.492188 290.308594 815.0625 289.835938 C 815.632812 289.367188 816.226562 288.929688 816.84375 288.519531 C 817.457031 288.105469 818.089844 287.726562 818.742188 287.378906 C 819.394531 287.03125 820.0625 286.714844 820.746094 286.429688 C 821.429688 286.148438 822.125 285.898438 822.832031 285.683594 C 823.542969 285.46875 824.257812 285.289062 824.984375 285.144531 C 825.707031 285 826.441406 284.894531 827.175781 284.820312 C 827.910156 284.746094 828.648438 284.710938 829.390625 284.710938 L 912.195312 284.710938 C 912.933594 284.710938 913.671875 284.746094 914.410156 284.820312 C 915.144531 284.894531 915.875 285 916.601562 285.144531 C 917.328125 285.289062 918.042969 285.46875 918.75 285.683594 C 919.457031 285.898438 920.152344 286.148438 920.835938 286.429688 C 921.519531 286.714844 922.1875 287.03125 922.839844 287.378906 C 923.492188 287.726562 924.125 288.105469 924.742188 288.515625 C 925.355469 288.929688 925.949219 289.367188 926.523438 289.835938 C 927.09375 290.308594 927.640625 290.804688 928.164062 291.324219 C 928.6875 291.847656 929.183594 292.394531 929.652344 292.96875 C 930.121094 293.539062 930.5625 294.132812 930.972656 294.75 C 931.382812 295.363281 931.761719 295.996094 932.113281 296.648438 C 932.460938 297.300781 932.777344 297.96875 933.058594 298.652344 C 933.34375 299.335938 933.589844 300.03125 933.804688 300.738281 C 934.019531 301.445312 934.199219 302.164062 934.34375 302.890625 C 934.488281 303.613281 934.597656 304.34375 934.667969 305.082031 C 934.742188 305.816406 934.777344 306.554688 934.777344 307.296875 Z M 761.640625 225.089844 L 678.832031 225.089844 C 678.09375 225.089844 677.355469 225.128906 676.621094 225.199219 C 675.882812 225.273438 675.152344 225.382812 674.425781 225.527344 C 673.703125 225.667969 672.984375 225.847656 672.277344 226.0625 C 671.570312 226.277344 670.875 226.527344 670.191406 226.808594 C 669.507812 227.09375 668.839844 227.410156 668.1875 227.757812 C 667.535156 228.105469 666.902344 228.488281 666.285156 228.898438 C 665.671875 229.308594 665.078125 229.75 664.507812 230.21875 C 663.933594 230.6875 663.386719 231.183594 662.863281 231.707031 C 662.339844 232.230469 661.84375 232.777344 661.375 233.347656 C 660.90625 233.917969 660.46875 234.511719 660.054688 235.128906 C 659.644531 235.742188 659.265625 236.375 658.917969 237.027344 C 658.566406 237.679688 658.253906 238.347656 657.96875 239.03125 C 657.6875 239.714844 657.4375 240.410156 657.222656 241.121094 C 657.007812 241.828125 656.828125 242.542969 656.683594 243.269531 C 656.539062 243.996094 656.429688 244.726562 656.359375 245.460938 C 656.285156 246.199219 656.25 246.933594 656.25 247.675781 L 656.25 623.460938 L 784.222656 623.460938 L 784.222656 247.675781 C 784.222656 246.933594 784.1875 246.199219 784.113281 245.460938 C 784.042969 244.726562 783.933594 243.996094 783.789062 243.269531 C 783.644531 242.542969 783.464844 241.828125 783.25 241.121094 C 783.035156 240.410156 782.785156 239.714844 782.503906 239.03125 C 782.21875 238.347656 781.90625 237.679688 781.554688 237.027344 C 781.207031 236.375 780.828125 235.742188 780.417969 235.128906 C 780.003906 234.511719 779.566406 233.921875 779.097656 233.347656 C 778.628906 232.777344 778.132812 232.230469 777.609375 231.707031 C 777.085938 231.183594 776.539062 230.6875 775.964844 230.21875 C 775.394531 229.75 774.800781 229.308594 774.1875 228.898438 C 773.570312 228.488281 772.9375 228.105469 772.285156 227.757812 C 771.632812 227.410156 770.964844 227.09375 770.28125 226.8125 C 769.597656 226.527344 768.902344 226.277344 768.195312 226.0625 C 767.488281 225.847656 766.769531 225.667969 766.042969 225.527344 C 765.320312 225.382812 764.589844 225.273438 763.851562 225.199219 C 763.117188 225.128906 762.378906 225.089844 761.640625 225.089844 Z M 611.082031 344.933594 L 528.277344 344.933594 C 527.539062 344.933594 526.800781 344.96875 526.0625 345.042969 C 525.328125 345.117188 524.597656 345.222656 523.871094 345.367188 C 523.144531 345.511719 522.429688 345.691406 521.722656 345.90625 C 521.015625 346.121094 520.316406 346.371094 519.636719 346.652344 C 518.953125 346.9375 518.285156 347.25 517.632812 347.601562 C 516.980469 347.949219 516.34375 348.328125 515.730469 348.738281 C 515.117188 349.152344 514.523438 349.589844 513.949219 350.058594 C 513.378906 350.53125 512.832031 351.027344 512.308594 351.546875 C 511.785156 352.070312 511.289062 352.617188 510.820312 353.191406 C 510.351562 353.761719 509.910156 354.355469 509.5 354.972656 C 509.089844 355.585938 508.710938 356.21875 508.359375 356.871094 C 508.011719 357.523438 507.695312 358.191406 507.414062 358.875 C 507.128906 359.558594 506.882812 360.253906 506.667969 360.960938 C 506.453125 361.667969 506.273438 362.386719 506.128906 363.113281 C 505.984375 363.835938 505.875 364.566406 505.800781 365.304688 C 505.730469 366.039062 505.695312 366.777344 505.695312 367.515625 L 505.695312 623.460938 L 633.667969 623.460938 L 633.667969 367.515625 C 633.667969 366.777344 633.628906 366.039062 633.558594 365.304688 C 633.484375 364.566406 633.375 363.835938 633.234375 363.113281 C 633.089844 362.386719 632.910156 361.667969 632.695312 360.960938 C 632.480469 360.253906 632.230469 359.558594 631.949219 358.875 C 631.664062 358.191406 631.347656 357.523438 631 356.871094 C 630.652344 356.21875 630.269531 355.585938 629.859375 354.972656 C 629.449219 354.355469 629.007812 353.761719 628.539062 353.191406 C 628.070312 352.617188 627.574219 352.070312 627.050781 351.546875 C 626.527344 351.027344 625.980469 350.53125 625.410156 350.058594 C 624.839844 349.589844 624.246094 349.152344 623.628906 348.738281 C 623.015625 348.328125 622.382812 347.949219 621.730469 347.601562 C 621.078125 347.253906 620.410156 346.9375 619.726562 346.652344 C 619.042969 346.371094 618.347656 346.121094 617.640625 345.90625 C 616.929688 345.691406 616.214844 345.511719 615.488281 345.367188 C 614.761719 345.222656 614.03125 345.117188 613.296875 345.042969 C 612.558594 344.96875 611.824219 344.933594 611.082031 344.933594 Z M 611.082031 344.933594 " clip-rule="nonzero"/></clipPath><linearGradient x1="12" gradientTransform="matrix(10.727118, 0, 0, 10.727118, 376.968383, 81.009359)" y1="32" x2="52.000002" gradientUnits="userSpaceOnUse" y2="32" id="661cfd9308"><stop stop-opacity="1" stop-color="rgb(100%, 23.498535%, 67.498779%)" offset="0"/><stop stop-opacity="1" stop-color="rgb(99.586487%, 23.544312%, 67.460632%)" offset="0.00390625"/><stop stop-opacity="1" stop-color="rgb(99.172974%, 23.591614%, 67.424011%)" offset="0.0078125"/><stop stop-opacity="1" stop-color="rgb(98.75946%, 23.63739%, 67.385864%)" offset="0.0117188"/><stop stop-opacity="1" stop-color="rgb(98.345947%, 23.683167%, 67.349243%)" offset="0.015625"/><stop stop-opacity="1" stop-color="rgb(97.932434%, 23.728943%, 67.311096%)" offset="0.0195312"/><stop stop-opacity="1" stop-color="rgb(97.518921%, 23.776245%, 67.274475%)" offset="0.0234375"/><stop stop-opacity="1" stop-color="rgb(97.105408%, 23.822021%, 67.236328%)" offset="0.0273438"/><stop stop-opacity="1" stop-color="rgb(96.69342%, 23.867798%, 67.199707%)" offset="0.03125"/><stop stop-opacity="1" stop-color="rgb(96.279907%, 23.913574%, 67.16156%)" offset="0.0351562"/><stop stop-opacity="1" stop-color="rgb(95.866394%, 23.960876%, 67.124939%)" offset="0.0390625"/><stop stop-opacity="1" stop-color="rgb(95.452881%, 24.006653%, 67.086792%)" offset="0.0429687"/><stop stop-opacity="1" stop-color="rgb(95.039368%, 24.052429%, 67.048645%)" offset="0.046875"/><stop stop-opacity="1" stop-color="rgb(94.625854%, 24.098206%, 67.010498%)" offset="0.0507813"/><stop stop-opacity="1" stop-color="rgb(94.213867%, 24.143982%, 66.973877%)" offset="0.0546875"/><stop stop-opacity="1" stop-color="rgb(93.800354%, 24.189758%, 66.93573%)" offset="0.0585938"/><stop stop-opacity="1" stop-color="rgb(93.386841%, 24.237061%, 66.899109%)" offset="0.0625"/><stop stop-opacity="1" stop-color="rgb(92.973328%, 24.282837%, 66.860962%)" offset="0.0664062"/><stop stop-opacity="1" stop-color="rgb(92.559814%, 24.328613%, 66.824341%)" offset="0.0703125"/><stop stop-opacity="1" stop-color="rgb(92.146301%, 24.37439%, 66.786194%)" offset="0.0742188"/><stop stop-opacity="1" stop-color="rgb(91.734314%, 24.421692%, 66.749573%)" offset="0.078125"/><stop stop-opacity="1" stop-color="rgb(91.320801%, 24.467468%, 66.711426%)" offset="0.0820312"/><stop stop-opacity="1" stop-color="rgb(90.907288%, 24.513245%, 66.674805%)" offset="0.0859375"/><stop stop-opacity="1" stop-color="rgb(90.493774%, 24.559021%, 66.636658%)" offset="0.0898438"/><stop stop-opacity="1" stop-color="rgb(90.080261%, 24.604797%, 66.598511%)" offset="0.09375"/><stop stop-opacity="1" stop-color="rgb(89.666748%, 24.650574%, 66.560364%)" offset="0.0976562"/><stop stop-opacity="1" stop-color="rgb(89.253235%, 24.697876%, 66.523743%)" offset="0.101563"/><stop stop-opacity="1" stop-color="rgb(88.839722%, 24.743652%, 66.485596%)" offset="0.105469"/><stop stop-opacity="1" stop-color="rgb(88.427734%, 24.789429%, 66.448975%)" offset="0.109375"/><stop stop-opacity="1" stop-color="rgb(88.014221%, 24.835205%, 66.410828%)" offset="0.113281"/><stop stop-opacity="1" stop-color="rgb(87.600708%, 24.882507%, 66.374207%)" offset="0.117188"/><stop stop-opacity="1" stop-color="rgb(87.187195%, 24.928284%, 66.33606%)" offset="0.121094"/><stop stop-opacity="1" stop-color="rgb(86.773682%, 24.97406%, 66.299438%)" offset="0.125"/><stop stop-opacity="1" stop-color="rgb(86.360168%, 25.019836%, 66.261292%)" offset="0.128906"/><stop stop-opacity="1" stop-color="rgb(85.948181%, 25.067139%, 66.22467%)" offset="0.132812"/><stop stop-opacity="1" stop-color="rgb(85.534668%, 25.112915%, 66.186523%)" offset="0.136719"/><stop stop-opacity="1" stop-color="rgb(85.121155%, 25.158691%, 66.149902%)" offset="0.140625"/><stop stop-opacity="1" stop-color="rgb(84.707642%, 25.204468%, 66.111755%)" offset="0.144531"/><stop stop-opacity="1" stop-color="rgb(84.294128%, 25.250244%, 66.073608%)" offset="0.148438"/><stop stop-opacity="1" stop-color="rgb(83.880615%, 25.296021%, 66.035461%)" offset="0.152344"/><stop stop-opacity="1" stop-color="rgb(83.468628%, 25.343323%, 65.99884%)" offset="0.15625"/><stop stop-opacity="1" stop-color="rgb(83.055115%, 25.389099%, 65.960693%)" offset="0.160156"/><stop stop-opacity="1" stop-color="rgb(82.641602%, 25.434875%, 65.924072%)" offset="0.164062"/><stop stop-opacity="1" stop-color="rgb(82.228088%, 25.480652%, 65.885925%)" offset="0.167969"/><stop stop-opacity="1" stop-color="rgb(81.814575%, 25.527954%, 65.849304%)" offset="0.171875"/><stop stop-opacity="1" stop-color="rgb(81.401062%, 25.57373%, 65.811157%)" offset="0.175781"/><stop stop-opacity="1" stop-color="rgb(80.987549%, 25.619507%, 65.774536%)" offset="0.179688"/><stop stop-opacity="1" stop-color="rgb(80.574036%, 25.665283%, 65.736389%)" offset="0.183594"/><stop stop-opacity="1" stop-color="rgb(80.162048%, 25.71106%, 65.699768%)" offset="0.1875"/><stop stop-opacity="1" stop-color="rgb(79.748535%, 25.756836%, 65.661621%)" offset="0.191406"/><stop stop-opacity="1" stop-color="rgb(79.335022%, 25.804138%, 65.623474%)" offset="0.195312"/><stop stop-opacity="1" stop-color="rgb(78.921509%, 25.849915%, 65.585327%)" offset="0.199219"/><stop stop-opacity="1" stop-color="rgb(78.507996%, 25.895691%, 65.548706%)" offset="0.203125"/><stop stop-opacity="1" stop-color="rgb(78.094482%, 25.941467%, 65.510559%)" offset="0.207031"/><stop stop-opacity="1" stop-color="rgb(77.682495%, 25.98877%, 65.473938%)" offset="0.210938"/><stop stop-opacity="1" stop-color="rgb(77.268982%, 26.034546%, 65.435791%)" offset="0.214844"/><stop stop-opacity="1" stop-color="rgb(76.855469%, 26.080322%, 65.39917%)" offset="0.21875"/><stop stop-opacity="1" stop-color="rgb(76.441956%, 26.126099%, 65.361023%)" offset="0.222656"/><stop stop-opacity="1" stop-color="rgb(76.028442%, 26.173401%, 65.324402%)" offset="0.226562"/><stop stop-opacity="1" stop-color="rgb(75.614929%, 26.219177%, 65.286255%)" offset="0.230469"/><stop stop-opacity="1" stop-color="rgb(75.202942%, 26.264954%, 65.249634%)" offset="0.234375"/><stop stop-opacity="1" stop-color="rgb(74.789429%, 26.31073%, 65.211487%)" offset="0.238281"/><stop stop-opacity="1" stop-color="rgb(74.375916%, 26.356506%, 65.174866%)" offset="0.242188"/><stop stop-opacity="1" stop-color="rgb(73.962402%, 26.402283%, 65.136719%)" offset="0.246094"/><stop stop-opacity="1" stop-color="rgb(73.548889%, 26.449585%, 65.098572%)" offset="0.25"/><stop stop-opacity="1" stop-color="rgb(73.135376%, 26.495361%, 65.060425%)" offset="0.253906"/><stop stop-opacity="1" stop-color="rgb(72.723389%, 26.541138%, 65.023804%)" offset="0.257812"/><stop stop-opacity="1" stop-color="rgb(72.309875%, 26.586914%, 64.985657%)" offset="0.261719"/><stop stop-opacity="1" stop-color="rgb(71.896362%, 26.634216%, 64.949036%)" offset="0.265625"/><stop stop-opacity="1" stop-color="rgb(71.482849%, 26.679993%, 64.910889%)" offset="0.269531"/><stop stop-opacity="1" stop-color="rgb(71.069336%, 26.725769%, 64.874268%)" offset="0.273438"/><stop stop-opacity="1" stop-color="rgb(70.655823%, 26.771545%, 64.836121%)" offset="0.277344"/><stop stop-opacity="1" stop-color="rgb(70.24231%, 26.817322%, 64.7995%)" offset="0.28125"/><stop stop-opacity="1" stop-color="rgb(69.828796%, 26.863098%, 64.761353%)" offset="0.285156"/><stop stop-opacity="1" stop-color="rgb(69.416809%, 26.9104%, 64.724731%)" offset="0.289062"/><stop stop-opacity="1" stop-color="rgb(69.003296%, 26.956177%, 64.686584%)" offset="0.292969"/><stop stop-opacity="1" stop-color="rgb(68.589783%, 27.001953%, 64.649963%)" offset="0.296875"/><stop stop-opacity="1" stop-color="rgb(68.17627%, 27.047729%, 64.611816%)" offset="0.300781"/><stop stop-opacity="1" stop-color="rgb(67.762756%, 27.095032%, 64.573669%)" offset="0.304688"/><stop stop-opacity="1" stop-color="rgb(67.349243%, 27.140808%, 64.535522%)" offset="0.308594"/><stop stop-opacity="1" stop-color="rgb(66.937256%, 27.186584%, 64.498901%)" offset="0.3125"/><stop stop-opacity="1" stop-color="rgb(66.523743%, 27.232361%, 64.460754%)" offset="0.316406"/><stop stop-opacity="1" stop-color="rgb(66.110229%, 27.279663%, 64.424133%)" offset="0.320312"/><stop stop-opacity="1" stop-color="rgb(65.696716%, 27.325439%, 64.385986%)" offset="0.324219"/><stop stop-opacity="1" stop-color="rgb(65.283203%, 27.371216%, 64.349365%)" offset="0.328125"/><stop stop-opacity="1" stop-color="rgb(64.86969%, 27.416992%, 64.311218%)" offset="0.332031"/><stop stop-opacity="1" stop-color="rgb(64.457703%, 27.462769%, 64.274597%)" offset="0.335938"/><stop stop-opacity="1" stop-color="rgb(64.044189%, 27.508545%, 64.23645%)" offset="0.339844"/><stop stop-opacity="1" stop-color="rgb(63.630676%, 27.555847%, 64.199829%)" offset="0.34375"/><stop stop-opacity="1" stop-color="rgb(63.217163%, 27.601624%, 64.161682%)" offset="0.347656"/><stop stop-opacity="1" stop-color="rgb(62.80365%, 27.6474%, 64.123535%)" offset="0.351562"/><stop stop-opacity="1" stop-color="rgb(62.390137%, 27.693176%, 64.085388%)" offset="0.355469"/><stop stop-opacity="1" stop-color="rgb(61.976624%, 27.740479%, 64.048767%)" offset="0.359375"/><stop stop-opacity="1" stop-color="rgb(61.56311%, 27.786255%, 64.01062%)" offset="0.363281"/><stop stop-opacity="1" stop-color="rgb(61.151123%, 27.832031%, 63.973999%)" offset="0.367188"/><stop stop-opacity="1" stop-color="rgb(60.73761%, 27.877808%, 63.935852%)" offset="0.371094"/><stop stop-opacity="1" stop-color="rgb(60.324097%, 27.923584%, 63.899231%)" offset="0.375"/><stop stop-opacity="1" stop-color="rgb(59.910583%, 27.96936%, 63.861084%)" offset="0.378906"/><stop stop-opacity="1" stop-color="rgb(59.49707%, 28.016663%, 63.824463%)" offset="0.382812"/><stop stop-opacity="1" stop-color="rgb(59.083557%, 28.062439%, 63.786316%)" offset="0.386719"/><stop stop-opacity="1" stop-color="rgb(58.67157%, 28.108215%, 63.749695%)" offset="0.390625"/><stop stop-opacity="1" stop-color="rgb(58.258057%, 28.153992%, 63.711548%)" offset="0.394531"/><stop stop-opacity="1" stop-color="rgb(57.844543%, 28.201294%, 63.674927%)" offset="0.398438"/><stop stop-opacity="1" stop-color="rgb(57.43103%, 28.24707%, 63.63678%)" offset="0.402344"/><stop stop-opacity="1" stop-color="rgb(57.017517%, 28.292847%, 63.598633%)" offset="0.40625"/><stop stop-opacity="1" stop-color="rgb(56.604004%, 28.338623%, 63.560486%)" offset="0.410156"/><stop stop-opacity="1" stop-color="rgb(56.192017%, 28.385925%, 63.523865%)" offset="0.414062"/><stop stop-opacity="1" stop-color="rgb(55.778503%, 28.431702%, 63.485718%)" offset="0.417969"/><stop stop-opacity="1" stop-color="rgb(55.36499%, 28.477478%, 63.449097%)" offset="0.421875"/><stop stop-opacity="1" stop-color="rgb(54.951477%, 28.523254%, 63.41095%)" offset="0.425781"/><stop stop-opacity="1" stop-color="rgb(54.537964%, 28.569031%, 63.374329%)" offset="0.429688"/><stop stop-opacity="1" stop-color="rgb(54.124451%, 28.614807%, 63.336182%)" offset="0.433594"/><stop stop-opacity="1" stop-color="rgb(53.712463%, 28.662109%, 63.299561%)" offset="0.4375"/><stop stop-opacity="1" stop-color="rgb(53.29895%, 28.707886%, 63.261414%)" offset="0.441406"/><stop stop-opacity="1" stop-color="rgb(52.885437%, 28.753662%, 63.224792%)" offset="0.445312"/><stop stop-opacity="1" stop-color="rgb(52.471924%, 28.799438%, 63.186646%)" offset="0.449219"/><stop stop-opacity="1" stop-color="rgb(52.058411%, 28.846741%, 63.148499%)" offset="0.453125"/><stop stop-opacity="1" stop-color="rgb(51.644897%, 28.892517%, 63.110352%)" offset="0.457031"/><stop stop-opacity="1" stop-color="rgb(51.231384%, 28.938293%, 63.07373%)" offset="0.460938"/><stop stop-opacity="1" stop-color="rgb(50.817871%, 28.98407%, 63.035583%)" offset="0.464844"/><stop stop-opacity="1" stop-color="rgb(50.405884%, 29.029846%, 62.998962%)" offset="0.46875"/><stop stop-opacity="1" stop-color="rgb(49.992371%, 29.075623%, 62.960815%)" offset="0.472656"/><stop stop-opacity="1" stop-color="rgb(49.578857%, 29.122925%, 62.924194%)" offset="0.476562"/><stop stop-opacity="1" stop-color="rgb(49.165344%, 29.168701%, 62.886047%)" offset="0.480469"/><stop stop-opacity="1" stop-color="rgb(48.751831%, 29.214478%, 62.849426%)" offset="0.484375"/><stop stop-opacity="1" stop-color="rgb(48.338318%, 29.260254%, 62.811279%)" offset="0.488281"/><stop stop-opacity="1" stop-color="rgb(47.926331%, 29.307556%, 62.774658%)" offset="0.492188"/><stop stop-opacity="1" stop-color="rgb(47.512817%, 29.353333%, 62.736511%)" offset="0.496094"/><stop stop-opacity="1" stop-color="rgb(47.099304%, 29.399109%, 62.69989%)" offset="0.5"/><stop stop-opacity="1" stop-color="rgb(46.862793%, 29.579163%, 62.812805%)" offset="0.503906"/><stop stop-opacity="1" stop-color="rgb(46.627808%, 29.760742%, 62.927246%)" offset="0.507812"/><stop stop-opacity="1" stop-color="rgb(46.391296%, 29.940796%, 63.041687%)" offset="0.511719"/><stop stop-opacity="1" stop-color="rgb(46.154785%, 30.12085%, 63.156128%)" offset="0.515625"/><stop stop-opacity="1" stop-color="rgb(45.918274%, 30.300903%, 63.269043%)" offset="0.519531"/><stop stop-opacity="1" stop-color="rgb(45.683289%, 30.482483%, 63.383484%)" offset="0.523438"/><stop stop-opacity="1" stop-color="rgb(45.446777%, 30.662537%, 63.497925%)" offset="0.527344"/><stop stop-opacity="1" stop-color="rgb(45.211792%, 30.84259%, 63.612366%)" offset="0.53125"/><stop stop-opacity="1" stop-color="rgb(44.975281%, 31.022644%, 63.725281%)" offset="0.535156"/><stop stop-opacity="1" stop-color="rgb(44.740295%, 31.204224%, 63.839722%)" offset="0.539062"/><stop stop-opacity="1" stop-color="rgb(44.503784%, 31.384277%, 63.954163%)" offset="0.542969"/><stop stop-opacity="1" stop-color="rgb(44.267273%, 31.564331%, 64.068604%)" offset="0.546875"/><stop stop-opacity="1" stop-color="rgb(44.030762%, 31.744385%, 64.181519%)" offset="0.550781"/><stop stop-opacity="1" stop-color="rgb(43.795776%, 31.925964%, 64.295959%)" offset="0.554688"/><stop stop-opacity="1" stop-color="rgb(43.559265%, 32.106018%, 64.4104%)" offset="0.558594"/><stop stop-opacity="1" stop-color="rgb(43.32428%, 32.286072%, 64.524841%)" offset="0.5625"/><stop stop-opacity="1" stop-color="rgb(43.087769%, 32.466125%, 64.637756%)" offset="0.566406"/><stop stop-opacity="1" stop-color="rgb(42.852783%, 32.647705%, 64.752197%)" offset="0.570312"/><stop stop-opacity="1" stop-color="rgb(42.616272%, 32.827759%, 64.866638%)" offset="0.574219"/><stop stop-opacity="1" stop-color="rgb(42.379761%, 33.009338%, 64.981079%)" offset="0.578125"/><stop stop-opacity="1" stop-color="rgb(42.14325%, 33.189392%, 65.093994%)" offset="0.582031"/><stop stop-opacity="1" stop-color="rgb(41.908264%, 33.369446%, 65.208435%)" offset="0.585938"/><stop stop-opacity="1" stop-color="rgb(41.671753%, 33.5495%, 65.322876%)" offset="0.589844"/><stop stop-opacity="1" stop-color="rgb(41.436768%, 33.731079%, 65.437317%)" offset="0.59375"/><stop stop-opacity="1" stop-color="rgb(41.200256%, 33.911133%, 65.550232%)" offset="0.597656"/><stop stop-opacity="1" stop-color="rgb(40.965271%, 34.091187%, 65.664673%)" offset="0.601562"/><stop stop-opacity="1" stop-color="rgb(40.72876%, 34.27124%, 65.779114%)" offset="0.605469"/><stop stop-opacity="1" stop-color="rgb(40.492249%, 34.45282%, 65.893555%)" offset="0.609375"/><stop stop-opacity="1" stop-color="rgb(40.255737%, 34.632874%, 66.00647%)" offset="0.613281"/><stop stop-opacity="1" stop-color="rgb(40.020752%, 34.812927%, 66.120911%)" offset="0.617188"/><stop stop-opacity="1" stop-color="rgb(39.784241%, 34.992981%, 66.235352%)" offset="0.621094"/><stop stop-opacity="1" stop-color="rgb(39.549255%, 35.174561%, 66.349792%)" offset="0.625"/><stop stop-opacity="1" stop-color="rgb(39.312744%, 35.354614%, 66.462708%)" offset="0.628906"/><stop stop-opacity="1" stop-color="rgb(39.077759%, 35.534668%, 66.577148%)" offset="0.632812"/><stop stop-opacity="1" stop-color="rgb(38.841248%, 35.714722%, 66.691589%)" offset="0.636719"/><stop stop-opacity="1" stop-color="rgb(38.604736%, 35.896301%, 66.80603%)" offset="0.640625"/><stop stop-opacity="1" stop-color="rgb(38.368225%, 36.076355%, 66.918945%)" offset="0.644531"/><stop stop-opacity="1" stop-color="rgb(38.13324%, 36.256409%, 67.033386%)" offset="0.648438"/><stop stop-opacity="1" stop-color="rgb(37.896729%, 36.436462%, 67.147827%)" offset="0.652344"/><stop stop-opacity="1" stop-color="rgb(37.661743%, 36.618042%, 67.262268%)" offset="0.65625"/><stop stop-opacity="1" stop-color="rgb(37.425232%, 36.798096%, 67.375183%)" offset="0.660156"/><stop stop-opacity="1" stop-color="rgb(37.190247%, 36.979675%, 67.489624%)" offset="0.664062"/><stop stop-opacity="1" stop-color="rgb(36.953735%, 37.159729%, 67.604065%)" offset="0.667969"/><stop stop-opacity="1" stop-color="rgb(36.717224%, 37.339783%, 67.718506%)" offset="0.671875"/><stop stop-opacity="1" stop-color="rgb(36.480713%, 37.519836%, 67.831421%)" offset="0.675781"/><stop stop-opacity="1" stop-color="rgb(36.245728%, 37.701416%, 67.945862%)" offset="0.679688"/><stop stop-opacity="1" stop-color="rgb(36.009216%, 37.88147%, 68.060303%)" offset="0.683594"/><stop stop-opacity="1" stop-color="rgb(35.774231%, 38.061523%, 68.174744%)" offset="0.6875"/><stop stop-opacity="1" stop-color="rgb(35.53772%, 38.241577%, 68.287659%)" offset="0.691406"/><stop stop-opacity="1" stop-color="rgb(35.302734%, 38.423157%, 68.4021%)" offset="0.695312"/><stop stop-opacity="1" stop-color="rgb(35.066223%, 38.60321%, 68.516541%)" offset="0.699219"/><stop stop-opacity="1" stop-color="rgb(34.831238%, 38.783264%, 68.630981%)" offset="0.703125"/><stop stop-opacity="1" stop-color="rgb(34.594727%, 38.963318%, 68.743896%)" offset="0.707031"/><stop stop-opacity="1" stop-color="rgb(34.358215%, 39.144897%, 68.858337%)" offset="0.710937"/><stop stop-opacity="1" stop-color="rgb(34.121704%, 39.324951%, 68.972778%)" offset="0.714844"/><stop stop-opacity="1" stop-color="rgb(33.886719%, 39.505005%, 69.087219%)" offset="0.71875"/><stop stop-opacity="1" stop-color="rgb(33.650208%, 39.685059%, 69.200134%)" offset="0.722656"/><stop stop-opacity="1" stop-color="rgb(33.415222%, 39.866638%, 69.314575%)" offset="0.726562"/><stop stop-opacity="1" stop-color="rgb(33.178711%, 40.046692%, 69.429016%)" offset="0.730469"/><stop stop-opacity="1" stop-color="rgb(32.943726%, 40.226746%, 69.543457%)" offset="0.734375"/><stop stop-opacity="1" stop-color="rgb(32.707214%, 40.406799%, 69.656372%)" offset="0.738281"/><stop stop-opacity="1" stop-color="rgb(32.470703%, 40.588379%, 69.770813%)" offset="0.742188"/><stop stop-opacity="1" stop-color="rgb(32.234192%, 40.768433%, 69.885254%)" offset="0.746094"/><stop stop-opacity="1" stop-color="rgb(31.999207%, 40.948486%, 69.999695%)" offset="0.75"/><stop stop-opacity="1" stop-color="rgb(31.762695%, 41.12854%, 70.11261%)" offset="0.753906"/><stop stop-opacity="1" stop-color="rgb(31.52771%, 41.31012%, 70.227051%)" offset="0.757812"/><stop stop-opacity="1" stop-color="rgb(31.291199%, 41.490173%, 70.341492%)" offset="0.761719"/><stop stop-opacity="1" stop-color="rgb(31.056213%, 41.671753%, 70.455933%)" offset="0.765625"/><stop stop-opacity="1" stop-color="rgb(30.819702%, 41.851807%, 70.568848%)" offset="0.769531"/><stop stop-opacity="1" stop-color="rgb(30.583191%, 42.03186%, 70.683289%)" offset="0.773438"/><stop stop-opacity="1" stop-color="rgb(30.34668%, 42.211914%, 70.797729%)" offset="0.777344"/><stop stop-opacity="1" stop-color="rgb(30.111694%, 42.393494%, 70.91217%)" offset="0.78125"/><stop stop-opacity="1" stop-color="rgb(29.875183%, 42.573547%, 71.025085%)" offset="0.785156"/><stop stop-opacity="1" stop-color="rgb(29.640198%, 42.753601%, 71.139526%)" offset="0.789063"/><stop stop-opacity="1" stop-color="rgb(29.403687%, 42.933655%, 71.253967%)" offset="0.792969"/><stop stop-opacity="1" stop-color="rgb(29.168701%, 43.115234%, 71.368408%)" offset="0.796875"/><stop stop-opacity="1" stop-color="rgb(28.93219%, 43.295288%, 71.481323%)" offset="0.800781"/><stop stop-opacity="1" stop-color="rgb(28.695679%, 43.475342%, 71.595764%)" offset="0.804688"/><stop stop-opacity="1" stop-color="rgb(28.459167%, 43.655396%, 71.710205%)" offset="0.808594"/><stop stop-opacity="1" stop-color="rgb(28.224182%, 43.836975%, 71.824646%)" offset="0.8125"/><stop stop-opacity="1" stop-color="rgb(27.987671%, 44.017029%, 71.937561%)" offset="0.816406"/><stop stop-opacity="1" stop-color="rgb(27.752686%, 44.197083%, 72.052002%)" offset="0.820312"/><stop stop-opacity="1" stop-color="rgb(27.516174%, 44.377136%, 72.166443%)" offset="0.824219"/><stop stop-opacity="1" stop-color="rgb(27.281189%, 44.558716%, 72.280884%)" offset="0.828125"/><stop stop-opacity="1" stop-color="rgb(27.044678%, 44.73877%, 72.393799%)" offset="0.832031"/><stop stop-opacity="1" stop-color="rgb(26.808167%, 44.918823%, 72.50824%)" offset="0.835938"/><stop stop-opacity="1" stop-color="rgb(26.571655%, 45.098877%, 72.622681%)" offset="0.839844"/><stop stop-opacity="1" stop-color="rgb(26.33667%, 45.280457%, 72.737122%)" offset="0.84375"/><stop stop-opacity="1" stop-color="rgb(26.100159%, 45.46051%, 72.850037%)" offset="0.847656"/><stop stop-opacity="1" stop-color="rgb(25.865173%, 45.64209%, 72.964478%)" offset="0.851562"/><stop stop-opacity="1" stop-color="rgb(25.628662%, 45.822144%, 73.078918%)" offset="0.855469"/><stop stop-opacity="1" stop-color="rgb(25.393677%, 46.002197%, 73.193359%)" offset="0.859375"/><stop stop-opacity="1" stop-color="rgb(25.157166%, 46.182251%, 73.306274%)" offset="0.863281"/><stop stop-opacity="1" stop-color="rgb(24.920654%, 46.363831%, 73.420715%)" offset="0.867188"/><stop stop-opacity="1" stop-color="rgb(24.684143%, 46.543884%, 73.535156%)" offset="0.871094"/><stop stop-opacity="1" stop-color="rgb(24.449158%, 46.723938%, 73.649597%)" offset="0.875"/><stop stop-opacity="1" stop-color="rgb(24.212646%, 46.903992%, 73.762512%)" offset="0.878906"/><stop stop-opacity="1" stop-color="rgb(23.977661%, 47.085571%, 73.876953%)" offset="0.882812"/><stop stop-opacity="1" stop-color="rgb(23.74115%, 47.265625%, 73.991394%)" offset="0.886719"/><stop stop-opacity="1" stop-color="rgb(23.506165%, 47.445679%, 74.105835%)" offset="0.890625"/><stop stop-opacity="1" stop-color="rgb(23.269653%, 47.625732%, 74.21875%)" offset="0.894531"/><stop stop-opacity="1" stop-color="rgb(23.033142%, 47.807312%, 74.333191%)" offset="0.898438"/><stop stop-opacity="1" stop-color="rgb(22.796631%, 47.987366%, 74.447632%)" offset="0.902344"/><stop stop-opacity="1" stop-color="rgb(22.561646%, 48.167419%, 74.562073%)" offset="0.90625"/><stop stop-opacity="1" stop-color="rgb(22.325134%, 48.347473%, 74.674988%)" offset="0.910156"/><stop stop-opacity="1" stop-color="rgb(22.090149%, 48.529053%, 74.789429%)" offset="0.914062"/><stop stop-opacity="1" stop-color="rgb(21.853638%, 48.709106%, 74.90387%)" offset="0.917969"/><stop stop-opacity="1" stop-color="rgb(21.618652%, 48.88916%, 75.018311%)" offset="0.921875"/><stop stop-opacity="1" stop-color="rgb(21.382141%, 49.069214%, 75.131226%)" offset="0.925781"/><stop stop-opacity="1" stop-color="rgb(21.14563%, 49.250793%, 75.245667%)" offset="0.929688"/><stop stop-opacity="1" stop-color="rgb(20.909119%, 49.430847%, 75.360107%)" offset="0.933594"/><stop stop-opacity="1" stop-color="rgb(20.674133%, 49.612427%, 75.474548%)" offset="0.9375"/><stop stop-opacity="1" stop-color="rgb(20.437622%, 49.79248%, 75.587463%)" offset="0.941406"/><stop stop-opacity="1" stop-color="rgb(20.202637%, 49.972534%, 75.701904%)" offset="0.945312"/><stop stop-opacity="1" stop-color="rgb(19.966125%, 50.152588%, 75.816345%)" offset="0.949219"/><stop stop-opacity="1" stop-color="rgb(19.73114%, 50.334167%, 75.930786%)" offset="0.953125"/><stop stop-opacity="1" stop-color="rgb(19.494629%, 50.514221%, 76.043701%)" offset="0.957031"/><stop stop-opacity="1" stop-color="rgb(19.258118%, 50.694275%, 76.158142%)" offset="0.960938"/><stop stop-opacity="1" stop-color="rgb(19.021606%, 50.874329%, 76.272583%)" offset="0.964844"/><stop stop-opacity="1" stop-color="rgb(18.786621%, 51.055908%, 76.387024%)" offset="0.96875"/><stop stop-opacity="1" stop-color="rgb(18.55011%, 51.235962%, 76.499939%)" offset="0.972656"/><stop stop-opacity="1" stop-color="rgb(18.315125%, 51.416016%, 76.61438%)" offset="0.976562"/><stop stop-opacity="1" stop-color="rgb(18.078613%, 51.596069%, 76.728821%)" offset="0.980469"/><stop stop-opacity="1" stop-color="rgb(17.843628%, 51.777649%, 76.843262%)" offset="0.984375"/><stop stop-opacity="1" stop-color="rgb(17.607117%, 51.957703%, 76.956177%)" offset="0.988281"/><stop stop-opacity="1" stop-color="rgb(17.370605%, 52.137756%, 77.070618%)" offset="0.992188"/><stop stop-opacity="1" stop-color="rgb(17.134094%, 52.31781%, 77.185059%)" offset="0.996094"/><stop stop-opacity="1" stop-color="rgb(16.899109%, 52.49939%, 77.2995%)" offset="1"/></linearGradient><clipPath id="4990608705"><path d="M 807.140625 374 L 931.160156 374 L 931.160156 619.691406 L 807.140625 619.691406 Z M 807.140625 374 " clip-rule="nonzero"/></clipPath></defs><g mask="url(#558e6ce445)"><g transform="matrix(1, 0, 0, 1, 376, 80)"><g clip-path="url(#e15f9ebceb)"><g clip-path="url(#c59bea97ba)"><g clip-path="url(#4709ca1bab)"><path fill="#d9d9d9" d="M 0.96875 1.007812 L 687.03125 1.007812 L 687.03125 687.074219 L 0.96875 687.074219 Z M 0.96875 1.007812 " fill-opacity="1" fill-rule="nonzero"/></g></g></g></g></g><g clip-path="url(#54fd0e9fa2)"><g clip-path="url(#5d6c98e807)"><path fill="url(#1041be4a36)" d="M 376.96875 81.007812 L 376.96875 767.542969 L 1063.503906 767.542969 L 1063.503906 81.007812 Z M 376.96875 81.007812 " fill-rule="nonzero"/></g></g><g clip-path="url(#a87b3ca25d)"><g clip-path="url(#3251d5a83b)"><path fill="url(#661cfd9308)" d="M 505.695312 225.089844 L 505.695312 623.460938 L 934.777344 623.460938 L 934.777344 225.089844 Z M 505.695312 225.089844 " fill-rule="nonzero"/></g></g><path fill="#ffffff" d="M 863.90625 452.707031 C 863.90625 462.4375 872.042969 470.328125 882.078125 470.328125 C 892.117188 470.328125 900.253906 462.4375 900.253906 452.707031 C 900.253906 442.976562 892.117188 435.085938 882.078125 435.085938 C 872.042969 435.085938 863.90625 442.976562 863.90625 452.707031 Z M 873.816406 462.367188 C 873.816406 462.367188 885.199219 462.914062 891.511719 457.722656 C 891.511719 457.722656 886.433594 473.042969 873.816406 462.367188 Z M 873.816406 462.367188 " fill-opacity="1" fill-rule="nonzero"/><g clip-path="url(#4990608705)"><path fill="#ffffff" d="M 813.304688 458 L 827.449219 442.675781 L 829.695312 465.714844 C 829.90625 467.867188 831.210938 469.757812 833.148438 470.71875 L 860.234375 484.144531 L 860.234375 527.09375 L 853.34375 609 C 852.894531 614.328125 856.988281 619 862.484375 619.433594 C 867.980469 619.867188 872.804688 615.902344 873.25 610.574219 L 879.25 539.246094 L 884.90625 539.246094 L 890.90625 610.574219 C 891.355469 615.902344 896.175781 619.871094 901.671875 619.433594 C 907.167969 619 911.261719 614.328125 910.816406 609 L 904.753906 536.949219 C 906.425781 536.820312 908.042969 536.035156 909.171875 534.621094 L 930.441406 507.996094 C 932.316406 505.644531 932.261719 502.296875 930.304688 500.011719 C 930.085938 499.757812 924.886719 493.691406 918.671875 487.53125 C 907.976562 476.917969 902.570312 474.25 899.007812 473.71875 C 898.582031 473.628906 898.136719 473.578125 897.683594 473.578125 L 867.136719 473.578125 L 841.832031 461.035156 L 838.835938 430.335938 L 848.851562 419.484375 C 859.105469 425.875 872.910156 424.289062 881.296875 415.199219 C 890.597656 405.125 889.710938 389.648438 879.320312 380.632812 C 868.925781 371.617188 852.964844 372.476562 843.664062 382.550781 C 835.277344 391.640625 835.179688 405.121094 842.863281 414.292969 L 835.03125 422.777344 C 834.042969 422.308594 832.917969 422.085938 831.746094 422.195312 C 828.300781 422.53125 825.78125 425.597656 826.117188 429.039062 L 826.417969 432.109375 L 807.316406 452.808594 Z M 917.371094 504.28125 L 903.925781 521.113281 L 903.925781 490.898438 C 907.804688 494.269531 912.660156 499.074219 917.371094 504.28125 Z M 848.511719 386.757812 C 855.414062 379.277344 867.265625 378.636719 874.980469 385.332031 C 882.695312 392.027344 883.355469 403.515625 876.449219 410.996094 C 869.546875 418.476562 857.695312 419.113281 849.980469 412.421875 C 842.265625 405.726562 841.605469 394.238281 848.511719 386.757812 Z M 848.511719 386.757812 " fill-opacity="1" fill-rule="nonzero"/></g><g fill="#0d009f" fill-opacity="1"><g transform="translate(534.280012, 680.77187)"><g><path d="M 14.6875 -37.71875 C 16 -37.71875 17.269531 -37.609375 18.5 -37.390625 C 19.726562 -37.171875 20.875 -36.894531 21.9375 -36.5625 C 23 -36.226562 23.960938 -35.851562 24.828125 -35.4375 C 25.691406 -35.019531 26.429688 -34.585938 27.046875 -34.140625 L 23.859375 -28.09375 C 23.421875 -28.3125 22.890625 -28.59375 22.265625 -28.9375 C 21.640625 -29.289062 20.96875 -29.632812 20.25 -29.96875 C 19.539062 -30.300781 18.8125 -30.578125 18.0625 -30.796875 C 17.3125 -31.015625 16.585938 -31.125 15.890625 -31.125 C 14.609375 -31.125 13.65625 -30.859375 13.03125 -30.328125 C 12.40625 -29.796875 12.09375 -29.125 12.09375 -28.3125 C 12.132812 -27.6875 12.28125 -27.132812 12.53125 -26.65625 C 12.789062 -26.1875 13.175781 -25.722656 13.6875 -25.265625 C 14.195312 -24.804688 14.851562 -24.359375 15.65625 -23.921875 C 16.46875 -23.484375 17.460938 -23.023438 18.640625 -22.546875 C 20.109375 -21.921875 21.390625 -21.273438 22.484375 -20.609375 C 23.585938 -19.953125 24.492188 -19.203125 25.203125 -18.359375 C 25.921875 -17.515625 26.460938 -16.5625 26.828125 -15.5 C 27.191406 -14.4375 27.375 -13.210938 27.375 -11.828125 C 27.375 -10.140625 27.070312 -8.550781 26.46875 -7.0625 C 25.863281 -5.582031 24.992188 -4.289062 23.859375 -3.1875 C 22.722656 -2.09375 21.347656 -1.234375 19.734375 -0.609375 C 18.117188 0.015625 16.304688 0.328125 14.296875 0.328125 C 12.867188 0.328125 11.503906 0.203125 10.203125 -0.046875 C 8.898438 -0.304688 7.695312 -0.640625 6.59375 -1.046875 C 5.5 -1.453125 4.492188 -1.882812 3.578125 -2.34375 C 2.660156 -2.800781 1.867188 -3.226562 1.203125 -3.625 L 4.171875 -10.109375 C 4.429688 -9.929688 4.910156 -9.628906 5.609375 -9.203125 C 6.304688 -8.785156 7.09375 -8.363281 7.96875 -7.9375 C 8.851562 -7.519531 9.753906 -7.144531 10.671875 -6.8125 C 11.585938 -6.488281 12.410156 -6.328125 13.140625 -6.328125 C 14.679688 -6.328125 15.804688 -6.679688 16.515625 -7.390625 C 17.234375 -8.109375 17.59375 -9.128906 17.59375 -10.453125 C 17.59375 -11.765625 17.144531 -12.757812 16.25 -13.4375 C 15.351562 -14.113281 14.078125 -14.785156 12.421875 -15.453125 C 10.804688 -16.109375 9.375 -16.800781 8.125 -17.53125 C 6.882812 -18.269531 5.832031 -19.097656 4.96875 -20.015625 C 4.113281 -20.929688 3.457031 -21.957031 3 -23.09375 C 2.539062 -24.226562 2.3125 -25.546875 2.3125 -27.046875 C 2.3125 -28.703125 2.648438 -30.179688 3.328125 -31.484375 C 4.003906 -32.785156 4.910156 -33.898438 6.046875 -34.828125 C 7.179688 -35.765625 8.488281 -36.476562 9.96875 -36.96875 C 11.457031 -37.46875 13.03125 -37.71875 14.6875 -37.71875 Z M 14.6875 -37.71875 "/></g></g></g><g fill="#0d009f" fill-opacity="1"><g transform="translate(563.197588, 680.77187)"><g><path d="M 26.234375 -13.25 C 26.234375 -11.050781 26.378906 -9.21875 26.671875 -7.75 C 26.960938 -6.28125 27.3125 -5.109375 27.71875 -4.234375 C 28.15625 -3.171875 28.664062 -2.347656 29.25 -1.765625 L 22.265625 0.4375 C 21.859375 0.0703125 21.492188 -0.382812 21.171875 -0.9375 C 20.878906 -1.414062 20.59375 -1.992188 20.3125 -2.671875 C 20.039062 -3.347656 19.8125 -4.144531 19.625 -5.0625 C 19 -3.332031 18.082031 -2 16.875 -1.0625 C 15.664062 -0.132812 14.070312 0.328125 12.09375 0.328125 C 10.300781 0.328125 8.734375 0 7.390625 -0.65625 C 6.054688 -1.320312 4.945312 -2.25 4.0625 -3.4375 C 3.1875 -4.625 2.535156 -6.0625 2.109375 -7.75 C 1.691406 -9.4375 1.484375 -11.304688 1.484375 -13.359375 C 1.484375 -15.453125 1.820312 -17.394531 2.5 -19.1875 C 3.175781 -20.988281 4.117188 -22.535156 5.328125 -23.828125 C 6.535156 -25.128906 7.984375 -26.144531 9.671875 -26.875 C 11.359375 -27.613281 13.226562 -27.984375 15.28125 -27.984375 C 16.414062 -27.984375 17.625 -27.898438 18.90625 -27.734375 C 20.195312 -27.566406 21.375 -27.382812 22.4375 -27.1875 C 23.5 -26.988281 24.382812 -26.804688 25.09375 -26.640625 C 25.8125 -26.472656 26.191406 -26.390625 26.234375 -26.390625 Z M 13.53125 -6.046875 C 14.070312 -6.046875 14.585938 -6.285156 15.078125 -6.765625 C 15.578125 -7.242188 16.007812 -7.882812 16.375 -8.6875 C 16.75 -9.488281 17.035156 -10.410156 17.234375 -11.453125 C 17.441406 -12.503906 17.546875 -13.617188 17.546875 -14.796875 L 17.546875 -21.171875 C 17.285156 -21.273438 16.925781 -21.375 16.46875 -21.46875 C 16.007812 -21.5625 15.613281 -21.609375 15.28125 -21.609375 C 14.40625 -21.609375 13.671875 -21.414062 13.078125 -21.03125 C 12.492188 -20.644531 12.023438 -20.113281 11.671875 -19.4375 C 11.328125 -18.757812 11.082031 -17.941406 10.9375 -16.984375 C 10.789062 -16.035156 10.71875 -15.007812 10.71875 -13.90625 C 10.71875 -12.882812 10.734375 -11.90625 10.765625 -10.96875 C 10.804688 -10.03125 10.925781 -9.195312 11.125 -8.46875 C 11.332031 -7.738281 11.617188 -7.148438 11.984375 -6.703125 C 12.347656 -6.265625 12.863281 -6.046875 13.53125 -6.046875 Z M 13.53125 -6.046875 "/></g></g></g><g fill="#0d009f" fill-opacity="1"><g transform="translate(593.104747, 680.77187)"><g><path d="M 17.921875 -31.828125 C 17.742188 -32.128906 17.441406 -32.429688 17.015625 -32.734375 C 16.597656 -33.046875 16.113281 -33.203125 15.5625 -33.203125 C 14.71875 -33.203125 14 -32.914062 13.40625 -32.34375 C 12.820312 -31.78125 12.53125 -30.96875 12.53125 -29.90625 C 12.53125 -29.0625 12.601562 -28.296875 12.75 -27.609375 L 19.796875 -27.609375 L 18.6875 -21 L 13.796875 -21 L 13.796875 -0.9375 C 13.796875 1.15625 13.472656 2.914062 12.828125 4.34375 C 12.191406 5.769531 11.378906 6.976562 10.390625 7.96875 C 9.398438 8.957031 8.289062 9.78125 7.0625 10.4375 C 5.832031 11.101562 4.648438 11.710938 3.515625 12.265625 L -0.4375 5.828125 C 1.320312 4.910156 2.6875 3.925781 3.65625 2.875 C 4.625 1.832031 5.109375 0.617188 5.109375 -0.765625 L 5.109375 -21 L 0.875 -21 L 0.875 -27.609375 L 5.109375 -27.609375 C 4.890625 -28.148438 4.71875 -28.710938 4.59375 -29.296875 C 4.46875 -29.890625 4.40625 -30.515625 4.40625 -31.171875 C 4.40625 -32.523438 4.640625 -33.722656 5.109375 -34.765625 C 5.585938 -35.816406 6.265625 -36.707031 7.140625 -37.4375 C 8.023438 -38.175781 9.0625 -38.738281 10.25 -39.125 C 11.445312 -39.507812 12.757812 -39.703125 14.1875 -39.703125 C 16.195312 -39.703125 17.796875 -39.367188 18.984375 -38.703125 C 20.179688 -38.046875 21.222656 -37.222656 22.109375 -36.234375 Z M 17.921875 -31.828125 "/></g></g></g><g fill="#0d009f" fill-opacity="1"><g transform="translate(613.391048, 680.77187)"><g><path d="M 1.484375 -13.03125 C 1.484375 -15.488281 1.835938 -17.660156 2.546875 -19.546875 C 3.265625 -21.429688 4.253906 -23.003906 5.515625 -24.265625 C 6.785156 -25.535156 8.265625 -26.5 9.953125 -27.15625 C 11.640625 -27.820312 13.472656 -28.15625 15.453125 -28.15625 C 17.171875 -28.15625 18.632812 -27.941406 19.84375 -27.515625 C 21.050781 -27.097656 22.039062 -26.515625 22.8125 -25.765625 C 23.582031 -25.015625 24.148438 -24.132812 24.515625 -23.125 C 24.890625 -22.113281 25.078125 -21.019531 25.078125 -19.84375 C 25.078125 -18.53125 24.742188 -17.285156 24.078125 -16.109375 C 23.421875 -14.929688 22.476562 -13.894531 21.25 -13 C 20.019531 -12.101562 18.535156 -11.359375 16.796875 -10.765625 C 15.054688 -10.179688 13.085938 -9.800781 10.890625 -9.625 C 11.140625 -8.519531 11.601562 -7.628906 12.28125 -6.953125 C 12.96875 -6.273438 14.003906 -5.9375 15.390625 -5.9375 C 16.203125 -5.9375 17.066406 -6.023438 17.984375 -6.203125 C 18.898438 -6.390625 19.742188 -6.59375 20.515625 -6.8125 C 21.429688 -7.070312 22.328125 -7.367188 23.203125 -7.703125 L 24.859375 -1.984375 C 23.867188 -1.503906 22.785156 -1.082031 21.609375 -0.71875 C 20.617188 -0.425781 19.472656 -0.148438 18.171875 0.109375 C 16.867188 0.367188 15.484375 0.5 14.015625 0.5 C 11.785156 0.5 9.875 0.171875 8.28125 -0.484375 C 6.6875 -1.148438 5.382812 -2.066406 4.375 -3.234375 C 3.363281 -4.410156 2.628906 -5.832031 2.171875 -7.5 C 1.710938 -9.164062 1.484375 -11.007812 1.484375 -13.03125 Z M 14.34375 -21.9375 C 13.65625 -21.9375 13.0625 -21.734375 12.5625 -21.328125 C 12.070312 -20.929688 11.675781 -20.398438 11.375 -19.734375 C 11.082031 -19.078125 10.863281 -18.34375 10.71875 -17.53125 C 10.570312 -16.726562 10.484375 -15.941406 10.453125 -15.171875 C 11.546875 -15.210938 12.46875 -15.378906 13.21875 -15.671875 C 13.96875 -15.960938 14.582031 -16.328125 15.0625 -16.765625 C 15.539062 -17.210938 15.890625 -17.691406 16.109375 -18.203125 C 16.328125 -18.710938 16.4375 -19.1875 16.4375 -19.625 C 16.4375 -20.320312 16.242188 -20.878906 15.859375 -21.296875 C 15.472656 -21.722656 14.96875 -21.9375 14.34375 -21.9375 Z M 14.34375 -21.9375 "/></g></g></g><g fill="#0d009f" fill-opacity="1"><g transform="translate(639.724743, 680.77187)"><g><path d="M 25.40625 -37.21875 L 34.46875 -37.21875 L 34.46875 0 L 26.71875 0 L 16.109375 -16.0625 C 15.890625 -16.382812 15.585938 -16.859375 15.203125 -17.484375 C 14.816406 -18.109375 14.410156 -18.757812 13.984375 -19.4375 C 13.566406 -20.113281 13.164062 -20.769531 12.78125 -21.40625 C 12.394531 -22.050781 12.078125 -22.578125 11.828125 -22.984375 C 11.859375 -22.429688 11.898438 -21.757812 11.953125 -20.96875 C 12.015625 -20.1875 12.070312 -19.390625 12.125 -18.578125 C 12.175781 -17.773438 12.21875 -16.988281 12.25 -16.21875 C 12.289062 -15.445312 12.3125 -14.804688 12.3125 -14.296875 L 12.484375 0 L 3.40625 0 L 3.40625 -37.21875 L 10.828125 -37.21875 L 21.546875 -21.28125 C 21.878906 -20.769531 22.25 -20.191406 22.65625 -19.546875 C 23.0625 -18.898438 23.472656 -18.25 23.890625 -17.59375 C 24.304688 -16.9375 24.695312 -16.304688 25.0625 -15.703125 C 25.4375 -15.097656 25.75 -14.570312 26 -14.125 C 25.96875 -14.71875 25.929688 -15.394531 25.890625 -16.15625 C 25.859375 -16.925781 25.8125 -17.722656 25.75 -18.546875 C 25.695312 -19.378906 25.648438 -20.179688 25.609375 -20.953125 C 25.578125 -21.722656 25.5625 -22.398438 25.5625 -22.984375 Z M 25.40625 -37.21875 "/></g></g></g><g fill="#0d009f" fill-opacity="1"><g transform="translate(677.603491, 680.77187)"><g><path d="M 1.484375 -13.03125 C 1.484375 -15.488281 1.835938 -17.660156 2.546875 -19.546875 C 3.265625 -21.429688 4.253906 -23.003906 5.515625 -24.265625 C 6.785156 -25.535156 8.265625 -26.5 9.953125 -27.15625 C 11.640625 -27.820312 13.472656 -28.15625 15.453125 -28.15625 C 17.171875 -28.15625 18.632812 -27.941406 19.84375 -27.515625 C 21.050781 -27.097656 22.039062 -26.515625 22.8125 -25.765625 C 23.582031 -25.015625 24.148438 -24.132812 24.515625 -23.125 C 24.890625 -22.113281 25.078125 -21.019531 25.078125 -19.84375 C 25.078125 -18.53125 24.742188 -17.285156 24.078125 -16.109375 C 23.421875 -14.929688 22.476562 -13.894531 21.25 -13 C 20.019531 -12.101562 18.535156 -11.359375 16.796875 -10.765625 C 15.054688 -10.179688 13.085938 -9.800781 10.890625 -9.625 C 11.140625 -8.519531 11.601562 -7.628906 12.28125 -6.953125 C 12.96875 -6.273438 14.003906 -5.9375 15.390625 -5.9375 C 16.203125 -5.9375 17.066406 -6.023438 17.984375 -6.203125 C 18.898438 -6.390625 19.742188 -6.59375 20.515625 -6.8125 C 21.429688 -7.070312 22.328125 -7.367188 23.203125 -7.703125 L 24.859375 -1.984375 C 23.867188 -1.503906 22.785156 -1.082031 21.609375 -0.71875 C 20.617188 -0.425781 19.472656 -0.148438 18.171875 0.109375 C 16.867188 0.367188 15.484375 0.5 14.015625 0.5 C 11.785156 0.5 9.875 0.171875 8.28125 -0.484375 C 6.6875 -1.148438 5.382812 -2.066406 4.375 -3.234375 C 3.363281 -4.410156 2.628906 -5.832031 2.171875 -7.5 C 1.710938 -9.164062 1.484375 -11.007812 1.484375 -13.03125 Z M 14.34375 -21.9375 C 13.65625 -21.9375 13.0625 -21.734375 12.5625 -21.328125 C 12.070312 -20.929688 11.675781 -20.398438 11.375 -19.734375 C 11.082031 -19.078125 10.863281 -18.34375 10.71875 -17.53125 C 10.570312 -16.726562 10.484375 -15.941406 10.453125 -15.171875 C 11.546875 -15.210938 12.46875 -15.378906 13.21875 -15.671875 C 13.96875 -15.960938 14.582031 -16.328125 15.0625 -16.765625 C 15.539062 -17.210938 15.890625 -17.691406 16.109375 -18.203125 C 16.328125 -18.710938 16.4375 -19.1875 16.4375 -19.625 C 16.4375 -20.320312 16.242188 -20.878906 15.859375 -21.296875 C 15.472656 -21.722656 14.96875 -21.9375 14.34375 -21.9375 Z M 14.34375 -21.9375 "/></g></g></g><g fill="#0d009f" fill-opacity="1"><g transform="translate(703.937187, 680.77187)"><g><path d="M 0.546875 -27.375 L 5.0625 -27.375 L 6 -33.046875 L 13.53125 -34.6875 L 13.53125 -27.375 L 20.015625 -27.375 L 18.96875 -21 L 13.53125 -21 L 13.53125 -8.75 C 13.53125 -7.132812 14.375 -6.328125 16.0625 -6.328125 C 16.976562 -6.328125 17.851562 -6.414062 18.6875 -6.59375 C 19.132812 -6.707031 19.578125 -6.816406 20.015625 -6.921875 L 21.5 -1.09375 C 20.769531 -0.84375 19.753906 -0.5625 18.453125 -0.25 C 17.148438 0.0625 15.5625 0.21875 13.6875 0.21875 C 10.9375 0.21875 8.78125 -0.347656 7.21875 -1.484375 C 5.664062 -2.617188 4.890625 -4.546875 4.890625 -7.265625 L 4.890625 -21 L 0.546875 -21 Z M 0.546875 -27.375 "/></g></g></g><g fill="#0d009f" fill-opacity="1"><g transform="translate(725.487941, 680.77187)"><g/></g></g><g fill="#0d009f" fill-opacity="1"><g transform="translate(739.506924, 680.77187)"><g><path d="M 9.84375 0.21875 C 7.75 0.21875 6.0625 -0.320312 4.78125 -1.40625 C 3.5 -2.488281 2.859375 -4.019531 2.859375 -6 L 2.859375 -27.609375 L 11.546875 -27.609375 L 11.546875 -8.46875 C 11.546875 -7.625 11.671875 -7.054688 11.921875 -6.765625 C 12.179688 -6.472656 12.570312 -6.328125 13.09375 -6.328125 C 13.382812 -6.328125 13.675781 -6.351562 13.96875 -6.40625 C 14.257812 -6.457031 14.441406 -6.503906 14.515625 -6.546875 L 15.28125 -1.09375 C 15.25 -1.0625 15.082031 -0.976562 14.78125 -0.84375 C 14.488281 -0.71875 14.101562 -0.570312 13.625 -0.40625 C 13.15625 -0.25 12.585938 -0.109375 11.921875 0.015625 C 11.265625 0.148438 10.570312 0.21875 9.84375 0.21875 Z M 7.3125 -40.859375 C 8.851562 -40.859375 10.023438 -40.398438 10.828125 -39.484375 C 11.640625 -38.566406 12.046875 -37.410156 12.046875 -36.015625 C 12.046875 -34.585938 11.628906 -33.394531 10.796875 -32.4375 C 9.972656 -31.488281 8.738281 -31.015625 7.09375 -31.015625 C 5.550781 -31.015625 4.367188 -31.476562 3.546875 -32.40625 C 2.722656 -33.34375 2.3125 -34.453125 2.3125 -35.734375 C 2.3125 -37.203125 2.734375 -38.421875 3.578125 -39.390625 C 4.421875 -40.367188 5.664062 -40.859375 7.3125 -40.859375 Z M 7.3125 -40.859375 "/></g></g></g><g fill="#0d009f" fill-opacity="1"><g transform="translate(755.175204, 680.77187)"><g><path d="M 19.03125 0 L 19.03125 -17.15625 C 19.03125 -18.4375 18.875 -19.46875 18.5625 -20.25 C 18.25 -21.039062 17.671875 -21.4375 16.828125 -21.4375 C 15.796875 -21.4375 14.835938 -20.769531 13.953125 -19.4375 C 13.078125 -18.101562 12.640625 -16.222656 12.640625 -13.796875 L 12.640625 0 L 3.953125 0 L 3.953125 -14.296875 C 3.953125 -16.492188 3.796875 -18.316406 3.484375 -19.765625 C 3.179688 -21.210938 2.828125 -22.394531 2.421875 -23.3125 C 1.984375 -24.34375 1.488281 -25.164062 0.9375 -25.78125 L 7.921875 -27.984375 C 8.242188 -27.617188 8.570312 -27.195312 8.90625 -26.71875 C 9.195312 -26.320312 9.476562 -25.800781 9.75 -25.15625 C 10.03125 -24.507812 10.265625 -23.785156 10.453125 -22.984375 C 11.398438 -24.703125 12.707031 -25.960938 14.375 -26.765625 C 16.039062 -27.578125 17.863281 -27.984375 19.84375 -27.984375 C 22.707031 -27.984375 24.742188 -27.113281 25.953125 -25.375 C 27.160156 -23.632812 27.765625 -21.316406 27.765625 -18.421875 L 27.765625 0 Z M 19.03125 0 "/></g></g></g><g fill="#0d009f" fill-opacity="1"><g transform="translate(785.797051, 680.77187)"><g><path d="M 11.65625 -28.09375 C 13.050781 -28.09375 14.34375 -27.972656 15.53125 -27.734375 C 16.71875 -27.492188 17.769531 -27.226562 18.6875 -26.9375 C 19.757812 -26.570312 20.734375 -26.1875 21.609375 -25.78125 L 18.859375 -19.625 C 18.566406 -19.769531 18.191406 -19.953125 17.734375 -20.171875 C 17.273438 -20.398438 16.78125 -20.625 16.25 -20.84375 C 15.71875 -21.0625 15.15625 -21.242188 14.5625 -21.390625 C 13.976562 -21.535156 13.410156 -21.609375 12.859375 -21.609375 C 12.273438 -21.609375 11.78125 -21.476562 11.375 -21.21875 C 10.976562 -20.96875 10.78125 -20.566406 10.78125 -20.015625 C 10.78125 -19.429688 11.15625 -18.851562 11.90625 -18.28125 C 12.65625 -17.71875 13.65625 -17.175781 14.90625 -16.65625 C 17.101562 -15.738281 18.796875 -14.644531 19.984375 -13.375 C 21.179688 -12.113281 21.78125 -10.421875 21.78125 -8.296875 C 21.78125 -7.128906 21.566406 -6.003906 21.140625 -4.921875 C 20.722656 -3.835938 20.097656 -2.890625 19.265625 -2.078125 C 18.441406 -1.273438 17.40625 -0.632812 16.15625 -0.15625 C 14.914062 0.3125 13.488281 0.546875 11.875 0.546875 C 10.59375 0.546875 9.390625 0.453125 8.265625 0.265625 C 7.148438 0.0859375 6.125 -0.132812 5.1875 -0.40625 C 4.257812 -0.6875 3.425781 -0.960938 2.6875 -1.234375 C 1.957031 -1.515625 1.375 -1.765625 0.9375 -1.984375 L 3.796875 -8.296875 C 3.972656 -8.222656 4.289062 -8.054688 4.75 -7.796875 C 5.207031 -7.546875 5.738281 -7.289062 6.34375 -7.03125 C 6.957031 -6.78125 7.601562 -6.550781 8.28125 -6.34375 C 8.957031 -6.144531 9.609375 -6.046875 10.234375 -6.046875 C 10.992188 -6.046875 11.617188 -6.191406 12.109375 -6.484375 C 12.609375 -6.773438 12.859375 -7.21875 12.859375 -7.8125 C 12.859375 -8.507812 12.554688 -9.128906 11.953125 -9.671875 C 11.347656 -10.222656 10.570312 -10.679688 9.625 -11.046875 C 6.875 -12.148438 4.898438 -13.390625 3.703125 -14.765625 C 2.515625 -16.140625 1.921875 -17.851562 1.921875 -19.90625 C 1.921875 -21.070312 2.140625 -22.148438 2.578125 -23.140625 C 3.023438 -24.140625 3.664062 -25.003906 4.5 -25.734375 C 5.34375 -26.460938 6.359375 -27.035156 7.546875 -27.453125 C 8.742188 -27.878906 10.113281 -28.09375 11.65625 -28.09375 Z M 11.65625 -28.09375 "/></g></g></g><g fill="#0d009f" fill-opacity="1"><g transform="translate(809.052075, 680.77187)"><g><path d="M 9.84375 0.21875 C 7.75 0.21875 6.0625 -0.320312 4.78125 -1.40625 C 3.5 -2.488281 2.859375 -4.019531 2.859375 -6 L 2.859375 -27.609375 L 11.546875 -27.609375 L 11.546875 -8.46875 C 11.546875 -7.625 11.671875 -7.054688 11.921875 -6.765625 C 12.179688 -6.472656 12.570312 -6.328125 13.09375 -6.328125 C 13.382812 -6.328125 13.675781 -6.351562 13.96875 -6.40625 C 14.257812 -6.457031 14.441406 -6.503906 14.515625 -6.546875 L 15.28125 -1.09375 C 15.25 -1.0625 15.082031 -0.976562 14.78125 -0.84375 C 14.488281 -0.71875 14.101562 -0.570312 13.625 -0.40625 C 13.15625 -0.25 12.585938 -0.109375 11.921875 0.015625 C 11.265625 0.148438 10.570312 0.21875 9.84375 0.21875 Z M 7.3125 -40.859375 C 8.851562 -40.859375 10.023438 -40.398438 10.828125 -39.484375 C 11.640625 -38.566406 12.046875 -37.410156 12.046875 -36.015625 C 12.046875 -34.585938 11.628906 -33.394531 10.796875 -32.4375 C 9.972656 -31.488281 8.738281 -31.015625 7.09375 -31.015625 C 5.550781 -31.015625 4.367188 -31.476562 3.546875 -32.40625 C 2.722656 -33.34375 2.3125 -34.453125 2.3125 -35.734375 C 2.3125 -37.203125 2.734375 -38.421875 3.578125 -39.390625 C 4.421875 -40.367188 5.664062 -40.859375 7.3125 -40.859375 Z M 7.3125 -40.859375 "/></g></g></g><g fill="#0d009f" fill-opacity="1"><g transform="translate(824.720356, 680.77187)"><g><path d="M 7.421875 2.796875 C 9.035156 3.347656 10.4375 3.78125 11.625 4.09375 C 12.820312 4.40625 14.097656 4.5625 15.453125 4.5625 C 16.921875 4.5625 18.101562 4.140625 19 3.296875 C 19.894531 2.453125 20.34375 1.242188 20.34375 -0.328125 C 20.34375 -2.015625 20.085938 -3.519531 19.578125 -4.84375 C 18.953125 -3.1875 18.035156 -1.910156 16.828125 -1.015625 C 15.617188 -0.117188 14.039062 0.328125 12.09375 0.328125 C 10.300781 0.328125 8.734375 0 7.390625 -0.65625 C 6.054688 -1.320312 4.945312 -2.25 4.0625 -3.4375 C 3.1875 -4.625 2.535156 -6.0625 2.109375 -7.75 C 1.691406 -9.4375 1.484375 -11.304688 1.484375 -13.359375 C 1.484375 -15.453125 1.820312 -17.394531 2.5 -19.1875 C 3.175781 -20.988281 4.117188 -22.535156 5.328125 -23.828125 C 6.535156 -25.128906 7.984375 -26.144531 9.671875 -26.875 C 11.359375 -27.613281 13.226562 -27.984375 15.28125 -27.984375 C 16.382812 -27.984375 17.53125 -27.910156 18.71875 -27.765625 C 19.914062 -27.617188 21.035156 -27.453125 22.078125 -27.265625 C 23.117188 -27.085938 24.03125 -26.914062 24.8125 -26.75 C 25.601562 -26.582031 26.128906 -26.460938 26.390625 -26.390625 L 26.171875 -12.703125 C 26.171875 -11.523438 26.269531 -10.429688 26.46875 -9.421875 C 26.675781 -8.421875 26.894531 -7.429688 27.125 -6.453125 C 27.363281 -5.484375 27.59375 -4.484375 27.8125 -3.453125 C 28.039062 -2.429688 28.15625 -1.335938 28.15625 -0.171875 C 28.15625 3.679688 27.0625 6.644531 24.875 8.71875 C 22.695312 10.789062 19.738281 11.828125 16 11.828125 C 14.3125 11.828125 12.550781 11.625 10.71875 11.21875 C 8.882812 10.8125 7.109375 10.242188 5.390625 9.515625 Z M 13.53125 -6.046875 C 14.113281 -6.046875 14.640625 -6.289062 15.109375 -6.78125 C 15.585938 -7.28125 16.007812 -7.953125 16.375 -8.796875 C 16.75 -9.640625 17.035156 -10.609375 17.234375 -11.703125 C 17.441406 -12.804688 17.546875 -13.960938 17.546875 -15.171875 L 17.546875 -21.171875 C 17.285156 -21.273438 16.925781 -21.375 16.46875 -21.46875 C 16.007812 -21.5625 15.613281 -21.609375 15.28125 -21.609375 C 14.40625 -21.609375 13.671875 -21.414062 13.078125 -21.03125 C 12.492188 -20.644531 12.023438 -20.113281 11.671875 -19.4375 C 11.328125 -18.757812 11.082031 -17.941406 10.9375 -16.984375 C 10.789062 -16.035156 10.71875 -15.007812 10.71875 -13.90625 C 10.71875 -12.882812 10.734375 -11.90625 10.765625 -10.96875 C 10.804688 -10.03125 10.925781 -9.195312 11.125 -8.46875 C 11.332031 -7.738281 11.617188 -7.148438 11.984375 -6.703125 C 12.347656 -6.265625 12.863281 -6.046875 13.53125 -6.046875 Z M 13.53125 -6.046875 "/></g></g></g><g fill="#0d009f" fill-opacity="1"><g transform="translate(854.352645, 680.77187)"><g><path d="M 11.828125 -25.515625 C 12.773438 -26.359375 13.867188 -26.976562 15.109375 -27.375 C 16.359375 -27.78125 17.664062 -27.984375 19.03125 -27.984375 C 21.882812 -27.984375 23.914062 -27.117188 25.125 -25.390625 C 26.332031 -23.671875 26.9375 -21.347656 26.9375 -18.421875 L 26.9375 0 L 18.203125 0 L 18.203125 -17.15625 C 18.203125 -18.4375 18.046875 -19.46875 17.734375 -20.25 C 17.421875 -21.039062 16.84375 -21.4375 16 -21.4375 C 15.519531 -21.4375 15.03125 -21.28125 14.53125 -20.96875 C 14.039062 -20.664062 13.59375 -20.207031 13.1875 -19.59375 C 12.789062 -18.988281 12.460938 -18.253906 12.203125 -17.390625 C 11.953125 -16.535156 11.828125 -15.578125 11.828125 -14.515625 L 11.828125 0 L 3.140625 0 L 3.140625 -38.375 L 11.828125 -39.859375 Z M 11.828125 -25.515625 "/></g></g></g><g fill="#0d009f" fill-opacity="1"><g transform="translate(884.149857, 680.77187)"><g><path d="M 0.546875 -27.375 L 5.0625 -27.375 L 6 -33.046875 L 13.53125 -34.6875 L 13.53125 -27.375 L 20.015625 -27.375 L 18.96875 -21 L 13.53125 -21 L 13.53125 -8.75 C 13.53125 -7.132812 14.375 -6.328125 16.0625 -6.328125 C 16.976562 -6.328125 17.851562 -6.414062 18.6875 -6.59375 C 19.132812 -6.707031 19.578125 -6.816406 20.015625 -6.921875 L 21.5 -1.09375 C 20.769531 -0.84375 19.753906 -0.5625 18.453125 -0.25 C 17.148438 0.0625 15.5625 0.21875 13.6875 0.21875 C 10.9375 0.21875 8.78125 -0.347656 7.21875 -1.484375 C 5.664062 -2.617188 4.890625 -4.546875 4.890625 -7.265625 L 4.890625 -21 L 0.546875 -21 Z M 0.546875 -27.375 "/></g></g></g></svg>